<?xml version="1.0" encoding="utf-8"?>
<!-- Generator: Adobe Illustrator 18.1.1, SVG Export Plug-In . SVG Version: 6.00 Build 0)  -->
<svg version="1.1" id="Layer_1" xmlns="http://www.w3.org/2000/svg" xmlns:xlink="http://www.w3.org/1999/xlink" x="0px" y="0px"
	 viewBox="90 338.7 792 117.3" enable-background="new 90 338.7 792 117.3" xml:space="preserve">
<g>
	<path fill="#ED2224" d="M146.8,452.2c-30.6,0-54-22.2-54-54.6c0-32.4,23.4-54.6,54-54.6c30.7,0,54.1,22.2,54.1,54.6
		C201,430,177.6,452.2,146.8,452.2z M146.8,365.2c-17,0-27.9,12.9-27.9,32.4c0,19.6,10.9,32.4,27.9,32.4c17.2,0,28.1-12.9,28.1-32.4
		C174.9,378,164.1,365.2,146.8,365.2z"/>
	<path fill="#ED2224" d="M280.5,450.2c-2.2-2.8-3.5-9.7-4.3-20.9c-0.8-11.9-6.2-15.7-16.7-15.7h-21.2v36.6h-24.9V344.9h50.8
		c27.2,0,40.6,12.7,40.6,32.9c0,15.5-9.9,25.2-22.7,26.9c11.2,2.2,17.5,8.7,18.7,21.1c1.5,15.5,2,20.6,5.5,24.4H280.5z M260.1,394.1
		c13.2,0,19.7-3.8,19.7-14.2c0-9.4-6.5-14.5-19.7-14.5h-21.9v28.7C238.3,394.1,260.1,394.1,260.1,394.1z"/>
	<path fill="#ED2224" d="M313.5,397.6c0-32.4,23.6-54.6,53.6-54.6c30.6,0,48.5,16.7,50.8,43.3l-24.7,0.8
		c-1.3-13.2-10.4-21.7-25.6-21.7c-17.5,0-28.1,12.7-28.1,32.3c0,20.1,10.9,33.3,30.1,33.3c11.5,0,21.4-5.8,25.1-16.2h-25.2v-18.4
		h49.1v54h-22.2V437c-5.7,10.5-17.7,15.2-31.8,15.2C335.4,452.2,313.5,430.2,313.5,397.6z"/>
	<path fill="#ED2224" d="M497,344.9l42.5,105.3h-27.1l-9-22.7h-42.4l-8.9,22.7h-25.4l42.1-105.3H497z M468.2,408.4H496l-13.5-34.6
		h-0.7L468.2,408.4z"/>
	<path fill="#ED2224" d="M617.5,408.1v-63.2h23.2v105.3h-20.2L571.7,383v67.2h-23.4V344.9h24.4L617.5,408.1z"/>
	<path fill="#FFFFFF" d="M683.1,344.9v105.3h-25.4V344.9H683.1z"/>
	<path fill="#FFFFFF" d="M784.8,429.3v20.9h-88.1v-19.1l54.3-65.3h-53.8v-20.9h86.1v19.6l-54.6,64.8H784.8z"/>
	<path fill="#FFFFFF" d="M879.5,450.2h-81.2V344.9H878v20.9h-54.8v20.7h42.6v20.6h-42.6v22.2h56.3L879.5,450.2L879.5,450.2z"/>
</g>
</svg>
