<?xml version="1.0" encoding="utf-8"?>
<!-- Generator: Adobe Illustrator 16.0.0, SVG Export Plug-In . SVG Version: 6.00 Build 0)  -->
<!DOCTYPE svg PUBLIC "-//W3C//DTD SVG 1.1//EN" "http://www.w3.org/Graphics/SVG/1.1/DTD/svg11.dtd">
<svg version="1.1" id="Layer_1" xmlns="http://www.w3.org/2000/svg" xmlns:xlink="http://www.w3.org/1999/xlink" x="0px" y="0px"
	 width="792px" height="117.333px" viewBox="0 0 792 117.333" enable-background="new 0 0 792 117.333" xml:space="preserve">
<g>
	<path fill="#ED2224" d="M56.837,113.556c-30.585,0-53.979-22.228-53.979-54.647c0-32.422,23.395-54.647,53.979-54.647
		c30.746,0,54.145,22.226,54.145,54.647C110.981,91.329,87.583,113.556,56.837,113.556z M56.837,26.487
		c-17.047,0-27.909,12.871-27.909,32.422c0,19.553,10.861,32.42,27.909,32.42c17.214,0,28.075-12.867,28.075-32.42
		C84.912,39.358,74.051,26.487,56.837,26.487z"/>
	<path fill="#ED2224" d="M190.535,111.551c-2.171-2.841-3.509-9.691-4.346-20.894c-0.835-11.863-6.181-15.706-16.708-15.706h-21.225
		v36.6h-24.904V6.267h50.804c27.241,0,40.611,12.701,40.611,32.921c0,15.547-9.858,25.232-22.726,26.904
		c11.194,2.176,17.544,8.695,18.713,21.058c1.506,15.542,2.005,20.559,5.514,24.401H190.535z M170.145,55.398
		c13.205,0,19.722-3.844,19.722-14.205c0-9.357-6.517-14.537-19.722-14.537h-21.889v28.742H170.145z"/>
	<path fill="#ED2224" d="M223.464,58.909c0-32.422,23.563-54.647,53.643-54.647c30.583,0,48.468,16.712,50.805,43.281l-24.734,0.836
		c-1.336-13.2-10.362-21.723-25.567-21.723c-17.55,0-28.077,12.702-28.077,32.253c0,20.058,10.864,33.254,30.083,33.254
		c11.531,0,21.391-5.848,25.064-16.209h-25.233V57.573h49.134v53.979h-22.228V98.348c-5.682,10.525-17.713,15.208-31.751,15.208
		C245.357,113.556,223.464,91.498,223.464,58.909z"/>
	<path fill="#ED2224" d="M406.96,6.267l42.45,105.284h-27.073l-9.024-22.729h-42.445l-8.858,22.729h-25.404L378.721,6.267H406.96z
		 M378.219,69.77h27.741l-13.539-34.592h-0.665L378.219,69.77z"/>
	<path fill="#ED2224" d="M527.46,69.439V6.267h23.229v105.284h-20.223l-48.799-67.18v67.18h-23.396V6.267h24.399L527.46,69.439z"/>
	<path fill="#010101" d="M593.139,6.267v105.284h-25.399V6.267H593.139z"/>
	<path fill="#010101" d="M694.752,90.658v20.894H606.68V92.499l54.315-65.343H607.18V6.267h86.067v19.555l-54.646,64.836H694.752z"
		/>
	<path fill="#010101" d="M789.513,111.551h-81.22V6.267h79.715v20.889h-54.818v20.723h42.617v20.556h-42.617v22.224h56.323V111.551z
		"/>
</g>
</svg>
