<svg id="Layer_1" data-name="Layer 1" xmlns="http://www.w3.org/2000/svg" viewBox="0 0 59.26 59.26"><defs><style>.cls-1{fill:#5fa8dc;}</style></defs><title>new reg flow_jesse edits</title><path class="cls-1" d="M55.55,0H3.7A3.7,3.7,0,0,0,0,3.7V55.55a3.7,3.7,0,0,0,3.7,3.7H55.55a3.7,3.7,0,0,0,3.7-3.7V3.7A3.7,3.7,0,0,0,55.55,0ZM44.34,22.19c0,0.32,0,.65,0,1a21.29,21.29,0,0,1-21.6,21.28,21.76,21.76,0,0,1-11.64-3.36A15.56,15.56,0,0,0,22.35,38a7.58,7.58,0,0,1-7.09-5.19,7.54,7.54,0,0,0,1.42.13,7.89,7.89,0,0,0,2-.26,7.52,7.52,0,0,1-6.09-7.33s0-.06,0-0.1a7.69,7.69,0,0,0,3.44.94,7.41,7.41,0,0,1-2.35-10A21.71,21.71,0,0,0,29.34,24a7.62,7.62,0,0,1-.19-1.71,7.53,7.53,0,0,1,7.59-7.48,7.64,7.64,0,0,1,5.54,2.36,15.38,15.38,0,0,0,4.82-1.81,7.49,7.49,0,0,1-3.34,4.13,15.3,15.3,0,0,0,4.37-1.18A15.43,15.43,0,0,1,44.34,22.19Z"/></svg>