<svg id="Layer_1" data-name="Layer 1" xmlns="http://www.w3.org/2000/svg" viewBox="0 0 136.6 81.01"><defs><style>.cls-1,.cls-2{fill:#ee232f;}.cls-1{fill-rule:evenodd;}</style></defs><title>state</title><path class="cls-1" d="M61,18.9c0.62,0.09.58,0.62,0.6,1.12A1.26,1.26,0,0,1,61,18.9Z"/><line class="cls-2" x1="40.25" y1="29.61" x2="40.06" y2="29.58"/><path class="cls-1" d="M40,29.76l0.35,0a10.54,10.54,0,0,1,1,1.49,10.79,10.79,0,0,0,.92,1.58,1.56,1.56,0,0,1,1.43-.5c0.15,0,.44,0,0.41-0.12A3.19,3.19,0,0,0,43.44,32c-0.66-.92-1.59-1.52-1.63-1.71a1.19,1.19,0,0,0-.43-0.93,1.25,1.25,0,0,0-.88.23A0.54,0.54,0,0,1,40,29.34a2.41,2.41,0,0,0-1.21-.81,1.63,1.63,0,0,0-.25,1.37c0.77,0.37.84-.27,1.44-0.14"/><path class="cls-1" d="M123.17,64.11c-0.39-.18-0.36-0.38-0.09-0.62a0.31,0.31,0,0,0-.43.12,4.11,4.11,0,0,1-1.09-2.83,0.31,0.31,0,0,0,.43-0.12c0.74,0.21.52,1.3,1.08,1.82a4.68,4.68,0,0,1,.75.34c0.21,0.32-.27,1.09.41,1.08-0.18.39-.38,0.36-0.62,0.09l0,0.2"/><line class="cls-2" x1="123.56" y1="64.19" x2="123.38" y2="64.05"/><line class="cls-2" x1="123.31" y1="64.44" x2="123.52" y2="64.38"/><path class="cls-1" d="M123.52,64.38c0.75,0.35-.27.86-0.45,1.33-0.42-.16.1-1,0.06-1.4"/><line class="cls-2" x1="123.13" y1="64.31" x2="123.31" y2="64.44"/><line class="cls-2" x1="123.38" y1="64.05" x2="123.17" y2="64.11"/><path class="cls-1" d="M46.72,48.18a1.93,1.93,0,0,0-.29,1.56,3.23,3.23,0,0,1-3.5-1.86c0.3-.62.38,0,1,0,0.33-.35,1.08-0.08,1.32-0.56C45.76,47.59,46.19,47.92,46.72,48.18Z"/><path class="cls-1" d="M119,63.75c-0.53.2-.5-0.39-0.71-0.54a2.19,2.19,0,0,1-.39-0.07c-0.48-.69.26-0.35,0.27-0.35,0.29-.28-0.55-0.79-0.64-0.93,0.14-.29.65-0.05,0.53-0.71,0.38,0.14.62,0.07,0.66-.28L119.31,61c0.28,0.72-.82.48-0.48,1.53,0.32,0.18,1.19,0,1.14.41"/><line class="cls-2" x1="120.76" y1="63.47" x2="120.7" y2="63.25"/><path class="cls-1" d="M120.7,63.25a0.55,0.55,0,0,1,.66-0.28,2.55,2.55,0,0,1,.21,1,1.3,1.3,0,0,1-.94-0.38"/><line class="cls-2" x1="120.63" y1="63.65" x2="120.76" y2="63.47"/><line class="cls-2" x1="119.07" y1="63.36" x2="118.93" y2="63.53"/><line class="cls-2" x1="118.93" y1="63.53" x2="119" y2="63.75"/><path class="cls-1" d="M121,61.69c-0.07.56-.86,0.35-0.14,0.78-0.39.53-.71-0.4-1.37-0.25l0.14-.78C120.22,61.62,120.64,61.16,121,61.69Z"/><path class="cls-1" d="M120.29,64.39c0.28,0.43.53-.07,1.17,0.22a12.94,12.94,0,0,1,.88,1.78,8.94,8.94,0,0,1,.88,1.78c0.09,0.44-.33.94,0.17,1.24-0.64.21-1.27-1.06-1.27-1.85,0-.51-0.39.21-0.78-0.14-0.11-.4.08-0.66,0-1s-0.77-.48-0.41-1.09c0-.51-0.39.21-0.78-0.14Z"/><path class="cls-1" d="M127.61,66.35c0.4,0.23,1,.68.41,1.08A1.08,1.08,0,0,1,127.61,66.35Z"/><path class="cls-1" d="M124.83,68.26c-0.27-.25-0.75-0.33-0.28-0.66-0.09-.58-0.57.19-0.75-0.34,0.15-.27.38-0.44,0.53-0.71,0.43,0,.27.65,0.44,0.89,0,0,.75-0.23.28,0.66"/><line class="cls-2" x1="125.06" y1="68.1" x2="124.86" y2="68.06"/><path class="cls-1" d="M124.85,69a0.77,0.77,0,0,0,0-1"/><line class="cls-2" x1="124.86" y1="68.06" x2="124.83" y2="68.26"/><path class="cls-1" d="M129.57,67.72c0.09,0.34,1,.13.67,0.73C129.73,68.41,129.42,68.22,129.57,67.72Z"/><path class="cls-1" d="M128.19,68.68a5.48,5.48,0,0,0-.51-0.5C128.07,67.56,128.84,68.22,128.19,68.68Z"/><path class="cls-1" d="M129.08,68.23c0.17,0,.17.11,0.16,0.23,0.37,0.37,1.13.47,0.76,1.35a11.75,11.75,0,0,0-1.26-.84A1.12,1.12,0,0,0,129.08,68.23Z"/><path class="cls-1" d="M126.8,69.63c0.59,0.41-.49.4-0.38,0.94C125.87,70.22,126.7,69.85,126.8,69.63Z"/><path class="cls-1" d="M76.25,63.33l0.18-1c0.41,0.35,1.46.24,1.22,1-0.6-.21-0.64.58-1,0"/><line class="cls-2" x1="76.64" y1="63.4" x2="76.46" y2="63.27"/><path class="cls-1" d="M76,63.53a0.69,0.69,0,0,0,.42-0.26"/><line class="cls-2" x1="76.46" y1="63.27" x2="76.25" y2="63.33"/><path class="cls-1" d="M71.88,68.38c0.25,0.11.07,0.52,0.05,0.82a0.94,0.94,0,0,0-.55-0.3A5.42,5.42,0,0,0,71.88,68.38Z"/><path class="cls-1" d="M53.42,74.27a0.93,0.93,0,0,0,.55.3L53.9,75a0.31,0.31,0,0,0-.43.12C53.22,75,53.4,74.56,53.42,74.27Z"/><path class="cls-1" d="M45.69,75.67c-0.43.28-1.32-.1-2-0.17-0.83,0-1.2,1.2-2.1.42,0-1.19,1.23-.69,1.34-1.77C44.32,74.37,46.41,73.18,45.69,75.67Z"/><path class="cls-1" d="M38.65,76.59c-0.14.44-.6,0.35-0.82,0.05C38.11,76.1,38.17,76.47,38.65,76.59Z"/><path class="cls-1" d="M32.16,77.81a1.05,1.05,0,0,1-1.71.49C30.69,77.66,31.26,77.5,32.16,77.81Z"/><path class="cls-1" d="M33.38,78.85c0,0.56-.9-0.31-0.85.25C31.91,78.64,33,78.66,33.38,78.85Z"/><path class="cls-1" d="M30.38,78.7c-0.16.59-.81,0.47-1.16,0.8C28.75,79,29.66,78.33,30.38,78.7Z"/><path class="cls-1" d="M13,76.7c0.76,0.21-.48,1.45-0.77.87A1.87,1.87,0,0,0,13,76.7Z"/><path class="cls-1" d="M5.21,76.07a1.58,1.58,0,0,1,.55.3,1,1,0,0,1-1,.21C4.88,76.41,5.2,76.47,5.21,76.07Z"/><line class="cls-2" x1="108.82" y1="55.4" x2="108.86" y2="55.21"/><line class="cls-2" x1="110.01" y1="54.41" x2="110.09" y2="54.53"/><line class="cls-2" x1="108.85" y1="53.59" x2="108.91" y2="53.81"/><line class="cls-2" x1="89.06" y1="49.74" x2="88.86" y2="49.7"/><path class="cls-1" d="M88.73,50.25a4.2,4.2,0,0,0,.13-0.55"/><line class="cls-2" x1="88.86" y1="49.7" x2="88.67" y2="49.66"/><line class="cls-2" x1="55.77" y1="72.48" x2="55.59" y2="72.34"/><line class="cls-2" x1="54.82" y1="72.71" x2="54.88" y2="72.92"/><line class="cls-2" x1="54.76" y1="72.49" x2="54.82" y2="72.71"/><path class="cls-1" d="M54.82,72.71c0.3,0.06.79,0.06,0.77-.36"/><line class="cls-2" x1="55.59" y1="72.34" x2="55.38" y2="72.41"/><line class="cls-2" x1="48.23" y1="42.2" x2="48.36" y2="42.02"/><line class="cls-2" x1="63.25" y1="22.14" x2="63.44" y2="22.18"/><line class="cls-2" x1="63.12" y1="21.72" x2="63.09" y2="21.91"/><path class="cls-1" d="M63.09,21.91a0.93,0.93,0,0,0-.55-0.3c-0.08-.34,1-0.15.78,0.14"/><line class="cls-2" x1="63.32" y1="21.75" x2="63.12" y2="21.72"/><path class="cls-1" d="M63.12,21.72a1.12,1.12,0,0,1,.32.46"/><line class="cls-2" x1="63.44" y1="22.18" x2="63.48" y2="21.98"/><line class="cls-2" x1="108.98" y1="53.41" x2="108.85" y2="53.59"/><path class="cls-1" d="M109.56,54.13a1.61,1.61,0,0,1-.71-0.54l0.06,0.21-0.59-.11A2.74,2.74,0,0,1,104.25,55a1.31,1.31,0,0,0-.17-1.24c-0.33.19-.43,0.69-0.77,0.87A5.15,5.15,0,0,0,101,54a9.17,9.17,0,0,0-1.09.41c-0.57.12-1.58-.17-1.9,0.46-0.78-.37-0.78-1.28-2.2-1.21a2.28,2.28,0,0,1,.36-2c-0.43-.36-1.17.93-1.5,1.54-0.66-.12-1.37-0.71-0.8-1.16l-1-.18c-0.25-.45.06-0.24,0.14-0.78-0.76-.68-1.12.19-1.76-0.32l0.07-.39c-0.06-.74.88,0,1.08-0.41,0-.29-0.57-0.18-0.51-0.5-1.06.35-1.85,1.49-2.68,0.31l-0.2,0-0.39-.07A1.12,1.12,0,0,0,89,48.92c-0.58-.18-0.52.56-0.77,0.87-0.52-.26-0.56.18-1,0-0.42.69,0.47,0.47,0.21,1-0.33.18-.9,0-0.93,0.64a0.2,0.2,0,0,0,.39.07c0.2,0,.24.92,0.55,0.3,0.53,0.4-.73.23-0.73,0.67a1.66,1.66,0,0,0,1.37.25,13.81,13.81,0,0,1-1,1c0,0.23.33,0.23,0.55,0.3-0.41.31-.63,0.91-1,1.22a4.52,4.52,0,0,1-1.69-.72c-0.38-.13.1,0.55-0.34,0.75A5.28,5.28,0,0,0,84,55.27c-0.37.46,0.13,1.36-.73,0.67-0.07.49,0.25,0.67-.18,1-0.3-1.15-.71.75-1.21,0-0.51,0,.21.39-0.14,0.78a0.81,0.81,0,0,0-.73.67A1.28,1.28,0,0,1,80.26,58c-0.29,0-.08.34,0.12,0.43a6.57,6.57,0,0,0-1.48.33,0.59,0.59,0,0,0-.32-0.46c0.14-.62.6-0.78,1.32-0.57,0.15-.59.86-1,1.34-1.77-0.79-.08-1,0.65-1.9.46,0-.19-0.21-0.2-0.35-0.27,0.35-1.83,2.26-2.81,1.49-4.78,0.91,0.1,1.17-.93,2-1a3.1,3.1,0,0,1,.75.34c0.7,0.11,1.66-.08,2.34.43,0.05-1-1.55-.86-1.93-1.57A4,4,0,0,1,85.33,48c-0.66-.77-1.6.15-1.78,0.88-0.82-.18-1.05.2-1.1-0.61a2.33,2.33,0,0,1-1.16.8,5.25,5.25,0,0,1-1.82,1.08c0.12,0.4-.71.54-0.14,0.78a10.49,10.49,0,0,1-1.42,1.15,1.38,1.38,0,0,1-.45,1.33c-0.75,0-.78-0.49-1.53-0.48,0,0.72,1,.76,1.15,1.42-0.11,1-1.17.62-1.78,0.88,0,0.39.89,0.18,0.44,0.89-0.35,0-.34-0.22-0.32-0.46-0.38.11-.4,0.75-1.08,0.41-0.1,1.59-1.7,1-1.55,2.95a2.33,2.33,0,0,1,2.24,1,2.16,2.16,0,0,0-.53.71,3,3,0,0,1-.85.25,3.3,3.3,0,0,0-.93.64,1.1,1.1,0,0,1,.09.62c-0.08.11-.72-0.09-0.66,0.28s0.41,0.28.28,0.66a7.28,7.28,0,0,0-.82.05c-0.19.07-.14,0.23,0,0.2a11.1,11.1,0,0,0-1.48.33,3.77,3.77,0,0,0-.11.59c-0.06.09-.68,0-0.5,0.51a1.57,1.57,0,0,1-.55-0.3,3.7,3.7,0,0,0-.8,1.06c-1.07-.24-1.34.7-2.17,0.81,0,0.32.58,0.28,0.25,0.85a1.32,1.32,0,0,1-.77.87,4.72,4.72,0,0,0-.59-0.11c-0.5.2-.94,0.83-1.28,0.37-0.41,0-.21.85-0.57,0.9-0.58.27-.56-0.63-1.21,0-0.13.32,0.08,0.4,0.32,0.46-0.78.27-1.79,0.21-2.37,0.78,0.06,0.6.65,0,1,.18-0.47.72-1.43,0.73-1.89,1.47-0.75,0-1.5,0-1.74.69-0.36.56-.15-0.6,0.11-0.59a1.5,1.5,0,0,0-1.44.14l-0.89.44a0.83,0.83,0,0,1-1,.21c-0.23.34-.3,0.1-0.85,0.25-0.1,0-.81.73-1,0.21,0-.43.35-0.32,0.66-0.28a1.18,1.18,0,0,0-.44-0.89c-0.59-.28-0.66.2-1,0.21a2.69,2.69,0,0,1-.41,1.14,2.5,2.5,0,0,1-.62.09c-0.25.2,0,.44-0.3,0.55a1.19,1.19,0,0,1-.85.25c-0.36-1.11.1-1.63,0.86-2.47a2.08,2.08,0,0,1,1.12-.6,3.08,3.08,0,0,1,2.1-.42,8.35,8.35,0,0,0,1,1.39c0.23,0,.23-0.33.3-0.55a1.16,1.16,0,0,1,.51.5l0.62-.09q0.32-.73-0.48-0.69c0.08-1.49.64-1.44,1.6-2.13a5.75,5.75,0,0,1,.5-0.51c0.79-.35,2,0,2.4-1a1.57,1.57,0,0,1,.55.3c0.56,0.08.51-.75,0.64-1.3,0.77-.62,1.61-1.13,2.35-1.79,0.42,0.17,1,.64,1.21,0a2.39,2.39,0,0,1-.67-0.73,5.75,5.75,0,0,0,.59-2.11,3,3,0,0,1,1.21,0c0.05-.43-0.41-0.51-0.9-0.57,0.08-1.46,1-1.7,1.8-2.09-0.38-1,.59-1,0.59-2.11-0.49,0-.57.66-0.8,1.06a20.76,20.76,0,0,0-2.79.9c-0.65-.07-0.45-0.71-0.83-1,0-.56.46-0.32,0.54-0.71,0.66-.06.15,0.69,0.67,0.73,0.91-.75-1.11-0.94-0.88-1.78-0.5.31-.38,1.52-1.16,0.8,0.2,1-.67,1.24-0.27,2.58-0.62.12-.58-0.58-0.83-1s-0.46-1.21-.69-1.74a1,1,0,0,0-.69.48c-0.31-.52-0.8-0.93-1.15-1.42a9.43,9.43,0,0,1-2.17.81,3.67,3.67,0,0,1-1.55.72c0.5-.81,0-1.66.75-1.88,0-.48-0.55-0.64-0.6-1.12a2.42,2.42,0,0,1,.8-1.06c0.36-.51-0.15-1.05-0.3-1.67,0-.18.15-0.41,0.11-0.59a5.16,5.16,0,0,0-.32-0.46c0-.25.17-0.53,0.14-0.78a1.57,1.57,0,0,0-.32-0.46c0.18-.86.83-1.14,1.53-1.74a1.41,1.41,0,0,0-.51-0.5c-0.62.59-1,1.54-1.76,1.9-0.14.55,0.59,0.5,0.17,1.24-0.27.32-.36-0.16-0.59-0.11-0.66.13-1.21,0.74-2.13,0.62A3.38,3.38,0,0,0,50,51.21c-0.25-.45.06-0.25,0.14-0.78-0.25-.68-1-1-0.85-2-0.94.52-.42-1.1-1.19-1.23a11,11,0,0,0,1.42-1.15,2.55,2.55,0,0,0,.9.57c0.05,0.65-.42.55-0.57,0.9,0.69,0.18.82-.45,1.48-0.33a1.28,1.28,0,0,0,.05.82c1.54,0.1.85-1.11,0.79-2.08-1.14.86-1.74-.3-3.13-0.58,0.13-.39.87,0.11,0.89-0.44,0-.28-0.46-0.25-0.75-0.34,0.24,0,.4-0.91.07-0.39-0.59-1,1.25-.66,1.3-1.58-0.21-.36-1,0.51-1.51.53-0.08.62-.64,0.56-0.64,1.3-0.4-.23.26-1.2-0.6-1.12-0.08-.8.82-0.57,0.41-1.14l0.27-.35A1,1,0,0,0,48,41.15c0.11-.25.52-0.07,0.82-0.05,0.14-1.7,1.28-1.93,1.94-2.87,0.82,0,.56.75,1.49,0.68a0.87,0.87,0,0,0-.71-0.53c0.07-.65.83-0.27,1-0.83a0.2,0.2,0,0,0-.39-0.07c-0.39-.2,0-1.24.25-1.37a1.28,1.28,0,0,1,.75.34c0.56-.08-0.45-0.46,0-1,0.55-.36,1.19.19,1.53,0.48-0.16.27-.38,0.44-0.54,0.71,0.68-.25,1.22.22,1.79,0.13,0.93-.16,1.41-1.17,2.12-1.63a4.46,4.46,0,0,0,1.92.56,2.91,2.91,0,0,0,1.66-1.31c0.08-.22-0.19-0.66-0.17-1.24a5.42,5.42,0,0,0,.18-1c-0.14-.73-0.67-1-0.72-1.55a1,1,0,0,0,1.51-.53c0.23-.6-0.67-1.1-0.14-1.44-0.81-.35-1,0.27-1.32.57-0.15-.93-2.26.38-2.83,1.09-0.46-.31-0.1-1.18-1-1.19a0.2,0.2,0,0,0-.07.39c-0.18.4-.27-0.23-0.35-0.27-0.9-.41-2.27-0.1-3.36-0.42s-1.41-.94-2.2-1.21c0-.69.45-1.63-0.19-2.26,0.5-.1.71-0.62,1.48-0.33,0.08-1.18-1.57-1.07-2.48-1.87-0.43-.38-0.24-0.89-0.8-1.16,0.53-.22,1.41.07,1.55-0.72,0.88,0.84,1.43-.65,2.33-0.58,0.63,0,.62.48,1.33,0.45,0.44,0.05-.16-0.54.18-1A2,2,0,0,1,56,20a1.87,1.87,0,0,1,2.22,0c-0.32.45-.34,1.32-1,1.22a1.91,1.91,0,0,1,.6,1.12c0.47,0.38,1.63-.1,2,0.36,0,0-.1.38-0.07,0.39,0.4,0.13,1.41-.45,1.53.48,0.63-.07.68-1,1.23-1.19,0.75-.18,0,0.69.48,0.69a0.64,0.64,0,0,0,.38-0.94L63.48,22a2.73,2.73,0,0,0,1.6.09,2,2,0,0,0-.17-1.24,1.69,1.69,0,0,1-1.14-.41c-0.67-.23-0.61.6-1.28,0.37,0.24-.51-0.32-0.46-0.25-0.85,0-.77.82-0.8,0.45-1.33s-1.35-.32-1-1.19c-0.48.7-1.61,0.36-2.42,0,0.41-3.35-2-4.78-3.37-6.89a19.75,19.75,0,0,0,1.21-2.2C59.9,9,61,8.94,62.33,7.43c0.11-.13.44-0.42,0.5-0.51a11.84,11.84,0,0,1,.45-1.33c0.57-.79,1.48-1.07,1.76-1.9a3.68,3.68,0,0,0,3.41-1c0.45,0.13,0,.88-0.18,1a1.57,1.57,0,0,1,.55.3A2,2,0,0,1,70,3c-0.25-.41-0.64,0-0.9-0.57,0-.63.62-0.42,0.77-0.87C70.1,1.62,70,1.94,70,2.17c0.76-.36,1.54,0,2.26-0.19a4.7,4.7,0,0,0,2.39-2c0.82,0.06.45,0.94,1.45,0.87,0,0.78-.56.68-1,0.83a1,1,0,0,0,.48.69,1.17,1.17,0,0,0,1.19-1c0.29,0,.47.94,0.59,0.11,0.3,0.36-.05,1.17.57,1.32a1.43,1.43,0,0,0,1.28-.37C80,2.36,80.67,3.14,81,2.79A1.5,1.5,0,0,1,80.74,4c0.87,0.43,2.05,1.8,3.09.77a1.84,1.84,0,0,1,.55.3c0.42,0,.72-0.37,1.08-0.41a2.46,2.46,0,0,0,.55.3c0.07,0,1.29,0,1.3.64,0.8-.32,1.43.65,2.27,0.82,0.53,0.11,1.26-.27,2,0a13.44,13.44,0,0,0,1.26.84,4.67,4.67,0,0,0,1.87-.26A0.6,0.6,0,0,0,95,6.4c0.46-.15.58,0.35,0.94,0.38,0.52,0,.41-0.4.85-0.25a3,3,0,0,1,.67.73c0.14,0.11.44,0,.59,0.11s0.07,0.4.12,0.43a2.22,2.22,0,0,1,.62-0.09,1,1,0,0,0,1.1.61c0.41,3.32.64,7.18,1.05,10.7,0.1,0.81.22,2.3,0.36,3.5,0.17,1.44.41,3.78,0.59,5.56,0.55,5.46,1.24,11.83,1.82,17.51,0.09,0.9.35,2.22,0.36,3.5,0,0.48.28,1,.33,1.48,0.09,0.85-.17,1.79.35,2.49,1.11,0.49,1.45-.43,2.18.2,0.76-.21,1.78-1.3,2.17-0.81a1.15,1.15,0,0,1-.13.91Z"/><path class="cls-1" d="M109.56,54.13a0.59,0.59,0,0,1,.53.4"/><line class="cls-2" x1="110.09" y1="54.53" x2="110.21" y2="54.45"/><path class="cls-1" d="M114.82,57.93c-0.52-.18-0.32.69-0.73,0.67-0.07-.69-0.62-1.05-0.69-1.74-1.32-.63-2.06-1.65-3.19-2.41l-0.2,0c0.17,0.83-.86-0.09-0.89.44,0.34-.08.15,1-0.14,0.78,0-.16.07-0.39-0.12-0.43V54.78a0.22,0.22,0,0,0-.24.23,1.45,1.45,0,0,0,.21.39,0.75,0.75,0,0,0-.45-0.1c-0.39.25,0.08,0.8-.12,1,1.26,0.26,2.2,1.3,3.44,1,0.09,0.9,1.68.78,1.47,1.89,0.63,0,.68.57,1.17,0.22,0.2,0.1-.06.63-0.11,0.59,0.51,0.47,1.92.44,2.43,1.05-0.09-1.21.06-.91,1.12-0.6,0.26-.57-0.47-0.47-0.21-1a0.9,0.9,0,0,1-1.26-.84c-0.68-.31-1.1.15-1.37-0.25l0-.2"/><line class="cls-2" x1="114.82" y1="57.93" x2="114.78" y2="58.12"/><path class="cls-1" d="M114.78,58.12a1,1,0,0,1,.73-0.67"/><line class="cls-2" x1="115.51" y1="57.45" x2="115.32" y2="57.41"/><line class="cls-2" x1="119.25" y1="54.7" x2="119.06" y2="54.84"/><line class="cls-2" x1="119.16" y1="55.19" x2="119.37" y2="55.13"/><line class="cls-2" x1="123.43" y1="58.3" x2="123.24" y2="58.27"/><line class="cls-2" x1="123.67" y1="58.65" x2="123.79" y2="58.57"/><line class="cls-2" x1="135.23" y1="73.21" x2="135.36" y2="73.03"/><line class="cls-2" x1="135.36" y1="73.03" x2="135.3" y2="72.82"/><path class="cls-1" d="M131.1,69.32c-0.33.47,0.44,1-.29,1.56a0.4,0.4,0,0,1-.2-0.68,2.94,2.94,0,0,0,.49-0.88"/><path class="cls-1" d="M135.23,73.21c0.37,0.09,0,.67.48,0.69a5,5,0,0,0,.9-2.66c-1-.7-1-2.06-1-3.41-0.52-.26-0.56.18-1,0-0.5-.89-1.65-0.69-2.27-0.82-0.79-.16-1.44-1-2.15-0.4,0.13-.89-0.89-1-0.88-1.78-0.4-.38-0.85-0.09-0.94-0.38,0.25-1-.71-1.45-1.08-1.82l-0.16-.23a12.28,12.28,0,0,0-2.69-2.92c-0.18-.33,0-0.9-0.64-0.93l-0.2,0c-0.75.37-.51,1.88,0,2.42,0.34-.09.13-1,0.73-0.67l-0.22,1.17c0.49,0.11,1.07-.89,1.44-0.14,0,0.48-.87-0.27-0.69.48,0.35,0.49,1.57.4,1.38,1.27L125.8,63l0.06,0.21-0.13.18c-0.33,1,.77-0.13.71,0.54s-1,.07-1,0.83A1.37,1.37,0,0,1,127,65a0.55,0.55,0,0,1,.5-0.51,4.49,4.49,0,0,0,.17,1.24c0.48,0.33,1.22-.16,1.17.22a1.56,1.56,0,0,0-.3.55c0.86-.22.46,0.13,0.71,0.53a2.1,2.1,0,0,0,.39.07c0.06,0,0,.37.12,0.43a7.74,7.74,0,0,0,.78.14,1.27,1.27,0,0,0,.32.46s0.65-.33.59,0.11c-0.39.16-1,.51-0.61,1.1,0,0,0,1.18.39,0.07,0.16-.42.84-0.22,1.08-0.41s0.22-1,.73-0.67c-0.33.78,0.4,0.88,0.6,1.12,0.66,0.78.39,1.8,1.17,2.44a0.81,0.81,0,0,0-.73.67l0.78,0.14a1.37,1.37,0,0,1,.64-1.3,4.35,4.35,0,0,1-.25,1.37"/><line class="cls-2" x1="123.59" y1="58.54" x2="123.67" y2="58.65"/><line class="cls-2" x1="123.24" y1="58.27" x2="123.2" y2="58.46"/><path class="cls-1" d="M123.2,58.46c-0.51.08-.19,1.37-0.68,1.49s-0.62-.48-1.33-0.45c0-.6-1.11-1-0.53-1.51a1.28,1.28,0,0,1-.75-0.34c0-1.09-1.05-1.44-.93-2.6l0.39,0.07a3.54,3.54,0,0,0,1.06.8c0.12,0.06.49,0.15,0.39,0.07,0.53,0.39.68,1.08,1.15,1.42s1.3-.05,1.45.87Z"/><line class="cls-2" x1="118.98" y1="55.06" x2="119.16" y2="55.19"/><path class="cls-1" d="M119.16,55.19a0.5,0.5,0,0,0-.1-0.36"/><line class="cls-2" x1="119.06" y1="54.84" x2="118.98" y2="55.06"/><path class="cls-1" d="M119,55.06c-0.17,0-.17-0.11-0.16-0.23-0.5-.24,0,0.95-0.54.71,0.75,1.58,1.38,3.26,2.14,4.84-0.35.5-.74-0.38-0.9-0.57-0.69-.34-0.65.38-1.24,0.17,0.9-.62-1.27-1.71,0-2a1.62,1.62,0,0,0-.9-0.57c-0.51,0,.27.59,0,1-1-.06-0.94-1.09-1.88-0.75l-0.16-.23c0-.29.74-0.41,1-0.83s0-1.62.4-2.15a3.27,3.27,0,0,1,1.35-.76,1.06,1.06,0,0,1,1.22,1"/><line class="cls-2" x1="115.48" y1="57.64" x2="115.51" y2="57.45"/><line class="cls-2" x1="114.78" y1="58.12" x2="114.98" y2="58.16"/><path class="cls-1" d="M89.14,55.31a0.3,0.3,0,0,0,.23-0.16"/><path class="cls-1" d="M126.2,66.29a2.79,2.79,0,0,0,.8,1.16c-0.11.5-.81,0.14-0.93,0.64-0.21-1.05-1-1.66-1.33-2.67a2.73,2.73,0,0,1,1.53.48"/><line class="cls-2" x1="126.27" y1="65.9" x2="126.14" y2="66.08"/><line class="cls-2" x1="126.14" y1="66.08" x2="126.2" y2="66.29"/><path class="cls-1" d="M119.65,65.69C120,65.07,120,66,120.2,66,119.89,67.26,120.13,65.75,119.65,65.69Z"/><path class="cls-1" d="M132.41,72.08c-0.88-.72.39-2.14-0.38-2.29a0.93,0.93,0,0,0,.3-0.55c1.28,0.48,1.71,1.55,1.45,3.1-0.58-.23-0.32-1-0.76-1.35-0.38-.07-0.1.44-0.07,0.39C132.81,71.61,132.33,71.07,132.41,72.08Z"/><path class="cls-1" d="M127.77,69.81c1.6,0.19,2.46,1.27,1.75,2.55,0.26,0.21.56-.15,1.37,0.25a3.71,3.71,0,0,1,.46,1.9l-0.18-.13-0.21.06c-0.58-.07-0.58-0.9-1-1.19a0.34,0.34,0,0,0-.43.12,2.31,2.31,0,0,1-1.08-1.82c-0.39-.07-0.35.49-0.85,0.25,0.43-.8.12-1.08-0.07-1.83"/><path class="cls-1" d="M127.74,70l0-.2,0,0a1,1,0,0,1-.45-0.65,0.9,0.9,0,0,0-.28-0.08L127.54,70l0.2,0"/><path class="cls-1" d="M75.1,67.36c-0.69.06-.1,0.43-0.53,0.71a1.47,1.47,0,0,0-1.35.76c-0.32-.21,0-0.36.11-0.59-0.31-.25-0.57.3-0.66,0.28s-0.12-.74-0.9-0.57c-0.44.1-.21,0.63-0.39-0.07-0.11-.41-0.47-0.71-0.44-0.89a1.91,1.91,0,0,1,1.62-1.11,2.38,2.38,0,0,0,.88,1.78c-0.28-.38.15-0.85,0.22-1.17a3,3,0,0,1,.11-0.59c0-.39-0.85-0.66-0.21-1,0.33,0.11.38,0.42,0.25,0.85,0.33,0.25.76-.46,0.78,0.14,0.5,0.07.51-.58,0.61-1.1,0.53,0,.59.39,0.44,0.89,0.57,0.08.49-.77,1.12-0.6,0.14,0.41-.49,1.19.57,1.32-0.07.39-.58,0.15-0.54,0.71-0.47-.29-1.24-0.59-1.6-0.09"/><line class="cls-2" x1="75.17" y1="66.97" x2="75.04" y2="67.15"/><line class="cls-2" x1="75.04" y1="67.15" x2="75.1" y2="67.36"/><path class="cls-1" d="M75.11,68.37c-0.16.18-.49,0.12-0.5,0.51C74.14,68.72,74.74,68.13,75.11,68.37Z"/><path class="cls-1" d="M73.18,69c0.35,0.2-.16.24-0.27,0.35s0,0.32-.07.39a3.43,3.43,0,0,1-.66.28C72.1,69.83,72.91,69.51,73.18,69Z"/><path class="cls-1" d="M48.15,73.29a1.73,1.73,0,0,1-.29,1.56c-0.54-.14-0.07-1-0.83-1-0.72-.19.66-0.38,0.39,0.07A1.18,1.18,0,0,0,48.15,73.29Z"/><path class="cls-1" d="M35.63,77.65a2.55,2.55,0,0,1-.9-0.57A1,1,0,0,1,36,76.71a0.47,0.47,0,0,0,.71.53c0.57-.31-0.46.4-0.69,0.48"/><line class="cls-2" x1="36.02" y1="77.72" x2="35.84" y2="77.58"/><path class="cls-1" d="M35,78.14a0.54,0.54,0,0,0,.81-0.56"/><line class="cls-2" x1="35.84" y1="77.58" x2="35.63" y2="77.65"/><path class="cls-1" d="M34.43,78.64a1.41,1.41,0,0,1-.66.28C33.3,78.75,34.18,78.56,34.43,78.64Z"/><path class="cls-1" d="M1.77,75C2,74.46,1.3,74.56,1.56,74c0.48,0.41.87,0.88,0.17,1.24C1.52,75.15,1.66,75,1.77,75Z"/><path class="cls-1" d="M14.8,78.85c-0.6.39-1-.77,0,0h0Z"/></svg>