<svg id="Layer_1" data-name="Layer 1" xmlns="http://www.w3.org/2000/svg" viewBox="0 0 56.47 91.83"><defs><style>.cls-1{fill:#ee232f;fill-rule:evenodd;}</style></defs><title>state</title><path class="cls-1" d="M19.07,89c-0.76-.08-1.71,2.3-2.27.57-1.54-.4.41,2.67-1.13,2.27-1.87-.39-1.31-3.23-4-2.83,0.38-3-.33-5-2.27-5.67-1.17,1.47-1.2,4.09-1.13,6.8h-4c-1.2-4.58-1.08-9.68-1.7-14.73-0.77-6.3-3.07-12-2.27-19.83C1.82,41.4.77,22.64,1.51,6.8,2.45,4.67-1.13,4.22.37,3.4c13.33-.46,25.51-2.06,38-3.4,2.15,8.95,5.82,18.76,8.5,28.33C47.74,31.57,48,35,49.1,38a31.06,31.06,0,0,0,2.27,5.1c0.53,0.84,1.85,1.35,2.27,2.27,0.53,1.18-.72,3.41,1.13,4-1.07,1.85-1.24,3-1.7,5.67-0.58,3.34-.2,5.06,1.7,7.93-0.12,1.77.38,4.16-.57,5.1,0.07,2.38,2.19,2.72,2.27,5.1-8.81.45-19.38,2.4-28.9,3.4C23,77,16.69,75.77,15.1,79.33c0.39,2.63,2.61,3.43,4,5.1C18.29,86.14,19.34,86.45,19.07,89Z"/></svg>