<svg id="Layer_1" data-name="Layer 1" xmlns="http://www.w3.org/2000/svg" viewBox="0 0 74.41 67.75"><defs><style>.cls-1{fill:#ee232f;fill-rule:evenodd;}</style></defs><title>state</title><path class="cls-1" d="M68,18.84c-0.3,2.38,1,3.17,1.13,5.1a4.27,4.27,0,0,1-3.4,3.4c0.5,1,1.8,1.65.57,2.83-1.13.94-.72-0.05-2.27,0,0.16,1.65-.14,1.95-1.13,1.13-0.5,2.67-.47,5.57,0,6.8-0.61,1.84-3.4,1.51-3.4,4-1.13.94-.72-0.05-2.27,0,0.3,1.59.83,2.95,1.13,4.53-2-.31-2.48.92-3.4,1.7,0.24,1.11,1.62-.93,1.13,1.7-0.63,1.07-.8,2.6-2.27,2.83-0.36,1.24,1.61,1.8-.57,1.7-0.56,1,1.12,1.44,1.13,1.7a2.36,2.36,0,0,1-1.13,1.13c0.74,2.31,2,1.21,2.27,2.83a11.76,11.76,0,0,0,.57,1.7c0.11,1.29-1,.77-1.13,1.7-0.07.42,1,1.34,0.57,2.27-7.72-.32-15.4,1.32-23.8,1.13-1.16,0-2.78-.62-4-0.57s-2.17,1-3.4,1.13c-4.38.62-8.91-.61-13,0V57.94a0.87,0.87,0,0,1-1.13-.57c-1-.65-2,0-2.83,0,0,0,.06-1.07,0-1.13C6.75,55.59,6.64,58,5.14,57.37,3.22,45.54,5.1,32.1,4,20c-0.55-6-2.84-11.59-2.83-17C19.75,2.86,39.7,2,58.4.71,61.88,0.48,67.17-1.71,68,3c0,1.7-1.67,2.88-2.83,1.7,1.53,1.39-2.1,3.14-.57,4.53,3.06,2.12,5-.8,9.63,0,0.65,1.14-1,.84-1.13,1.13a1,1,0,0,0,.57,1.13c-0.8,1.3-1.42,1.21-2.83,2.27,0.89,2.6-.2,2.64-1.7,4Z"/></svg>