<svg id="Layer_1" data-name="Layer 1" xmlns="http://www.w3.org/2000/svg" viewBox="0 0 70.94 83.1"><defs><style>.cls-1{fill:#ee232f;fill-rule:evenodd;}</style></defs><title>state</title><path class="cls-1" d="M0,57.56c0.12-1,1.41-.75,1.22-2,0.4-.4,1.92.52,2.43,0,0,0,.67-1.91.81,0,0.61-.35,0-2.15.41-2.43a2.31,2.31,0,0,1,1.22.41C6,53,4.91,52.28,4.46,51.89a3,3,0,0,0-1.62-1.22c0.54-1.76.06-2.71,0.41-4.05,0.13-1,1.84.55,2,.41s-0.81-.82-0.81-0.81c-0.12-.53,1.77-2.84,2-3.65,0.36-1.15,0-2.52.41-3.24,1.44-2.29,3.3-1.48,4.86-4.05,0-1.17-.82-1.56-2-2.43-0.08-4.17-3.24-7.31-.41-10.13a114.84,114.84,0,0,1,.41-12.16c1.85-.63,1.71.32,3.65,0.41,0.65,0.3-.09,2,1.22,1.62,1.08,1,1.28-.82,2-1.62,0.59-.64.81-1.1,1.22-3.24S18.67,2.23,19.05,0c5.64,1,11.17,2.32,17,3.24,0.66,0.1,1.37-.11,2,0,9.63,1.57,21.76,3.38,32.83,4.86-3.45,24.79-6.17,50.31-9.73,75-7.59-.78-14.56-2.19-22.29-2.84-0.34-.17-0.37-1,0-0.81-0.67-.3-3.76-0.31-2.84-2-0.83.95-1.81-.31-2.84-0.81A24.29,24.29,0,0,1,30.4,75.4c-0.08-.08.59-0.7,0.41-0.81-0.4-.24-0.32.39-0.41,0.4-0.5.1-.21-0.33-0.41-0.4a37,37,0,0,1-5.68-2.84,17.67,17.67,0,0,1-4.05-2.84c-0.22-.22-0.91.14-0.81-0.41,0,0.11.69-.23,0.41-0.41,0,0-1.64.78-2,0a2.69,2.69,0,0,0,.41-0.81c-0.37-.15-1,0.42-2,0-0.76-.31-1.31-1.2-2-1.62-0.43-.26-0.82-0.18-1.22-0.41A52.68,52.68,0,0,1,7.7,62c-0.25-.19-0.91.12-0.81-0.41,0,0.11.69-.23,0.41-0.41S7,61.6,6.89,61.61c-0.36.07-2.54-1.64-3.24-2C2.46,58.93,1.08,58.58,0,57.56Z"/></svg>