<svg id="Layer_1" data-name="Layer 1" xmlns="http://www.w3.org/2000/svg" viewBox="0 0 61.98 104.54"><defs><style>.cls-1{fill:#ee232f;fill-rule:evenodd;}</style></defs><title>state</title><path class="cls-1" d="M6.77,44.93c1.17,0.3,1.11,1.83,2.35,2.06a8.29,8.29,0,0,0-.29-2.64,16,16,0,0,1-.88-3.23,3.38,3.38,0,0,1,1.47,0,2,2,0,0,0,.88.29,1.57,1.57,0,0,1,1.76.59c0.9,0.21,1.07-.3,1.76-0.29,0.44,0.44.53,1.24,1.17,1.47,0.49-1.71-2.15-1.39-1.47-2.35-1.32,1.08-2.54-.88-3.52,0-1-.3-0.92-1.63-2.35-1.47-0.88.3-.58,1.77-0.88,2.64A10.28,10.28,0,0,1,5,40.23c-0.46-.56-1.33-1-0.88-1.76,0.32,0.07.2,0.58,0.59,0.59a12.59,12.59,0,0,0-.88-3.82,2.29,2.29,0,0,0-.59-0.59,8.09,8.09,0,0,1-.88-1.47,6.6,6.6,0,0,0,0-.88C1.92,31.4,1,30.53.9,29.66c-0.06-.4.55-1.16,0.59-2.06S1.1,26,1.19,25.55c0.3-1.59,1.48-2,1.17-4.4a12.56,12.56,0,0,0-1.17-3.52C0.89,17,.08,16.32,0,15.56A4.22,4.22,0,0,1,3,11.16c-0.83-.51.46-1,0.59-1.47a10.87,10.87,0,0,1,0-1.76C3.84,7.14,4.7,6.72,5,5.87,5.62,4.2,4.66,1.84,5.59,0c9.62,2.33,18.53,5.35,28.48,7.34C33.31,12.3,32,17,30.85,21.73s-2.31,9.41-3.52,14.1c5.86,8.93,12.26,17.52,18.21,26.43,0.35,0.53.52,1.22,0.88,1.76s0.88,0.75,1.17,1.17,0.52,1.22.88,1.76,0.88,0.75,1.17,1.17,0.53,1.28.88,1.76,0.87,0.74,1.17,1.17,0.56,1.27.88,1.76c0.12,0.19.48,0.41,0.59,0.59a92,92,0,0,0,6.46,9.4c-0.92,1.81,1.67,3.67.88,5.29C60.78,89,61.94,89,62,90.15c-0.25,1.07-1.52,1-2.06,1.47a6.32,6.32,0,0,0-1.47,1.76c-0.38.77-.11,2.35-0.59,3.23-0.09.17-.44,0.37-0.59,0.59a2.54,2.54,0,0,1-1.47,1.17c0.09,1.34.3,1.63-.29,2.64,0,1,1.29.67,1.47,1.47,0.34,1.22-.62,1.14-0.59,2.06-6-.52-14-1.44-20.85-2.06a1.25,1.25,0,0,1,.29-1.17c-0.16-1-.81-0.29-0.88-0.88-0.09-.83.46-2.19,0.29-3.52-0.45-3.65-3.46-5-5-7.93a2.42,2.42,0,0,0-2.06,0,11.19,11.19,0,0,0-.29-3.23c-2.29-.66-3.63-0.66-5-2.06a6.22,6.22,0,0,1-.59-1.47,4,4,0,0,0-3.82-2.35c-0.81-1.2-2.53-1.28-4.11-1.47-0.61-.07-0.78-1.49-1.76-1.47,0.9-1.25.62-3.68,1.47-5,0-1.15-1.19-1.16-1.76-1.76,0.13-.56.63-0.74,0.59-1.47-0.1-.92-1-1.34-1.47-2.06-0.13-.21.11-0.65,0-0.88a7,7,0,0,1-1.17-1.17c-0.41-.95-0.2-2-0.59-2.94C9.57,61.33,9,61.19,8.82,60.79s-0.13-.9-0.29-1.17a5,5,0,0,1-.88-4.4c1.06,0.18.87-.9,1.76-0.88a6.34,6.34,0,0,0-.29-2.64C9,51,7.56,51.67,7.36,51.1c-0.44-.95-1.26-1.51-1.47-2.64-0.11-.59.53-0.86,0.59-1.47s-0.74-1.81-.29-2.06"/></svg>