<svg id="Layer_1" data-name="Layer 1" xmlns="http://www.w3.org/2000/svg" viewBox="0 0 79.1 77.32"><defs><style>.cls-1{fill:#ee232f;fill-rule:evenodd;}</style></defs><title>state</title><path class="cls-1" d="M0,16.55C23.82,11.55,46.82,5.74,69.9,0c3.1,12.84,8.5,23.38,9.2,38.63C67.89,37.08,63.43,51.85,55.18,42.3c-0.16,5,3.07,3.7,0,7.36C46,51.55,38.09,52.22,31.27,57c-1.9,1.34-2,4.11-3.68,5.52-1.09.92-4.38-.87-5.52,0-1.59,1.22-.47,4.16-1.84,5.52S16,68.7,14.72,69.9c-2.34,2.25-3.7,6.55-7.36,7.36-2.14.3-3.27-.41-3.68-1.84-1.62-5.91,6.06-2.52,5.52-7.36C6.07,51,.83,36,0,16.55Z"/></svg>