<svg id="Layer_1" data-name="Layer 1" xmlns="http://www.w3.org/2000/svg" viewBox="0 0 71.38 88.83"><defs><style>.cls-1{fill:#ee232f;}</style></defs><title>state</title><g id="BdDiB7"><path class="cls-1" d="M27,0c3,3,6.11,5.82,8.85,8.91,7.53,8.47,15.89,16.15,23.5,24.51,3.86,4.23,8,8.25,12,12.81C67.11,49.89,64,54.5,59.28,57.41a7.52,7.52,0,0,0-1.22,1.19c-0.71.71-1.4,1.42-2.12,2.11L27,88.83c-0.43-.57-2-0.72-0.65-2,0.2-.19-1.36-1.18-0.42-2,1.34-1.13-.28-3.15,1.39-4.2,0.21-.13-0.17-1.26-0.32-1.92a12.64,12.64,0,0,1-.47-1.93c-0.12-2.31.53-4.79-1.7-6.6-0.27-.22,0-1,0-1.62,0.89,0.21,1.67.65,2.24,0.46a2,2,0,0,0,1.12-1.57c-0.27-2.73.37-5.43-.61-8.27-0.73-2.11-.4-4.58-2.52-6.35l-2.07,1a2.17,2.17,0,0,1-.71-0.46A2.87,2.87,0,0,0,21,50.47c-2-1.54-2.5-2.46-3.1-5.05A33.29,33.29,0,0,0,16.67,42c-1.21-.27-3.06-0.3-4.53-1.07C9.37,39.46,6,38.68,4.75,35.13c-0.89-2.56-3.54-4-4.28-6.79-0.56-2.1-.91-2.25.7-3.53C10.52,17.38,18,8.06,27,0Z"/></g></svg>