<svg id="Layer_1" data-name="Layer 1" xmlns="http://www.w3.org/2000/svg" viewBox="0 0 98.55 73.84"><defs><style>.cls-1{fill:#ee232f;fill-rule:evenodd;}</style></defs><title>state</title><path class="cls-1" d="M62.23,39.26c-0.37-3.53,1.4-8-.21-12.07-1.49-.73-1.81-2.63-2.91-3.75-1-.54-2,0.93-2.08,0-2.21-.84-2.93-3.18-5.41-3.75,0.73-2.11-1.31-1.93-2.5-2.91-0.66-.55-0.64-1.6-1.25-2.08A25,25,0,0,0,43.71,13a9.19,9.19,0,0,0-3.33,0c-0.55.17-.64,0.6-1.25,1.25,0,0-1.28,1.15-1.25.83a1.11,1.11,0,0,0,1.25.42C38.5,16.16,37.82,16,37,16.36a7.47,7.47,0,0,0-2.5,2.5c-0.62.53-.9-0.82-0.83-0.83-0.79.18-.84,1.23-1.67,1.67-1.11.58-2.32-.29-2.91,0.83-0.63-1.73-1.2-3.52-3.33-3.75,0.42-.57.69,0.18,1.25-0.83a7.22,7.22,0,0,0-3.75-1.67A12.34,12.34,0,0,0,25,12.2c-0.06-1.3-1.33.75-1.66,0.83-0.74.18-2.11-1.21-2.08,0.83-1.42-.11-2-1.05-3.75-0.83,2.2-2-2.11-2.18-3.33-2.5-1.09,1.69-3.74,1.81-5.83,2.5,0-.68-0.66-1.39-0.83-2.91-1.26-.3-0.38,1.4-0.83,1.67-0.15.09-.53-0.81-0.83-0.83-0.89-.06-0.35,1.29-1.25,2.5H3.75c-0.3-.7-2.21-1.91-0.83-2.91C2.38,9,.09,9.19,0,7.2,0.57,4.63,3.29,5.79,5,5.54c7.62-1.13,17-2,25-2.91C30.52,3.74,31.09,4.83,31.64,6c10.84,0,21.85-2,31.64-1.67a2,2,0,0,0,.83,2.08c3.58,0.21.32-5,1.67-6.24,1.19-.56,3.31,1,5.83.42,0.47,1.26-.22,3.12,1.66,3.75,0,2.62,1.47,4.79,2.5,7.08C78,16.31,81,21.43,84.92,25.1c-0.18.62-.53-0.16-1.25,0-0.34,2,.77,3.7,1.67,5.41,0.79,1.51,2,3.16,2.91,4.58A17.4,17.4,0,0,0,90.33,38c1.32,1.38,2,4.71,3.75,6.24,0,0.59.07,1.18-.42,1.25,2.15,0.94,2.65,1.6,3.75,5,0.76,2.35,1.6,10,.83,13.32-0.24,1-1.12,2-1.25,2.91s0.51,2,.42,2.91-1.16,1.49-.83,2.5c-2.5-.42-3,2.87-5.41,1.25L91,73.18l-0.21.21c-0.06-1.33-.94-1.83-2.5-1.66-1-1.39-2.18-2.7-3.33-4.16-0.89-1.13-.92-2-2.5-2.5-1.21-.37-2.3.28-3.33-0.42a12.1,12.1,0,0,1-2.08-5c-0.12-.85-1.11-0.83-1.66-1.25,0.11-1.56,1-2.36,1.66-3.33-2-.33-1.73,1.6-2.5,2.5-1.39-.56-1.65-4-0.83-5.41-0.52-.73-1.71,1.07-2.91,0-1.16.54,1.31,0.86,0.83,2.08-3-.63-4-3.25-5-5.83-0.24-1.29-2-1.09-2.08-2.5,1.42,0.13.92-1.83,1.25-2.5S67.4,42.3,67,41.34c-0.54-2.27-2-.88-4-2.08l-0.21.42c0.8,0.17,0,1.91,1.67,1.25a2.34,2.34,0,0,0-.42,1.67c-1.56.45-1.19-1-2.5-.83-0.34-1.18.59-1.08,0.42-2.08Z"/></svg>