<svg id="Layer_1" data-name="Layer 1" xmlns="http://www.w3.org/2000/svg" viewBox="0 0 79.42 83.29"><defs><style>.cls-1{fill:#ee232f;fill-rule:evenodd;}</style></defs><title>state</title><path class="cls-1" d="M26.44,82c-1.41-.2-3.06,1.33-5.95.71a40.29,40.29,0,0,0-3.4-6.8A6.38,6.38,0,0,1,16,74.23c-0.4-1.57.34-4.29,0-6.23-0.28-1.59-1.6-2.89-1.7-4C14,60.81,14.63,57.2,16.53,55c-1-1.42-.91-3.56-1.7-5.1-0.34-.66-1.29-0.6-1.7-1.13a44.74,44.74,0,0,1-2.27-5.1c-1.82-4.77-3-11.49-4.53-17C4.16,18.71,1.8,11.61,0,4.82,12.16,3,24.9,2.52,36.36,0a15,15,0,0,1-2.83,4.53c0.34,3.24,4.66,2.52,5.67,5.1,1.74-.4,1.09-0.4,2.83,0,1.66,2.55,3.81,7.13,6.23,9.07,0.48,0.39,1.25.19,1.7,0.57,1,0.8-.85,1.17,1.7.57-0.25,1.07,1.94,1.08,1.7,2.27,0,0-.9.15-0.57,0.57a1.08,1.08,0,0,1,1.13,0c1.15,1.3,2.07,1.6,4.53,2.83,1.27,4.21,4.72,6.23,8.5,7.93,0.26,2.57,2.31,3.36,2.27,6.23,0.46,1.43,2.33,1.45,3.4,2.27-1.1,1,.34,1,0,0.57,1.86,2.14,1.91,3.88,2.83,6.8,1.84-.33,2.64.39,4,0.57C79.1,52,77.5,53.53,76,51.56c-0.33,1.84.39,2.64,0.57,4-2.94-1-1.94,5.85-1.13,6.8-1.28.33-1.44,1-2.27,1.13-0.19,0-1.2-.88-1.7,0,0.48,1.22,2.92.48,3.4,1.7-0.07,2.1-.82,1.43-2.27,1.13,0.84,4.55-.5,5.79,1.13,9.07-2.58-.06-5.28,0-6.23-1.7a26.83,26.83,0,0,1-2.83,2.83c0.86,1.48,1.87,4.94.57,6.8-2.15.07-1.18-3-2.83-3.4C50.54,80.47,38.56,81.67,26.44,82Z"/></svg>