<svg id="Layer_1" data-name="Layer 1" xmlns="http://www.w3.org/2000/svg" viewBox="0 0 89.54 62.4"><defs><style>.cls-1,.cls-2{fill:#ee232f;}.cls-1{fill-rule:evenodd;}</style></defs><title>state</title><path class="cls-1" d="M7.52,0.68C8,3.38,6.65,4.32,6,6c-2.93.17-3.9-1.62-6-2.26C0.69,1.07,4.74-1.17,7.52.68Z"/><path class="cls-1" d="M33.11,11.22c0.17,3.34,3.7,3.32,3.76,6.77-1.55,1.35-3.41-2.17-4.51-2.26-0.36,0-1.07,1.34-.75,1.5a6.35,6.35,0,0,1-3.76-4.52C30.84,13.46,30.11,10.47,33.11,11.22Z"/><path class="cls-1" d="M58.69,25.51C63,25.2,66.27,26,67,29.28a19.06,19.06,0,0,1-6,1.5c-0.61-1.4-1-3-2.26-3.76"/><line class="cls-2" x1="58.69" y1="27.02" x2="59.07" y2="26.27"/><path class="cls-1" d="M59.07,26.27a1.89,1.89,0,0,1-1.25-.63"/><line class="cls-2" x1="59.07" y1="26.27" x2="58.69" y2="25.51"/><path class="cls-1" d="M49.66,26.27c0.31-1.87,2.92,0,2.26,1.5C50.93,27.51,50.74,26.45,49.66,26.27Z"/><path class="cls-1" d="M71.48,38.31c2.19,1.09,4.62,2,6.77,3,3.11,1.49,5.78,2.33,7.52,5.27,0.53,0.88.14,0.86,0.75,1.5s0.9,1.63,1.5,2.26a4.62,4.62,0,0,1,1.5,3c-2.18-.51-2.33,2.35-4.51,3-1,.31-2.84-0.52-3.76,0-2.66,1.48-4.57,3.18-5.27,6-2.2.2-2.31-1.7-4.52-1.51,0.21-5-.32-9.21-2.26-12,0.65-2.61,2.35-4.17,3.76-6C72.56,41.25,71.12,40.67,71.48,38.31Z"/><path class="cls-1" d="M48.53,20.62a19.18,19.18,0,0,0,2.26.75"/></svg>