<svg id="Layer_1" data-name="Layer 1" xmlns="http://www.w3.org/2000/svg" viewBox="0 0 88.81 57.68"><defs><style>.cls-1{fill:#ee232f;fill-rule:evenodd;}</style></defs><title>state</title><path class="cls-1" d="M0.43,14.7C1.61,14,2,10.77,2,8.69S0.28,7.37.85,6.42-0.09,3.21.66,2.83l0.75-.38s64-.94,70.45-2.46c0,0-.19,2.27,1.23,2.83,2.59-.28.06,2.47,0,4-0.1,2.6,1.83,4.71,2.27,7.37,1.93,0.14,2.72,1.43,5.1,1.13,0.73,1.34-.07,1.05.57,2.83,0.34,0.86,2.86,1.39,3.4,2.83,0.09,0.24-.84.84-0.57,1.13s1.33,0.29,1.7.57,0.71,0.79,1.13,1.13c2.51,2,2.9,3.58.57,7.37-1.12.76,0.18,4-1.7,4-1,1.72-1.75-1.55-2.27,0,1.4,2.18-4,2.41-6.23,2.83,0.33,1.51-1.68,3.54,0,4.53,0.53,1.36,2.28,1.5,1.7,4,0.6,2.11-2.12.9-1.7,2.83,0.41,1.73-.58,2.06-0.57,3.4-1-.07-1.19.69-1.89,0.94,0,0-2,1.51-1.79,3.59s-3.53-3.59-5.38-4c-0.43-.09-4.93,1-6.23,1.13C46.79,55.92,27.49,56,12.47,56.09c0.52-1.16-1.43-1.66-1.7-2.83-0.17-.73.64-2.45,0.57-3.4-0.11-1.47-.86-3.6-1.13-5.67-0.06-.42.6-0.59,0.57-1.13a4.18,4.18,0,0,1-.57-1.13c-0.31-2.24,0-1.71-1.13-2.83-0.87-.83.19-0.94-0.57-1.7,0.3,0.3-1.37.42-1.13-.57,0.54-7.15-4.22-9-4-15.87-1.44-1-3.2-3.5-1.13-3.4-1-.49-2.22.14-2.27-1.7,0-1,.43-1.16.57-0.57"/></svg>