<svg id="Layer_1" data-name="Layer 1" xmlns="http://www.w3.org/2000/svg" viewBox="0 0 53.86 87.81"><defs><style>.cls-1{fill:#ee232f;fill-rule:evenodd;}</style></defs><title>state</title><path class="cls-1" d="M0,79.13c0.55-3.7,1.37-6.33,2-9.55s1.07-6.75,1.75-9.93a17.16,17.16,0,0,1,1.4-2.84,20.93,20.93,0,0,0,.49-3C5.33,53.1,4,53.3,4,52.19,4,48.58,6.36,48.09,8.33,46.53c-0.65-1.11.28-1.58,0.73-2.31S10,42,10.47,41.4c1-1.48,2.26-2,2.23-3.28,0-.92-0.88-1.7-1.41-2.46a7,7,0,0,1-1.21-1.89L10.43,33c-0.37-.86,0-1-0.31-2.32a10.4,10.4,0,0,1-.12-2,1.75,1.75,0,0,0,.43-0.65c0.37-1,0-2.69.15-3.69,0.68-3.7,2.19-7.28,2.7-11.49,0.31-2.59,1.21-4.08,1.41-6A12.91,12.91,0,0,1,15,5.16C15.14,5,15.52,3,15.51,3c0.33-1.86.17-1.85,0.81-3l6.46,1.41A85.24,85.24,0,0,1,20.9,12.08a11.59,11.59,0,0,1,1.82,4.67,5.65,5.65,0,0,1-.35,1.45,2,2,0,0,0,.71,1.45c0.24,0.33.12,0.8,0.35,1.09,0.47,0.59,1,.84,1.41,1.45a35.45,35.45,0,0,1,1.77,3.27,4.29,4.29,0,0,1,.71,1.09c-0.18.91-.19,0.36,0.35,1.09,0.2,0.27.12,0.82,0.35,1.09,0.49,0.57,1.79.18,0.85,1.16,0.48,0.72,2.32-.55,2.32.66-0.79,3-2.75,4.43-2,8-0.47,1-.92.56-1.41,1.45a3.79,3.79,0,0,1-.11.89c0,0.71-.35.81,0.12,1.88,1.47,0.65,1.74.82,2.93,0.59,0.87-.17,1-1.41,2.35-1.17,1,1.43.26,3.18,0.82,5,0.37,1.22,1.16,1.62,1.29,2.7,0.29,1.3-.56,1.91.23,2.7,3.5,0.39,2.32,2.83,2.93,5.75a5.84,5.84,0,0,1,2.46-.59c0.79,0,1.21.31,1.88,0.23s1.7-.84,2.46-0.82a16.07,16.07,0,0,1,4.34.94c1.7,0.17.89-1.93,2.81-1.52,1.06,0.36.06,2.64,1.52,2.58L49.61,87.81Z"/></svg>