<svg id="Layer_1" data-name="Layer 1" xmlns="http://www.w3.org/2000/svg" viewBox="0 0 58.36 103.69"><defs><style>.cls-1{fill:#ee232f;fill-rule:evenodd;}</style></defs><title>state</title><path class="cls-1" d="M52.13,94.06a7.52,7.52,0,0,0-5.67,2.83c-0.06,2.1,2.63,3.32,1.13,5.1-3.8-2-9.51-3.65-10.77,1.7-1.48.06-3.43-2-4-3.4-0.29-.77.6-1.69,0.57-2.83-0.06-2.13-2-3.37-1.13-5.1-2.24-.63-3.09-3.26-5.1-4.53-0.32-.2-1.46.27-1.7,0s0.18-1,0-1.13c-0.57-.37-2-0.12-2.83-0.57-0.25-.13-0.36-1-0.57-1.13-3.46-1.56-4.28-4.31-1.7-8.5,0.62-1,.41-3.21,1.13-5.67-1-1-2.89-2.31-4.53-2.27-1.41,0-2,1.28-3.4,1.13-0.81-1.9-.55-4.3-1.7-6.23s-2.88-2-4.53-3.4c-0.46-.39-0.69-1.27-1.13-1.7s-3.44-2.55-4-3.4-0.73-3.23-1.13-4.53C0.66,48.89,0,47.9,0,46.46c0.06-3,2.43-2.16,1.13-6.23,0.6-1.67,2.56-2,4-2.83C4.57,34,6.65,33.28,7.37,31.16,7.07,27.6,3.81,27.6,5.1,23.8a50.34,50.34,0,0,0,9.07-3.4c0.58-4.18,3.53-5.88,2.83-9.63-0.35-1.91-1.33-2.48-2.83-3.4C13,6.67,13.12,5.28,11.9,4c-1-1-2.39,0-1.7-1.7C23.42,2.26,35.07.69,47.6,0c-0.58,2.92.53,4.27,1.7,6.23,0.2,0.34,1.05.93,1.13,1.13,0.19,0.47-.23,1.24,0,1.7,0.88,1.76,2.36,3.67,2.83,5.67,0.6,2.54.27,6,.57,9.07,0.81,8.52,2.12,18.28,2.83,26.06a57.94,57.94,0,0,1,.57,6.8c-0.06,1.45-.84,1.61-1.13,2.83-0.16.68,0.52,0.34,0.57,0.57s-0.66,1.37-.57,2.27c0.2,2,2.34,3.91,2.27,6.8,0,1.11-.54,1.34-1.13,2.83a22.32,22.32,0,0,1-1.7,4c-0.52.89-1.44,3-2.83,3.4,0.92,2.2-.35,4-0.57,6.23-0.07.74,0.65,1.84,0.57,2.83C52.57,89.83,50.74,91.51,52.13,94.06Z"/></svg>