<svg id="Layer_1" data-name="Layer 1" xmlns="http://www.w3.org/2000/svg" viewBox="0 0 44.26 77.07"><defs><style>.cls-1{fill:#ee232f;fill-rule:evenodd;}</style></defs><title>state</title><path class="cls-1" d="M13.65,74.79c-0.74.1-.89,1.13-1.7,1.13-1.19,0-1.44-1-2.27-1.13a14.22,14.22,0,0,0-4,.57c-0.13.08,0.13,1.68,0,1.7-0.72.11-.23-0.89-0.57-1.13-0.86-.63-3.8,1.65-5.1.57-0.32-2.59,1-3.53.57-6.23,1.16-.32,1.11-1.7,2.27-0.57-0.91-2.6,2.46-5.34,2.83-8.5,0.46,0.11.56,0.57,1.13,0.57-0.69-.94-0.65-3.46-1.13-5.1C5.65,56.45,4.4,55.11,4.58,55c1.07-.86-0.87.13-1.13-1.13,0.83-1.25-.07-4.22,1.7-4.53C3.15,35.24,2.45,19.88.62,5.67-1,6.1,3.3,6.06,3.45,6.23a5.6,5.6,0,0,0-.57,1.13c-0.19,0,2.13-.91,3.4-1.7C7.28,5,7.9,4,9.12,3.4,9.79,3,10.18,4,10.25,4c0.64-.16.29-0.65,0-0.57,4-1.12,9.25-1,14.16-1.7C27.19,1.31,32.64.51,36.88,0a1.51,1.51,0,0,1,0,1.7c0.24,0.73,1,.9,1.13,1.7,0.21,1.08-.1,2.3,0,3.4,0.4,4.56,1.67,9.88,2.27,15.3,0.48,4.41.63,9.1,1.13,13.6,0.45,4,1.58,8,1.7,11.33,0.07,1.86-.83,2.7,0,4.53-2.79-2,1.88,2.87-1.13,1.13,0.51,1.91,1.27.07,2.27,1.13,0.24,0.91-2.11,1.9-2.27.57-0.78-1.56,0,1.48-.57,1.7-0.42.15-1.37-.36-1.13-0.57-0.6.54,0.59,1.5-.57,1.7-0.67.11-.81-1-1.13-1.13-0.74-.23-2.3,1.92-2.27,0-2,1.13-.17,2.59-0.57,5.1-3.13.13-1.67,6.42-5.1,4.53-0.46,1.8-.36,4.17-1.13,5.67-1.65,1-2.65-1.13-2.27-1.13-0.58,0-.58,1.58-1.7,1.13a2.83,2.83,0,0,0-2.27-2.83c-1.93-.68-0.39,2.11,0,1.13-0.28.69-1.3,0.61-1.7,1.13-0.61.81-.38,2.44-0.57,2.83s-1.85.21-.57,0.57c-0.45,1.31-2.66-.29-2.83-1.13-1.45-.61-2,2.44-2.83.57-0.89.2,0.5,1-.57,1.13"/></svg>