<svg id="Layer_1" data-name="Layer 1" xmlns="http://www.w3.org/2000/svg" viewBox="0 0 95.13 50.82"><defs><style>.cls-1{fill:#ee232f;fill-rule:evenodd;}</style></defs><title>state</title><path class="cls-1" d="M89.58,5.47a13.83,13.83,0,0,0-1,2.49c-0.26.88,0.22,2.34-1,2.49,0.43,1.47.75-1.15,2-.5a1.21,1.21,0,0,0,1.49,1.49c-0.55,3.37,2.71,2.93,3.48,5,0.06,11.39.82,22.07,0.5,33.84-31.65,1.41-64-.19-95.05-1C0.7,32.72,1.32,16.09,2.49,0c16,1.59,33.83.61,50.76,2A137.57,137.57,0,0,0,69.67,2C75.54,1.73,81,.65,84.6,1.49c1.86,0.43,1.66.52,3,2s2.27-1.68,2.49.5c0.85-.18.94,0.39,1,1C88.55,4.27,89.95,4.75,89.58,5.47Z"/></svg>