<svg id="Layer_1" data-name="Layer 1" xmlns="http://www.w3.org/2000/svg" viewBox="0 0 114.24 62.02"><defs><style>.cls-1{fill:#ee232f;fill-rule:evenodd;}</style></defs><title>state</title><path class="cls-1" d="M0.11,60.75c2.2-5.79-3-11.28,2.54-13.32,3.08,0.29,5.72,3.74,8.88,1.9,0.57-3.1-2.09-3-1.27-6.34,2.2-.34,3.38-1.7,5.71-1.9,1.24-2.25-.83-2.3-0.63-5.07,0.69-1.25,4.58-2.56,3.17-3.8a2.87,2.87,0,0,1,3.8.63c2.4-.82.87-1.63,3.17-2.54,2.42,0.33,4.75.74,5.71,2.54C33,31.94,33,29.16,35,28.41c1.61,0.72,3.6,1.05,4.44,2.54,1.56-1.61,1.45-4.89,3.17-6.34,2-2,1.07,2.15,3.8,1.27,0.75,1.71,3.31,0,4.44,0,0.38-1.31-.78-4.17.63-4.44-0.1-2,2.57-1.23,3.17-2.54-0.48-3.44,2.19-3.73,3.17-5.71,0.26-1.53-1.16-1.38-.63-3.17,1-1.75,2.92.68,3.17,0.63,2.22-.38,2.64-3.55,6.34-3.17,0.14-2.68-1-4.1-1.27-6.34,0.69-1.33,2,.07,3.17,0,1.33-.08,2-1,3.17-0.63,2.7,0.89,3.26,4.17,5.07,5.71,3.53-.36,6.05.29,7.61,1.9,2,0.54,2-1,3.17-1.27,2.72-.14,2.59,2.11,5.07.63,2-.28,2.52-2.13,3.8-3.17a19.39,19.39,0,0,0,6.34,5.07c0,2,1.5,4.13,0,5.71,3.67,3.94,5.77,9.44,10.78,12,1.13-.18,1.3.6,0.63,0.63-1.87,4.89-7.61,6.21-10.15,11.41a11.11,11.11,0,0,1-3.17,4.44A28.91,28.91,0,0,0,99,46.17c-0.45.32-2.23,0.15-3.17,0.63-0.28.14-.4,1.16-0.63,1.27s-0.94-.18-1.27,0c-1.3.69-2.73,2.23-3.8,2.54-1.75.51-6.25,0.17-9.51,0.63-1.35.19-5.58,1.12-7.61,1.27-2.66.2-5.06-.26-7.61,0-3.43.35-7.8,1.59-12.68,1.9-2.5.16-5-.18-7.61,0-9.52.68-19.11,3.66-27.27,1.9-0.51,2.2.95,2.44,0.63,4.44C12.11,60.92,6.75,62.1.11,62"/></svg>