<svg id="Layer_1" data-name="Layer 1" xmlns="http://www.w3.org/2000/svg" viewBox="0 0 82.65 70.83"><defs><style>.cls-1{fill:#ee232f;fill-rule:evenodd;}</style></defs><title>state</title><path class="cls-1" d="M44.77,0c1.4,0.11-.13,1.27,0,2.27A4.46,4.46,0,0,0,45.9,4c0,0.68-1.3,1-1.13,1.7s1,0.74,1.13,1.13-0.23,1.25,0,1.7a22.88,22.88,0,0,0,2.27,2.83c-0.39,1.49-2.58,1.2-2.83,2.83A4,4,0,0,0,47,15.3c-0.16.66-3.22,1.64-.57,1.7a15.68,15.68,0,0,1-4,4c1,2.19-2.38,4.67-2.27,5.67s0.66,1.25.57,2.27c0,0.07-1.06-.07-1.13,0-0.54.56,1.05,1.54,0.57,2.27a2.68,2.68,0,0,1-1.7.57c0.63,1.9,1.69,4.51,0,5.66,10.21-.94,21.07-1.22,31.16-2.27-0.8,1.47-.79,3.75-1.7,5.1,1.11,3.71,3.39,5.36,5.1,9.07-0.7,1.94-1.68-.3-2.83-0.57-0.85-.2-2,0.32-2.83,0s-2-2.76-4-2.27a7.46,7.46,0,0,0-4,5.67c2.71,3,9.45-.33,10.77-0.57,2,1-1.42,1.14-1.13,2.27,0.75,1.32,2.53,1.62,4,2.27,1.63-.45.36-3.8,2.83-3.4-0.65,2.35,1.19,2.21,1.13,4-2.62-.24-3.81.94-2.83,2.83-2.72-.22-0.48,1-2.27,1.7-0.64,2.08,2.37,1.45,3.4,2.27,0.33,0.26.14,1.51,0.57,1.7,0.26,0.12,1-.84,1.7-0.57,0.33,0.14,1.24,2,3.4,1.13,1.07,1.31,2.34,2.41,1.13,4.53A5.17,5.17,0,0,1,79.33,68c-0.58.37-.59,1.3-1.7,1.13,0.07-1-.69-1.19-0.57-2.27-1.8.86-2.6-.75-3.4-1.13-0.42-.2-1.32.26-1.7,0S71.71,64.3,71.4,64c-0.9-.78-1.73.14-3.4-0.57-1.07-.45-2.12-2.08-4-1.7-0.64,2.72,2.16,2,2.83,3.4,0.93,1.32-1.09,1.53-1.13,1.7-0.21.82,1.86,3-.57,3.4-1.9.58-.88-1.76-1.13-2.83-0.6-.36-2.35.47-2.83,0s0.37-1.38-1.7-.57c-1.48.59-2.42,1.44-2.83,4-1.62,0-5-2.1-6.23-1.13-0.5-2.9-3.57-3.23-2.83-7.36-1.21-.27-1.08.81-1.13,1.7-1.79.28-2-1-4-.57-0.39-2.44-1.89-3.78-5.1-3.4v-1.7c-2.06.58-3.5,1.78-5.67,2.27-1.59.73,1.78,1.17,1.13,2.83-1.16-.85-1.82,1-2.83,1.13s-3.08-1-4.53-1.13a28.51,28.51,0,0,1-6.8-1.7c-1.54-.52-2.51-1.69-4.53-1.13,1.19-2.2.1-4.31-1.13-5.67-0.27,1.46-1.92,4.46-1.13,5.1-1.17,1.85-5.25.79-7.37,1.7-0.79-1.25,1.26-1.3,1.7-2.27,0.35-.77-0.23-2,0-2.83,0.15-.55,1-0.94,1.13-1.7,0.19-1.6-1-2.47-1.13-4a21.79,21.79,0,0,1,.57-4.53c0.31-1.25,2-2.5,2.27-4a22.71,22.71,0,0,0,0-7.93C8.82,33.67,7.22,33,6.8,32.3,6.15,31.18,6.54,28,4.54,27.76c0.57-4.73-2.26-6-4-8.5C1,12.61-.08,7.45,0,1.13,10.48,1,22.16,0,32.87-.57a90.36,90.36,0,0,1,10.77,0C42.71,1.55,43.7,1.18,44.77,0Z"/></svg>