<svg id="Layer_1" data-name="Layer 1" xmlns="http://www.w3.org/2000/svg" viewBox="0 0 85.42 47.76"><defs><style>.cls-1{fill:#ee232f;fill-rule:evenodd;}</style></defs><title>state</title><path class="cls-1" d="M85.42,40.46q-0.2,4.29-4.5,4.5c0.82-3.44-1.94-3.31-1.12-6.74-4.13,2.24-6.28,6.46-9,10.11-4-.13-4.52-3.72-4.5-7.87a8,8,0,0,0-2.25,3.37c-3.42-1.82-4.79-5.7-6.74-9C36.3,36.67,21.47,44.7,0,46.08c0.63-10,1.29-13.48,1.12-24.73,13.88-2.82,33.93-7,47.21-10.12A15.12,15.12,0,0,0,58.45,1.12c1.31,0.18,2-.25,2.25-1.12,3.38,2.51,4,10.27,10.12,6.74-4.14,3-6.69,7.55-9,12.36C62,20,62.95,20.23,62.94,21.36c1.92,3.37,4.09,1.25,7.87,1.12,1.49,2.63,5.57,2.67,4.5,7.87,5.12,0.87,4.93,7.06,10.11,7.87"/></svg>