<svg id="Layer_1" data-name="Layer 1" xmlns="http://www.w3.org/2000/svg" viewBox="0 0 109.77 54.41"><defs><style>.cls-1{fill:#ee232f;fill-rule:evenodd;}</style></defs><title>state</title><path class="cls-1" d="M71.74,36.68c-0.92-.13-0.61-1.24-0.74-2C66.68,42.2,77.53,45,79.9,50.08,77.17,50.5,68.2,48.5,68.06,44c-1.13,0-1,1.65-1.26,2.75-2.3-1-2.64-3.66-4.23-5.27-2.47-.56-3.26,1-3.27,3.49-4.5-5.26,4.62-10.28,4.72-16.8-0.68-3.49-3.77-1-5.6-1.57-2-.63-2.51-2.55-4.44-3.37-1.48-.63-3.6,1-4.75-0.52,1.19-4.71-1.29-6.48-6-6.43-1-2.92-3.53-3.67-3.34-7.58-1-.91-4-1.72-5.55-2.05s-3.7-1.37-4.47-.17-3.11.62-4,1.49-2.84,4-4.24,3.55S17.85,9,17.2,9.06s-1,.37-1.79,1.73-2.48,3.58-4.24,3.55-2.76.34-3.36,1.4S6.2,18.76,5,19.59s-3,1.11-4,3.25L0,8,43.49,4.72c6-.52,15.94-1.5,23.34-2.26,5-.52,14.1-2.4,21.44-2.47-1.08,2.6,1.07,2.61.43,4.86l0.09,0.65c2.15,11.14,3.05,24,5.67,34.61,4.49-.55,12.29-3.48,15.32.71-2.23,3.34-4.72,6.37-6,10.89-4.32,0-6.27,3-10.87,2.66,0.65-1.35,1.67-2.24,2.32-3.59-0.16-.89-3.93-3-3.7-1.37-2.87.1,1.23-2.2,1.26-2.75,0.07-1.08-3.28-2.5-1.38-5C89.72,41,89.93,44,89.18,44.36c-0.41.19-2.12-4.08-3,.64-1.59-1-2.52-2.6-4.44-3.37-0.37-3,1.95-2.62,1.58-5.6,2.87,1.38,2.46.72,4.86-.43,0.39-2-3.33-.8-4.65-1.47,0.48-2.82-3-6.22.73-6.66,0-1.77-3.16-.94-3.6-2.32s2.49-3,1.58-5.6c-0.34-.95-1.89-1.38-1.9-0.21,0.05-5.93,0-7.67,7.69-8.78-2.84-1.62-3.37-2.31-1.22-4.94l-0.05-1C85.49,2.92,83.05,4.57,81,5c-0.64,2.25,1.51,2.26.43,4.86-1.66.17-1.71-.94-1.69-2.11-3,1.48-2,3.93-5.17,3.28-0.37,2.58,1.37,2.09-.42,3.8a4.5,4.5,0,0,0-2.75-1.26c0.93,1.29.62,2-1.16,1.8-0.77,2.93,2.1,2.94,3.39,4.22-2.28,5.43.23,11.06,0,17.32"/></svg>