<svg id="Layer_1" data-name="Layer 1" xmlns="http://www.w3.org/2000/svg" viewBox="0 0 59.33 93.49"><defs><style>.cls-1{fill:#ee232f;fill-rule:evenodd;}</style></defs><title>state</title><path class="cls-1" d="M0,51.44c0.1-1.05,1.69-.26,2.51-0.63,1.45-.65.82-3,3.14-2.51C5.28,47,4.09,46.51,4.39,44.54a7,7,0,0,1,3.14-4.39c-1.66-1.7.67-2.35,0.63-3.76C8.09,33.85,6.1,32,6.27,29.48a27.68,27.68,0,0,1,.63-3.14c0.24-.54,1.17-0.37,1.25-1.25,0.18-2-.78-4.23-0.63-6.27,0.13-1.78,1.3-2.67,1.88-4.39C9.83,13.18,9.59,11.48,10,10c0.37-1.19.9-2.17,1.25-3.14s0.91-2.26,1.26-3.14S13,0.91,14.43,1.25c1.64-.48.8,1.14,1.25,1.88,0.72,1.15,2,1.33,2.51,2.51C21.57,4.42,23.84,2.1,26.35,0c1.15,0.2,2.91,0,4.39.63,0.54,0.24.78,1.56,1.26,1.88s2.1,0.14,2.51.63,1.12,3.38,1.88,5.65c1.4,4.16,2.46,8.74,4.39,13.8a19.59,19.59,0,0,1,1.88,6.9c1.15,1.36,3.7,1.32,6.27,1.25,0,4.2,1.9,6.47,3.76,8.78q1-.92,1.88-1.88c1.46,0.42,1.68,2.09,3.14,2.51,0,1.25-1.71.8-1.25,2.51,0.42,1.24,2.09,2.76,2.51.63,1.43,1.31-1.73,5.83-3.76,3.76a10.58,10.58,0,0,1-3.76,5c-0.68-.16-0.42-1.25-1.25-1.25-1.7.15-.69,2.63-0.63,2.51-0.52,1-2.82.31-1.88,2.51-1.1-.57-3.13-0.22-3.76-1.25-1,1.7-1.36,3.31-3.14,1.25v5C36.89,62,38.87,57.32,37,56.46c-1.83-1.17-.85,1.81-1.26,2.51-0.08.14-1.21-.14-1.25,0-0.32,1,.63,1.91.63,3.14,0,2.19-1.27,4.3-.63,6.9-1.27,1.24-5.36-.34-4.39,3.14-0.72,2-.71-1.68-0.63-2.51-1.91.82-3.57,3.86-4.39,0.63-1.63,2,.64,3.94-0.63,6.27-0.84.43-.39-1.83-0.63-1.88-0.56-.11-2.64,1.27-3.14,3.14-0.28,1.06.21,2.75,0,3.76S19.53,83,19.45,83.43c-0.23,1.09.9,1.35,0.63,2.51-0.22.94-1.62,1.69-1.88,2.51-0.69,2.19.29,4.41-.63,5-1.65.19-2.06-.87-1.88-2.51-2.12,0-2.72-1.46-3.76-2.51,0.55-3.72-2.11-6.87-3.14-10-0.73-2.25-.68-3.85-1.25-6.27,0-.16-0.63,0-0.63-0.63,0-.3.54-0.9,0.63-0.63C7.27,70.1,5.94,69.64,5.65,69A19.65,19.65,0,0,1,5,66.5C3.69,61.74,2.32,56.22,0,51.44Z"/></svg>