<svg id="Layer_1" data-name="Layer 1" xmlns="http://www.w3.org/2000/svg" viewBox="0 0 105.71 96.96"><defs><style>.cls-1{fill:#ee232f;fill-rule:evenodd;}</style></defs><title>state</title><path class="cls-1" d="M103,77.4c0.67-1,1.9.73,2.72,1.49-0.33,1.95-5.79,4-4.65,2C101.77,79.68,102.29,78.45,103,77.4Z"/><path class="cls-1" d="M22.53,6.57l1.14-1.31C24.83,4,26.27,3,26.82,1.05V0c-3.25.79-5.83,2.24-6.31,5.79,1.65,0.6,1.66-.13,2.1-1.05V5.26Z"/><path class="cls-1" d="M47.33,26.3a3.41,3.41,0,0,1-.53-1.05c-3-.55-2.31,2.6-4.73,2.63V25.24c-1.66.83-1.6,3.14-2.63,4.73-1.41,2.17-2.79,6.38-4.21,9.47-1.8-.28-0.81-2.53-0.53-3.68,0.38-.85-2.48-0.85-2.1,0-0.55-3.21,1.28-7.71-4.21-7.36a3.42,3.42,0,0,0-.53-2.63c-1.51.74-3.18-.94-4.73-1.05-1.35-.09-3.11.72-5.26,0-0.27-.09-0.85-1-1.05-1.05-3.48-1.05-9-1.53-13.67-2.63A3.18,3.18,0,0,0,0,17.88c0.41-1.52,2.54-1.31,3.68-2.1s1.74-2.46,3.16-3.16c4.78,0.75,5.57-2.5,8.94-3.16a44.73,44.73,0,0,1,2.63-3.68c3.23,0.27,3,4,3.68,6.84,1.66,0.26.19-2.61,2.1-2.1C24.29,11,24,11,23.67,11c1.58,0.63,2.06-1.44,3.68-1.58,3.67-.3,6.43,3.6,7.89,6.31a20.29,20.29,0,0,1,8.94.53c1.67,0.32,1.52-1.55,2.1-2.1,0.39-.37,1.42-0.47,2.1-1.05,1.25-1.07.88-1.39,3.68-2.1,1.48-.38,3,0.07,5.26-0.53,2-.54,3.56-2.59,5.79-2.1a11.35,11.35,0,0,0,.53,4.73c2.61,0.64,5-1.39,5.78.53,1.07-.16,1.4-1.05,2.1-1.58,1.55,0.38,2.22,1.64,2.1,3.68,1.15,1.66,3.6,2,4.21,4.21-2.87-.11-6.32.36-8.42-0.53-1.34.06-1,1.76-1.05,3.16-1.54,0-2-1.2-2.63-2.1-2.48-.14-4.85-1.41-6.84-0.53-1.3.45-1.56,1.95-2.63,2.63-2.69.31-4.84-.18-6.31,1.05-1,.83-0.6,2.23-2.1,3.16"/><path class="cls-1" d="M59.43,38.92V42.6c0.26,1.55.69-.7,1.58-0.53,0,0,.12.83,0.53,0.53a5.15,5.15,0,0,0,1.58-3.16c0.14-1.21-1-3-.53-4.21,0.72-2,1.75-3.11,4.21-3.16,0.72-2.3-2-1.12-1.58-3.16,0.23-2.22,2.14-2.77,3.16-4.21,1.33-.43,1.63,1.22,3.16,1.58,2,0.48,4.82-.43,5.26,2.1,4.69,0.4,8.33,1.84,10.52,4.73,0.08,1.49-1.58,1.22-1.58,2.63,0.41,1.52,1.92,1.94,2.63,3.16,0.14,3.29,1.78,7.9-1.58,9.47,0.4,2-.64,2.51-0.53,4.21-1.07.5-2.08,1.07-3.16,1.58-0.5,4.34.13,6.3,3.68,6.84,1.24-2.27,3.76-3.25,3.68-6.84,2.45-.35,2.86-2.75,5.78-2.63,4.63,3.6,3.86,12.62,7.89,16.83-1,1.42-.31,4.6-0.53,6.84-1.7.65-.4-1.7-2.1-1.05-1.62,1-2.45,2.81-2.1,5.79A10.41,10.41,0,0,0,96.77,82c0.9,5.11-2.44,6-2.63,10-5.24.36-10.4,2.39-15.78,2.63-1.5.07-3.17-.54-4.73-0.53-4.54,0-9.91,1.53-14.73,2.1-1.84.22-3.91-.12-5.79,0.53-1.73.38-.8-1,0-1.05a34.57,34.57,0,0,0,2.1-5.26,27.85,27.85,0,0,0,2.1-11.57c-0.23-3.23-2-5.76-1.58-8.42-2-.7-2.1-2-3.16-4.21-0.26-.53-0.92-0.86-1.05-1.58-0.23-1.29.95-1.72,1.05-3.16A6,6,0,0,0,51,57.33c0.8-2.56,3.07-4.47,2.63-8.94-0.08-.85-0.6-1.66-0.53-2.1,0.28-1.74,2.35-2.48,1.58-4.21a8,8,0,0,0,4.21-3.68"/></svg>