<svg id="Layer_1" data-name="Layer 1" xmlns="http://www.w3.org/2000/svg" viewBox="0 0 77.76 89.35"><defs><style>.cls-1{fill:#ee232f;fill-rule:evenodd;}</style></defs><title>state</title><path class="cls-1" d="M54.34,36.54c-0.56-.62-0.18-0.74,0-1.41-1.88.6,0.13,1,0,2.34-1.32.08-.58,2.23-2.34,1.87-0.3,3.52.48,7.6,0,9.84-1.6,1.06-3.52,1.25-4.68,2.81-0.24.33,0,1.58-.47,2.34-0.23.4-1.23,0.45-.94,1.41,0.17,1.7,2,1.72,2.81,2.81,0.24,1.36-.74,1.89-0.94,3.28-0.29,2,.56,4,0.47,5.62,0,0.73-1.07,1-.94,1.41,0.22,0.61.78,1.66,0,1.41,0.16,0.79.65-.31,1.4,0,0.12,0.05-.1.83,0,0.94s0.82-.16.94,0a1.76,1.76,0,0,1,0,1.41c0.12,0.07.67-.47,0.94-0.47,0.52,0,.27.51,0,0.47a21.75,21.75,0,0,0,2.34,0c0.66,1.63-.32.72,0.94,1.41a11.46,11.46,0,0,0,3.28,1.41c0.66,1.68,2,2.66,2.81,4.22,0.94,0.59,2.61.49,3.28,0.94,2.24,1.49,2,4.49,2.81,7-18.45,1.38-37.7,2-57.62,1.87-1.35-7.34,2.21-23.73-.94-28.58-0.08-.12-0.91-0.39-0.94-0.47s0.69-.69.47-0.94c0,0-1.36.74-1.87,0.47s0-2.61-1.41-2.34c0.41-.69.91-0.59,1.87-1.87,0.14-.18.9-0.84,0.94-0.94a7.33,7.33,0,0,1,0-1.41S7.81,54,8,53.4C8.07,53,7.18,53.53,7,52.94c-0.44-1.7.09-4.18-.47-6.56-0.34-1.47-1.64-2.19-1.87-4.68-0.2-2.08-.34-4.24-0.47-6.09a5.34,5.34,0,0,1,.47-1.87c-0.09-.95-0.82-2-0.94-2.81a30.19,30.19,0,0,1,0-6.56c-0.47-.64-0.77.2-1.41-0.94C2.05,20.14.49,17.08,0.94,12.18A10.4,10.4,0,0,0,0,6.09c5.83-1.32,16.73.34,21.08-.94,0.9-.68,0-2.89,0-5.15h2.34c0.5-.44,0,2.08,0,1.87,0.08,0.56.54,0.22,0.47,0a42.92,42.92,0,0,1,1.4,4.22c0.13,0.6.3,2.85,0.47,2.34-0.63,1.86-1.19-.57-2.34.47a2.18,2.18,0,0,0,1.41.47c-0.09,0,.22.78,0.47,0.47,1-1.3,1.44.15,2.81,0.47a8.63,8.63,0,0,1,1.41-.47c-0.13,0,3.63.71,4.22,0.94a4.53,4.53,0,0,1,.94,0c0.5,0.5,0,1.3.94,1.41,0.7,0.08,3-.06,2.81,0,1.4-.49.82-1.71,2.34-1.87a10.55,10.55,0,0,1,4.22.47c0.29,0.11,1.81.88,1.87,0.94,0.53,0.44-.19,2.51,1.41,1.41,0.18,1.69,1.51,2.24,2.34,3.28,1.52,0,.33-2.79,2.34-2.34,0.83,0.14.59,1.38,1.41,1.87s3-.27,2.34,1.87c1.68,0.87,4.71,0,5.62.47-0.06-.9,1.57-1.91,2.81-2.81,1.76-.35,1,1.79,2.34,1.87a16,16,0,0,1,6.09-.47c1,0.13,2.48,2.08,4.22.94-0.21,1.25-1.82,2.34-2.81,1.41-1.06.26,0.57,0.73-.47,1.41-2.47.81-5.37,1.19-6.56,3.28-0.61.36-1-.74-1.41-0.47a4.2,4.2,0,0,1,.47.94c0,0.06-1.54,1-1.87,1.41-0.67.71-1.07,2-2.34,1.87,0.49,1.76-1.12,1.84-1.87,2.81a14.56,14.56,0,0,1-.47,1.41c-0.56.44-1.23-.18-1.4,0s0.61,0.65.47,0.94a23.72,23.72,0,0,0-2.34,1.41C56.51,34.81,56,36.4,54.34,36.54Z"/></svg>