<svg id="Layer_1" data-name="Layer 1" xmlns="http://www.w3.org/2000/svg" viewBox="0 0 84.62 73.15"><defs><style>.cls-1{fill:#ee232f;fill-rule:evenodd;}</style></defs><title>state</title><path class="cls-1" d="M78.77,69.64c0.8,4.45-6.2,3.42-8.27,3.4,0.14-2.62,2.92-2.59,3.4-4.86-0.68-.74-0.82-2.49-1.46-2.92-1.33-.88-13,0.75-17.5,1-12.59.64-29.23,1.11-39.87,1.46-0.18-14.25-.31-28.54-1-42.3-0.73-.89-2.1-1.14-2.92-1.94,0.16-2.92-2.81-2.7-2.92-5.35,0.74-.88,1.22-2,2.43-2.43,0.47-3.5-2.22-2.55-3.89-2.92,0.14-1.21-1.37-.78-1.95-1.46S4,8.87,3.4,7.88C2.27,6,0,4.42,0,2c9.19,0,20.18.14,30.15-.49,2-.12,5.55-0.28,8.75-0.49s6.25-1.44,8.27-1S50,2.79,51.54,3.51A13.49,13.49,0,0,0,53,13.72a14.52,14.52,0,0,0,2.43,2.43c0.36,0.34,1.16.6,1.46,1s0.1,1.13.49,1.46,1.95,0.61,2.43,1c0.77,0.57.5,1.39,1.46,1.46,0.68,2.08.58,4.93,1.94,6.32,1.75,0.29,1.43-1.48,2.92-1.46a28.71,28.71,0,0,0,3.4,1.46c-0.29,4.28-4.06,7.88-1.46,11.18a11.69,11.69,0,0,0,2.43,2.43c0.64,0.47,2.45.42,2.43,1.95,1.74-.59,2.89,1,3.89,1.95a12.15,12.15,0,0,1,1.46,1c0.3,0.43.12,1.55,0.49,2.43,0.24,0.58,1.7,1.37,1,2.92a3.44,3.44,0,0,1-1,.49c0.5,1.89,2.32,2.71,2.43,4.38,1.24,0.87,2.37-.54,3.4,1-0.61.52,0.12,1.2,0,1.94s-0.71,1-1,1.95c-0.14.51,0.89,0.88,0,1.95,0.18-.21-1.2-0.14-1.46,0-1,.57-1.53,2.55-1.94,0C79,64,79.53,65,79.74,66.72c-1.69.24-.63,0.84-1,1.46-0.24.44-.83,1.29,0,1.46"/></svg>