<svg id="Layer_1" data-name="Layer 1" xmlns="http://www.w3.org/2000/svg" viewBox="0 0 53.26 93.17"><defs><style>.cls-1{fill:#ee232f;fill-rule:evenodd;}</style></defs><title>state</title><path class="cls-1" d="M6.18,24a0.89,0.89,0,0,0-.58-1.16c0.53-1,2-1.06,2.91-1.74-2.22-4.65,6.15-6.55,4.07-11,0.78-1.3,1.67-1.31,1.74-2.32,0.19-2.67.55-1.61,1.74-3.49a1.88,1.88,0,0,0,.58-1.74C27,1.22,38.35.94,48.61-.42c-0.27,1.24.83,1.11,1.74,1.16-0.69,14.6-.47,29.45-1.16,44.17s2.74,28.46,4.07,41.41v1c-1.31.32,0.7,0.91-.58,1.74-1.48-.58-2.82-1.65-3.49,0-1.7-.42-1.89-1.14-3.49-1.16-2.42,0-4.88,2.45-7.56,2.33-1.09.65-1.23,2.25-2.32,2.9-2.56.23-2-2.64-2.91-4.07C32.47,87.41,30.8,86.95,30,85.6c-0.52-3.23,1.12-4.31,1.16-7C21.76,77.35,11.38,80.14,1,79.79c-1.48-2.25-1.34-5.34,1.16-4.65-0.7-.84-0.49-2.61-0.58-2.91a4.42,4.42,0,0,1,.58-2.91s1-.25.58-0.58C1,67.41,5.6,66.42,3.86,64.09A16.07,16.07,0,0,0,7.93,60c-0.3-1.7,1.85-3.28-1.16-2.91,1.17-.76,2-1.85,3.49-2.33-0.24-1.7-2-1.89-2.91-2.91C8.62,50.68,6.84,50,7.93,49,7.75,48.19,6.47,48.5,5.6,48.4q0.85-.89,1.74-1.74C7.25,46,6.28,46.17,5.6,46.08c-0.28-1.83.73-2.37,1.74-2.91C7.19,42,5.18,42.62,5,41.43,4.17,39.06,7.1,39.22,6.18,36.2,6.11,36,5,35.17,5,35c-0.2-1.12.71-2,.58-2.32C5,31.1,3.46,31.25,3.86,29.8c0.84-.71.78-2.32,2.33-2.33C6.09,26.8,5.12,27,4.44,26.9c0.06-1.1,1.92-.4,1.74-1.74"/></svg>