<svg id="Layer_1" data-name="Layer 1" xmlns="http://www.w3.org/2000/svg" viewBox="0 0 112.24 69.1"><defs><style>.cls-1{fill:#ee232f;fill-rule:evenodd;}</style></defs><title>state</title><path class="cls-1" d="M2.51,0C8.4,0.49,15.78,2.34,21.78,3.35c9.94,1.67,20.52,3.47,31,5,12.6,1.87,26,3.41,38.95,4.61,4.33,0.4,8.65,1,13,1.26,2.57,0.16,5.17.05,7.54,0.42-1.73,17.81-2.19,36.9-4.19,54.45-17.64-1.52-35.65-3-53.19-5.44C50,63,45,61.84,40.21,62c-1.16,1.21-1.09,3.66-1.26,5.86-1.74.07-.84-2.51-2.09-2.93-2.28-.46-1.34,2.29-3.35,2.09a22.1,22.1,0,0,0-5.44-1.26c-0.9,0-1.3.75-2.09,0.84s-1.58-.42-2.51-0.42a7.28,7.28,0,0,0-2.93.84c-0.47-2.18,0-6.34-3.35-6.7-0.94-.91.35-1.43,0-2.93C17,56.14,15.93,55.44,15.5,54c-0.61-2-.05-4.58-1.26-6.28-1.61-.27-2.32,1.48-3.35,1.68-1.41.27-1.19-.08-2.93-0.84-0.55-1.23.84-1.27,0.84-2.09,0-.16-0.29-0.65-0.42-0.42,0.58-1,1.12-.55,1.68-1.68-0.92-4.13,1.57-6.6,2.51-10.05,0-1.39-2.37-.43-2.93-1.26,1.11-1.13-.25-0.18-0.84-0.84C8.52,31.94,8.62,31.31,8.38,31,7.73,30.15,7.75,30.78,8,29.74a4.94,4.94,0,0,0-.84-1.26A40.44,40.44,0,0,0,5,24.71c-0.48-.7-1.11-1-1.68-1.68-0.27-.33-0.14-0.88-0.42-1.26a2.26,2.26,0,0,1-.84-1.68c0.06-.71.51-0.92,0.42-1.68C2.22,16.07,1,14.73,0,13A106.24,106.24,0,0,0,2.51,0Z"/></svg>