<svg id="Layer_1" data-name="Layer 1" xmlns="http://www.w3.org/2000/svg" viewBox="0 0 112.61 50.23"><defs><style>.cls-1{fill:#ee232f;fill-rule:evenodd;}</style></defs><title>state</title><path class="cls-1" d="M106.49,28.32c0.07,0.91-.62,1.08-0.51,2-1.23.21-1.11-.93-2.55-0.51a6.82,6.82,0,0,1-5.6,2.55c-0.93.77-1.2,2.2-2,3.06a2.49,2.49,0,0,0-2-2C96,38.1,89.49,39,89.68,44.63c-0.67-.18-0.8-0.9-1.53-1,0,1.68.86,2.54,0.51,4.59-2.5.73-5.46,1-7.64,2-0.86-.37-1.12-1.4-2-2-0.6-.42-1.9-0.56-2.55-1s-1.31-1.51-2-2c-0.39-.28-1.1-0.19-1.53-0.51-0.25-.19-0.27-0.85-0.51-1-0.49-.34-1.09-0.17-1.53-0.51-0.73-.56-2-1.77-3.06-2.55-1.58-1.12-3.62-2.88-4.59-3.06s-4.5.68-6.62,1c-2.52.41-5.14,1.1-8.15,1.53-0.13-1.91-1.18-2.9-2-4.08-5.24-1.26-9.4-.06-14.27.51-2.15.25-4.34,0-6.11,0.51a15.17,15.17,0,0,0-2.55,1.53c-0.54.32-1.1,0.11-1.53,0.51a6.88,6.88,0,0,1-2.55,1.53,1.74,1.74,0,0,0-1,.51C16.31,43,9.46,42.9,5.1,43.61c-1.6.26-3.36,0.65-5.1,1V40.55c1.6,0.24,2-.73,3.06-1C2.69,38,3.94,38,3.57,36.47c1.33-2.07,4.21-1.63,6.62-3.06,1.06-.63,1.82-2.05,3.06-3.06a2.74,2.74,0,0,1,2.55-1,35.46,35.46,0,0,1,3.57-5.1c1,0,.65,1.39,2,1,1.76-.95,2.76-4.84,5.6-3.06,1.83-1.22,1.41-4.7,4.08-5.1,0-1.68.86-2.54,0.51-4.59A94.67,94.67,0,0,0,47.89,11c6.68-1.08,14.86-2.51,22.93-4.08,3.66-.71,8.85-2.08,13.76-3.06,3.16-.63,6.35-0.91,9.17-1.53s4.38-1.41,7.64-2c4-.78,5.32-0.18,7.13,3.57-0.67-.18-0.8-0.9-1.53-1a1.39,1.39,0,0,0,1,1.53c-1.25,1.36-2.31-2.08-4.08-.51,0.16,1.2,2.41.3,2,2a7,7,0,0,0-3.06,1,7,7,0,0,1-1.53,2.55A3.32,3.32,0,0,0,98.85,9c-0.53-1.17-.32-3.07-1-4.08-2,2.49,1.17,4.25,1,6.62a3.07,3.07,0,0,0,3.06-1c1.07-1,.49.51,2,0,1.14-.37,1.91-1.21,3.57-1.53,0.39,1.3.75,2.34-.51,3.06,1.52,0.73,0,1.28,1,2.55,2.4-.29.9-3.69,1.53-4.59,0.72,0,1.44.08,1.53-.51,1.38,0.66,1.54,2.53,1.53,4.59h-1.53a38.06,38.06,0,0,1-2,5.1c-1.71-.16-4.42.68-4.08-1.53-0.6.08-.43,0.93-0.51,1.53-1.88-.1-1-1.66-1.53-2-1.77-.25-0.57,2.49-2,2.55-2.18.35-3.87-1.48-5.1-.51,1.64,1.93,5.43,1.7,8.15,2.55,0.35,1.37-1.05,1-1.53,1.53-0.63,1.65,1.65.39,1,2a4.58,4.58,0,0,0-2,2c-1.37-.67-2.71-1.37-4.08-2-0.83.88,1,2.66,2.55,3.06,1.93,0.5,4.22-1.61,5.6-.51-0.76-1.56.51-1.63,0.51-.51"/></svg>