<svg id="Layer_1" data-name="Layer 1" xmlns="http://www.w3.org/2000/svg" viewBox="0 0 95.67 58.36"><defs><style>.cls-1{fill:#ee232f;fill-rule:evenodd;}</style></defs><title>state</title><path class="cls-1" d="M87.17,4c0.28,1.55.4,2.67,0.57,4,0.24,1.84-.13,3.34,0,6.8,0,0.51.7,0.86,0.57,1.7-0.23,1.41.34,4.8,1.13,7.37,0.63,2,1.92,3.66,2.27,5.67a4.6,4.6,0,0,1-.57,2.27c0,0.91,1,4.18,1.13,6.23,0.07,1.21-.6,1.5-0.57,2.27,0,0.32.26,4.36,0.57,6.23a19.34,19.34,0,0,0,.57,3.4c0.25,0.67,1.5,1.56,1.7,2.27,0.64,2.29.25,4.55,1.13,6.8C63.24,60.38,30,57.76-1.22,56.09,0.54,37.65.72,17.62,3.31,0,29.87,2.72,59.77,2.09,87.17,4Z"/></svg>