<svg id="Layer_1" data-name="Layer 1" xmlns="http://www.w3.org/2000/svg" viewBox="0 0 110 53.91"><defs><style>.cls-1{fill:#ee232f;fill-rule:evenodd;}</style></defs><title>state</title><path class="cls-1" d="M110,53.33c-28,1.49-57.19-.24-84.61-1-0.39-6.2.79-10.83,0.51-16.92C18,34.2,8.62,34.55.78,33.33,1.81,22.4,2,10.58,3.34,0,18.42,1.94,38.58,1.72,55.14,3.08c4.81,0.39,10.28-.82,14.36,0,2.12,0.43,3.94,2.11,6.15,3.08a1.5,1.5,0,0,1,1,1c1.5,0.47,1.54-1.26,2.56-1.54,1.34-.36,4.59.7,6.15-0.51,1.39,0.17.79,1.42,2.05,2.05,1.06,0.53,2.71,0,3.59.51s1.76,1.95,2.56,2.56a5.61,5.61,0,0,0,3.08,1.54c-1,1.22,1,2.76,1,3.59s-0.47,2,1,3.59a10.15,10.15,0,0,1,1,2.56c0.53,1.35,1.48,2.53,1,5.64,0,1.5,1.57,1.51,2.05,2.56,0.49,0.74-.1,2.07,0,2.56,0.25,1.23.9,1.15,1,2.05,0.15,1.12-.54,1.33-0.51,2.05a5.89,5.89,0,0,1,.51,1.54,8.13,8.13,0,0,1,0,1.54c-0.2,2.53.95,5.07,2.05,7.18a14.41,14.41,0,0,0,.51,1.54C107.06,49.29,109.87,50.91,110,53.33Z"/></svg>