<svg id="Layer_1" data-name="Layer 1" xmlns="http://www.w3.org/2000/svg" viewBox="0 0 41.34 86.99"><defs><style>.cls-1{fill:#ee232f;fill-rule:evenodd;}</style></defs><title>state</title><path class="cls-1" d="M4.89,87C0.67,82.68,3.25,75.89,2,67.45,1.66,65.54,0,63,0,61.58,0.1,55.73,4.13,48.91,3.91,43a12,12,0,0,0-2-5.86c0.22-2.68,3.47-3.28,4.89-4.89,1.67-1.9,2-3.94,3.91-5.86A35.26,35.26,0,0,1,9.77,1c2.45,0.12,3.06,1.87,3.91-1C18.6,11.66,22,24.87,26.39,38.12c0.65,2,1.15,4.64,2,6.84,0.58,1.6,2.46,3.29,2.93,4.89,0.64,2.18,0,4.87,1,6.84,3,5.87,10.64,8,8.8,15.64-5.76.43-6.94,5.44-9.77,8.8C21.93,82.53,13.93,85.28,4.89,87Z"/></svg>