<svg id="Layer_1" data-name="Layer 1" xmlns="http://www.w3.org/2000/svg" viewBox="0 0 40.79 93.43"><defs><style>.cls-1{fill:#ee232f;fill-rule:evenodd;}</style></defs><title>state</title><path class="cls-1" d="M24.94,92.14v-1.3c-2.69.77-8.53-1.6-9.09,1.3-6-5.29-22.47-8.94-13-23.36,3.67-.36,3.58-1.81,7.79-3.89C9.58,59,13.7,58.4,14.56,54.5c2.1-.37,2.24,1.23,3.89,1.3-2.81-2.7.16-4.19,1.3-6.49C20,46,16.36,47.87,14.56,45.42c-3-4,1.65-2.39-2.6-3.89a21.77,21.77,0,0,1-3.89-1.3c-1.24-.93-0.34-2.63-1.3-3.89-1.83-2.42-5.6-2-6.49-5.19,0.21-5.59,5-9.18,0-13,0.37-3.9,3.93-6.08,5.19-9.08C6.87,5.76,5.05,1.93,8.07,0c1.47,0.25.72,1.3,0,1.3,4.2,0.8,4.77-.41,10.38,1.3-0.26-.08,3.62,1.1,3.89,1.3s-0.29,2.51,0,2.6c0.65,0.2,2.33-1.55,3.89-1.3,1.23,0.2,6.36,3.4,9.09,3.89,1.26,11.64-8,12.79-5.19,26,4.1,0.63,4.58-2.34,9.08-1.3,3.41,4.7.25,11.57,0,16.87s2.45,10.53-1.3,13c1.66,0.62,3.29.91,1.3,5.19-0.29.62-3,1.78-3.89,3.89-1.72,3.92,0,9.17-5.19,10.38,1.07,5.29.2,4.47,0,10.38-1.05-.25-1.29-1.3-2.6-1.3"/></svg>