<svg id="Layer_1" data-name="Layer 1" xmlns="http://www.w3.org/2000/svg" viewBox="0 0 74.86 78.62"><defs><style>.cls-1{fill:#ee232f;fill-rule:evenodd;}</style></defs><title>state</title><path class="cls-1" d="M74,13.38c-0.62,5.13-.5,10.62-0.84,15.89C72.53,39.63,71.85,50,71.09,60.22c-0.37,5-.55,9.92-1.67,14.64-13.88-.9-27.45-2.1-41-3.35-1.44.54,1.11,2.72,0,2.93-5.95-.74-12.31-1.07-18-2.09C9.23,73.77,9.83,77,8.78,78.62,6.06,78,2.53,78.18,0,77.37,3.13,51.5,6.65,26,9.62,0,31,2.31,52.09,4.92,74.86,5.85Z"/></svg>