<svg id="Layer_1" data-name="Layer 1" xmlns="http://www.w3.org/2000/svg" viewBox="0 0 69.64 108.02"><defs><style>.cls-1{fill:#ee232f;fill-rule:evenodd;}</style></defs><title>state</title><path class="cls-1" d="M53.9,95.26c-1.69.13-1.15-2-2.55-2.13-1.31.07-2.4-1-3.4,0-1.12.22-.84,1.26-0.85,2.13,0,0.68.05,1,0,1.7-0.11,1.5-.31,3.13-0.43,4.68s0.67,2.55.43,3.83c-0.21,1.08-1.92,1.24-1.28,2.55C36.89,95.53,26.71,80.1,16.9,65.92c-1.54-2.23-3.48-4.62-5.1-7.23-0.62-1-1.15-2-2.13-3.4C9.49,55,9,54.68,8.82,54.43s-0.17-.9-0.43-1.28c-0.43-.63-1.24-1-1.7-1.7C6.42,51,6.51,50.57,6.27,50.18c-0.8-1.29-2.59-3.24-3.83-5.1-2-3-3-3.53-2.13-7.23,0.17-.74.68-1.4,0.85-2.13,0.44-1.86.48-4,.85-5.53C4.43,20.21,7.45,10,9.68,0c19.43,4.81,39.59,8.89,60,12.76-3.14,16.78-5.93,34.67-9.36,51.46-1.09,5.34-1.58,10.91-2.55,16.16C57.25,83,56.51,85.46,56,88S55.68,93.21,53.9,95.26Z"/></svg>