<svg id="Layer_1" data-name="Layer 1" xmlns="http://www.w3.org/2000/svg" viewBox="0 0 88.45 78.01"><defs><style>.cls-1{fill:#ee232f;fill-rule:evenodd;}</style></defs><title>state</title><path class="cls-1" d="M88.4,74.65c0.28,1.28-.57,3-1.84,3-2.41,2.13-2.58-5.43-2.69-3.4-6-1.39-11-3.76-16.43-5.67-1.46-.82-1.19-3.84-2.27-5.1-0.69-.81-1.52-0.39-2.83-1.13-0.8-.46-1.34-1.64-1.7-1.7-1.28-.21-4.65,1.07-7.37,1.7C51,62.87,48,63.56,45.9,64,32.29,67,14.46,70.9.57,72.53,1.29,71.69-.12,70.67,0,69.69c0.21-1.67,1.47-1.81,2.83-3.4,0.93-1.09,1.53-2.49,2.27-3.4C6,61.81,7.18,61.06,7.94,60.06a10,10,0,0,1,.57-1.13,22.63,22.63,0,0,0,1.7-2.27c0.28-2.36-1.66-2.5-1.13-5.1C8,50.9,6.5,50.73,6.24,49.3c-0.51-2.35,3.11-2.38,5.1-3.4C13,45,17.81,43,22.11,43.63c1.32,0.19,2.17,1.06,3.4,1.13C28,43.9,30,42.48,34,43.06a23.88,23.88,0,0,0,5.1-5.67,11.61,11.61,0,0,1,3.4-1.7A9.74,9.74,0,0,0,41.37,30c-0.14-2,1.7-2.08,1.7-4-2.34,1.59-1.48-2.69-3.4,0-1.18-2.54,3.63-5.16,5.1-7.37-0.52-1.89.45-2.86,1.13-4,0.53-.85,1-1.69,1.7-2.83,2-3.54,5.43-7,9.63-7.93,4.89-1.06,11.5-1.85,15.87-4,1.33,0.75.2,1.7,0.57,2.83,0.24,0.74.92,0.91,1.13,1.7s-0.24,1.6,0,2.27C75.49,8.72,77,9.89,77.07,13c0,1.33-.77,2.1-0.57,3.4,0.47,3,3,6,2.27,9.63,1.46,1.52.81-1.52,2.27,0,1.57,3.46,2.12,7.86,2.83,13,0.09,0.64,1.28,1,1.13,1.7a41.47,41.47,0,0,0-.57,11.9c0.12,1.06.86,1.69,1.13,2.83,0.72,3,.74,7.24,1.7,10.77,1,3.82,1.38,3.59-1.13,6.23Z"/></svg>