<svg id="Layer_1" data-name="Layer 1" xmlns="http://www.w3.org/2000/svg" viewBox="0 0 61.19 69.7"><defs><style>.cls-1{fill:#ee232f;fill-rule:evenodd;}</style></defs><title>state</title><path class="cls-1" d="M61.19,23.23a13.69,13.69,0,0,0-2.27,2.27c3.15,1.66,1,6.83.57,12.47-0.15,1.78.26,3.7,0,4.53-1.06,3.43-4.36,4.7-5.1,6.8-1.26-.94-3.07.12-3.4-0.57-0.95.18,0.4,1.5-.57,2.83-0.19.27-1.61,0.38-1.7,0.57-0.52,1.09.8,3.33-1.13,3.4-0.28,1.78,2,1.5.57,2.83-1.55.41-1.14-1.13-2.27-1.13a5.9,5.9,0,0,0-2.83,5.1c0,1.08.87,1.84,0.57,2.83s-0.7.87-1.13,1.7c-0.32.61-.11,1.76-0.57,2.27s-1.29-.77-1.7-0.57c-0.08,0,1,1.19,0,1.13-2.68-.14-1.95-2.11-5.1-2.83C34.89,65.78,33.91,65.44,34,64a7.39,7.39,0,0,0-4.53,3.4c-2,.33-2.74-0.66-4-1.13C24,66.52,23.79,68,22.1,68c-1.46-1.74-3.31-2.85-6.23-1.7-0.79-1.67-2.77-2.14-2.83-4.53-3-1.11-5.59-.48-7.93-1.13C4,44.16,1.24,29.35,0,13a101.61,101.61,0,0,0,13-1.7c1.42-.28,3.09-1.17,4.53-1.13,0.05,0-.06,1.07,0,1.13a4.78,4.78,0,0,1,2.27-.57c1.87,0.4,3.87,1.88,5.67,2.27-0.2.74-1,.89-1.13,1.7,1.76-.2,4-0.09,2.83-0.57,1.58-1.38,2.77.68,4.53,0.57,2.56-.17,4.26-2.36,6.23-3.4,3.13,1.32,5-.76,6.8-2.83A28.85,28.85,0,0,1,47,5.67c1.53-1.37,3.67-2,5.1-2.83,1.79-1.08,3-2.7,5.1-2.83A185.51,185.51,0,0,0,61.19,23.23Z"/></svg>