<svg id="Layer_1" data-name="Layer 1" xmlns="http://www.w3.org/2000/svg" viewBox="0 0 106.16 53.51"><defs><style>.cls-1{fill:#ee232f;fill-rule:evenodd;}</style></defs><title>state</title><path class="cls-1" d="M97,48.81c-1.51-.41-0.64,1.55-1.88,1.41-1.48.23-1.83-.67-2.82-0.94-2.11,0-3.23,2.4-4.69.47-1.57.93-3.19,1.82-4.69,2.82a14.31,14.31,0,0,1-3.75-2.35c-1.11-1.15-.87.7-2.35,0.47-0.15-1.1-1.45-1.05-1.88-1.88-0.87,1.16-2.72,1.35-2.35,3.75-1.47-.32-0.61-1.25-0.47-2.35-1.35-.1-2.38.12-2.82,0.94-1.11-.77-1.78-2-3.28-2.35-1.52-1.28-1.33,2.14-3.75,1.41C63.1,47.39,59.45,49,60.43,46c-2-.08-3.92-0.16-4.69.94-3.26-1-6.45-2.22-9.39-2.35,0.66-2.69-1.72-2.34-1.88-4.22-1,2.09-1.56.94-2.82,0.94-0.3,0-.58.45-0.47,0.47-2-.33-2.8-2.89-4.69-3.29C36.6,28.74,37,19.3,37.43,9.86,34.57,7.17,29.93,8.8,25.7,8.45,18.55,7.85,7.65,7,0,6.69,0.47,3.64.47,2.11,0.82,0,33.73,1.82,68.15,2.13,103.14,1.88c-0.79,8.91,2.22,16.26,2.82,24.41,0.63,8.68-.47,17.3,0,27.22C102.22,52.7,100.14,50.25,97,48.81Z"/></svg>