<svg id="Layer_1" data-name="Layer 1" xmlns="http://www.w3.org/2000/svg" viewBox="0 0 93.88 78.02"><defs><style>.cls-1{fill:#ee232f;fill-rule:evenodd;}</style></defs><title>state</title><path class="cls-1" d="M0.5,58.29c-1.12-2.95-.21-6.9,1.35-8.57-2.08-4.28,2-6.08,2.26-9.47,1,1.75,1.82-2.68,2.26,0,1.68-1.51-.41-2,0.45-3.61,1.07-.28.74-2,2.71-1.35C9.85,33.9,8.74,34,9.07,32.58c1.92-2.14,1.75-6.37,4.06-8.12-0.46-4.92,3.95-8.61,4.51-14a1.23,1.23,0,0,1,1.8,0c-0.09-.59-0.88-0.71-0.9-1.35,0-.82.68-0.86,0.9-1.8,0.18-.76-0.14-1.7,0-2.26,0.43-1.69,1.38-3.11,1.35-5,1.46-.56.34,1.46,1.8,0.9,1.17-1.29,3.7-.12,3.61,1.35,2.23-.42,3.06.55,4.06,1.35-0.33.58,0.42,0.74,0.45,0.9,0.86,4.08-1.89,5.49,1.35,7.67,0.54,0.36,1.25.1,1.8,0.45,0.4,0.26.26,0.79,0.9,0.9a10.62,10.62,0,0,0,3.16,0c0.92-.18,1.24-0.91,2.26-0.9a8.56,8.56,0,0,1,6.32,2.71c1.73,0.84,3.55-.2,5.41,0,0.87,0.09,1.79.88,2.71,0.9,3.18,0.09,6.32-.93,9.47-0.9,1.06,0,2.56.39,3.61,0.45s2.15-.12,3.16,0c3.22,0.4,6.38,1.61,9.47,2.26,3.27,0.68,6.38,1.37,9.92,1.8a15,15,0,0,0,1.8,3.16c0.68,1,1.77,1.54,1.8,2.71,0,1.64-1.86,3.09-3.16,5-0.57.82-.84,1.87-1.35,2.71s-2.19,1.3-1.35,2.71c-2.53,2-5.49,3.53-5.41,8.12-0.07,1.42,1.83.88,2.26,1.8-0.26,1.12-.11,2.37-0.56,3.5s-1.51,2.23-1.8,3.61c-0.87,4-1.39,8.39-2.26,12.63-0.84,4.09-2,8.18-2.71,12.18C56.19,74,35.24,68.25,15.39,62.8c-0.64-.17-1.09-0.37-1.35-0.45C9.47,60.88,4.67,60.57.5,58.29Z"/></svg>