<svg id="Layer_1" data-name="Layer 1" xmlns="http://www.w3.org/2000/svg" viewBox="0 0 124.86 27.07"><defs><style>.cls-1{fill:#ee232f;}</style></defs><title>state</title><path class="cls-1" d="M68,0h4.53c1.12,1.43,3.1-.26,4.22,1.18a6.48,6.48,0,0,1,3.31.54,2.21,2.21,0,0,0,1.26-.29l1.91,1.52,0.33-.24L83,1.31c1.29-.57,2.2.74,3.39,0.73,0.25,0,.64.36,0.73,0.28a2.64,2.64,0,0,1,2.13-.56c0.73,0.08,1.59-.31,2.13.54,0.54-.9,1,0,1.55.07A11.52,11.52,0,0,1,95,3,3.92,3.92,0,0,1,97,3.87c0.42,0.66,1.27-1.23,1.29.35a2,2,0,0,0,1.24.85c0.46,0.15,1-.42,1.49.28a2,2,0,0,0,1.51.48,8.8,8.8,0,0,0,2-.62c0.4,1.93,0,3.86.25,5.83l1,0.21,0.13,1.64-1.78-.74,0.83,2-1.67-.45c-2,.88-4.26,1.43-5.63,4,0,1,.09,2.47-1.7,3.17-0.44.17-.59,1.05-1,1.86-2.23.79-4.52,3.24-7.65,1.42l-1.1,1.1c-1.48.09-3-.13-4.54,0.88-0.82.55-2.18,0.27-3.37,0l1.41-.62-1.81-.26-0.41,1.13c-2.13.57-3.42-1.64-5.35-1.75l-1.65,1.76A2.61,2.61,0,0,1,70,26.16c-1.47-1.18-2.9-2.51-5-2a5,5,0,0,0-2.53.89c-0.79.87-1.57-.91-2.11,0.22l-1.06-.94a4.4,4.4,0,0,1-3.61,0,14.8,14.8,0,0,0-3.76-.79A2.47,2.47,0,0,1,52,24.67a3.46,3.46,0,0,1-3,1.21c-1,0-1.94,0-2.94,0l-0.44,1.2-3-2.17a1.91,1.91,0,0,1-.88.09,2.15,2.15,0,0,0-2.39,0,3.88,3.88,0,0,1-4.41.28,1.7,1.7,0,0,0-.65,0l-0.4,1.16A2,2,0,0,1,33.37,26c-0.9-1.66-.68-2.26,1.39-3.33L33,21.42a1.35,1.35,0,0,0,.41-0.5,27.71,27.71,0,0,0,.63-3.26c0.12-1.13-.27-2.39,1-3.1a0.42,0.42,0,0,0,.15-0.23c0.28-.83-1.38-4.9-2.16-4.84-1.8.14-1.81-1.38-2.53-2.24a4.1,4.1,0,0,1-.43-1.15c1.58-1,4-.92,5.12-3a1.56,1.56,0,0,0,0-.83,1.43,1.43,0,0,1,0-2.19,2.7,2.7,0,0,1,2.2-1.26c1.87,0.08,3.8-.36,5.52.89A3,3,0,0,0,44.61,0a62.58,62.58,0,0,1,7,.09c1.58,0.2,3.28,1,4.73.42C58.31-.22,60.17.18,62.05,0c1.56-.15,2.87.57,4.49,1.2Z"/><path class="cls-1" d="M120.86,16.7c-3,1.09-5.87.94-8.22,2.6a2.56,2.56,0,0,0-2.78-.16c-1.6.69-1.82,0.49-2.84-1.11C113.88,16,110.91,15.38,120.86,16.7Z"/><path class="cls-1" d="M4.12,17.64a11.27,11.27,0,0,1,0,1.58,1.43,1.43,0,0,1-1.45,1.37C1,20.7.1,20.29,0,19.26s0.54-1.59,2.36-1.62H4.12Z"/><path class="cls-1" d="M119.95,9.41l-1.76-1.76h2.94a2.44,2.44,0,0,0,.18.47c0.69,1.06.63,1.17-.77,1.29l-0.19-.49Z"/><path class="cls-1" d="M20.66,5.08l0.21-.38a0.54,0.54,0,0,1,.18.19,1.84,1.84,0,0,1-.18.39Z"/><path class="cls-1" d="M118.13,7.71l-0.48-.41,0.19-.19,0.41,0.48Z"/><path class="cls-1" d="M120.54,9.41l-0.39.49-0.19-.49h0.59Z"/><path class="cls-1" d="M121.06,7.59l0.41-.48,0.19,0.19-0.48.41Z"/></svg>