<svg id="Layer_1" data-name="Layer 1" xmlns="http://www.w3.org/2000/svg" viewBox="0 0 73.19 91.49"><defs><style>.cls-1{fill:#ee232f;}</style></defs><title>state</title><g id="_5pUkj2" data-name="5pUkj2"><path class="cls-1" d="M32.94,0H48.49V15.5l4-.32A37.42,37.42,0,0,0,52.18,19c0,3.09.23,6.18,0.24,9.28a2.3,2.3,0,0,0,1.29,2.3,21.72,21.72,0,0,1,8.95,8.83c0.92,1.76,1.86,3.76,3.94,4.46,3.2,1.07,4.37,3.47,4.76,6.53,0.16,1.31.46,2.59,0.64,3.9,0.41,3,.8,5.92,1.19,8.87V67.7l-1.84.19-0.2-2.55-0.38,0c-0.1.43-.22,0.87-0.29,1.3-0.44,2.88-2.24,4.68-4.73,5.91a2.28,2.28,0,0,1-1,0c0-.28,0-0.56.07-0.84A10.4,10.4,0,0,0,65,69.21c-0.35-2.23-.85-4.43-1.33-6.82-0.76-.26-1.23-2.62-0.57-3.92a2.28,2.28,0,0,0,.26-1.76c-0.86-1.36,0-2.12.92-2.56s0.68-1,.57-1.59a19.67,19.67,0,0,1-.81-3.7c0-2.62,0-5.16-1.88-7.25a10.58,10.58,0,0,0-1.62-1.16,7.45,7.45,0,0,1,.24,1.91,19.68,19.68,0,0,1-1.21,4.29c-0.52,1.05-1.39.86-1.88-.25-0.25-.56-0.39-1.16-0.62-1.88L55.4,47.11l-0.55-.25a28.52,28.52,0,0,1,.33-3.54C55.71,40.86,56.4,38.44,57,36a3.24,3.24,0,0,0-.36-1.34l-1.36.42c1.3,2.45,1,4.36-.64,5l-0.49-2-0.27.39A14.32,14.32,0,0,1,51,36.93a6.7,6.7,0,0,1-2-2.67c-0.67-2-1-4-1.49-6.05A4.82,4.82,0,0,1,48,24.4a7.33,7.33,0,0,0,.62-2.64A1.63,1.63,0,0,0,48.12,21c-0.28,1.15-.5,2.09-0.74,3-0.33,1.24-1,2.51-.93,3.72,0.16,2,.9,3.93,1.27,5.92a9.36,9.36,0,0,1-.17,2.38l-0.4.16,2.59,2.14c-0.38,1.85-.73,3.79-1.2,5.71a1.38,1.38,0,0,1-1,.85,1.57,1.57,0,0,1-1.2-.56,14.45,14.45,0,0,1-1.12-2l-2.76.71v1.39c2.21,0.36,2.21.36,2.13,2.53a2.64,2.64,0,0,0,.09.58A42.39,42.39,0,0,1,45.55,52c0.18,2.12-.35,4.19-3,4.79a1,1,0,0,0-.42.31l0.52,2.73A6.74,6.74,0,0,1,43.9,62a55.56,55.56,0,0,1,.21,8.35c-0.11,1.33-1.19,2.59-1.84,3.88-0.26.52-.59,1-0.81,1.55a26.64,26.64,0,0,1-1,2.71,34.2,34.2,0,0,1-2,2.84,1.29,1.29,0,0,0-.08,1.88,2.68,2.68,0,0,1,.08,1.38,3.84,3.84,0,0,1-1.66-.11c-1.81-1.13-2-1.79-1.19-3.78a6.58,6.58,0,0,0,.5-1.74,3.07,3.07,0,0,0-.4-1.15l-0.65.07c-0.11,1.34-.15,2.69-0.35,4a1.49,1.49,0,0,1-.87,1c-2.19.62-4.53,0.48-6.6,1.79-1.11.7-2.62,0.73-3.9,1.21-2.75,1-5.43,2.28-8.22,3.19-1.23.4-2.7,0-4,.25-3.11.63-6.19,1.45-9.28,2.19H0V90.27a21.86,21.86,0,0,1,3.62-1.45,2.08,2.08,0,0,0,1.84-2.48,36.61,36.61,0,0,0-.86-5.85A1.86,1.86,0,0,1,5.77,78a4.77,4.77,0,0,1,1.58-.51,1.12,1.12,0,0,0,1.19-1.35c0.19-7.87.55-15.74,0.6-23.61,0.1-16.56,0-33.12,0-49.69,0-.59,0-1.18,0-1.88,4.27-.14,8.32-0.25,12.38-0.41C25.34,0.38,29.14.18,32.94,0Z"/></g></svg>