<svg id="Layer_1" data-name="Layer 1" xmlns="http://www.w3.org/2000/svg" viewBox="0 0 83.91 66.2"><defs><style>.cls-1{fill:#ee232f;fill-rule:evenodd;}</style></defs><title>state</title><path class="cls-1" d="M52.28,57.15A1.91,1.91,0,0,1,51,55.86c-1.36,1.83.76,5.66,2.58,6.45-0.27,1-.59-0.17-1.29,0s-0.94,2-1.29.65c-1.66.15,0.89,1.11,0,2.58-2.68.74-2.51-1.36-4.52-1.29,1.07-4.74-5-6.26-1.94-9-3.8,3-.5-0.75-3.87.65-1-1-.29-2.14-0.64-3.23-0.42-1.3-1.45-1.53-1.94-2.58-0.25-.54.5-1.49,0.64-1.29-0.57-.79-2.21-1.61-3.23-2.58-0.7-.67-1.68-0.07-2.58-0.65s-0.57-3.08-2.58-1.94c1.21-1.21-1.18-2-1.29-2.58-0.08-.4.91-0.8,0.64-1.29s-0.87.58-.64,0.64c-0.23-.06-2.13-3.79-1.94-1.94a1.78,1.78,0,0,1,1.29-1.29c-0.23-.9-1.14-0.06-1.29.65-0.74-1.23-2.78-.48-3.87-1.29-0.34-.25-0.34-1.61-0.65-1.94-0.47-.51-2.24-2.4-3.23-3.23-0.37-.31-1.5.24-1.94,0-2-1.11-2.46-3.83-4.52-4.52,0.67-2.06.2,0-1.29-1.94a15,15,0,0,0-1.29-1.29c-0.21-1,.8-1.15.65-1.94-0.05-.28-0.67.35-0.65,0.65-0.13-1.52-.89-1.68.65-1.94-0.23-.9-1.14-0.06-1.29.65-1.29-2.15-6.54-.35-6.45-3.87C1.94,18.48.47,17.15,0,15.84c0.79-2,1.42-4.17,3.87-4.52C2.16,9.62,5.78,10,5.81,8.09,9.72,7.37,10.89,7.85,11,5.51c0.75-.51,1.15.65,1.29,0.64,0.9,0,.16-1,0.65-1.29,0.07,0,2.64.84,2.58-1.29,3.43,0.18,7.41-.82,11.62-1.29C31.75,1.77,37.58.38,38.73,3.58c0.63,0,.5-0.79.65-1.29,2.24,0.77,2.72,3.3,3.23,5.81,1.23-.35,3-1.23,4.52-1.29a2,2,0,0,1,1.29.65c0.67-.12,1.53-1.18,1.94-1.29,1.93-.52,4.89-0.24,7.1-0.64A44.34,44.34,0,0,1,62,4.87C62.87,5.1,62,6,61.32,6.16c0.34,1.35,1.28-1,2.58-.64a17.6,17.6,0,0,0,.65,1.94c0.39,0.29,1.48-.19,1.94,0,0.29,0.12.86,1,1.29,1.29,0.87,0.54,1.69.62,0.65,1.94C70.65,10,69.5,10,72.29,12c0.63,0.44,2.41,1.13,2.58,1.29,0.43,0.4.15,1.59,0.64,1.94,0.9,0.63,3.09-.18,1.29,1.94a3.63,3.63,0,0,1,2.58-.65c0.12,2,4.43,1.84,2.58,3.87a3,3,0,0,1,1.94-.65C83.34,22,81.32,21.91,80,23.59a12.28,12.28,0,0,1-.64,1.29c-0.77.8-1.24,3.64-1.94,5.16-0.14.31-.92-0.4-0.65-0.65-0.73.12-.36,0.65,0,0.65-0.79.17-2.58,2.46-2.58,1.29-0.85.19,1.13,4.87-1.94,4.52,0.55,1.67,2.83-1.24,3.87.65C76,38,74.44,38,73.58,37.14c0.38,1.21,1.25,2.38,0,1.94-0.76-.27.11,1.24,0,1.94-1.7,0-4.29.36-2.58-1.29-2.8.85,0.71,2.63-1.29,1.94-0.65-.22.41,2.14,0,2.58-0.49,1-2,1-1.94,2.58-1.83.11-1.26-2.18-3.87-1.29A23.34,23.34,0,0,0,65.83,50c-1.65-.7-2.26,2.78-3.23.65-0.73.12-.36,0.65,0,0.65-0.4,2.44-2.7-.7-2.58,2.58-3.31,1.24-6.13-1-7.1,2.58"/></svg>