<svg id="Layer_1" data-name="Layer 1" xmlns="http://www.w3.org/2000/svg" viewBox="0 0 93.63 59.92"><defs><style>.cls-1{fill:#ee232f;fill-rule:evenodd;}</style></defs><title>state</title><path class="cls-1" d="M91.5,59.92c-2.74-3.25-6.94-3.84-8.8-5.56-1.52.65-3.7,0.18-5.64,0.51a7.07,7.07,0,0,0-3.08,1c-0.87-.46-2.42-0.81-3.59-1.54s-1.74-1.85-2.56-2.05c-2.17-.53-4.94.1-7.18,0C41.7,51.47,18.08,50.87.12,49.24,0.48,32,2.73,16.62,3.71,0Q45.54,3.31,90.9,3.08c0.28,3.19-2.71,3.1-3.08,5.64,0.84,0.86,1.11,2.3,2.05,3.08,0.66,0.88,2.44.64,2.56,2.05C92.76,23.28,91.8,34,93,42.57c0.22,2.54-1.54.29-2.05,1.54-0.3,1.18,1,1.52,1,2.56s-0.66,1.06,0,2.56a9.41,9.41,0,0,1,0,5.13c-0.27.81-1.73,2.39-.6,3.5Z"/></svg>