<svg id="Layer_1" data-name="Layer 1" xmlns="http://www.w3.org/2000/svg" viewBox="0 0 107 38.15"><defs><style>.cls-1{fill:#ee232f;fill-rule:evenodd;}</style></defs><title>state</title><path class="cls-1" d="M6.36,18.1c1.47,0.09.41-1.88,0.49-2s0.94,0.11,1,0c0.26-.73-0.86-1.65.49-2.45,6.35-.17,12.18-0.87,18.1-1.47-0.27-.71.57-2.53-0.49-2.45,2-.12,5.27-0.64,8.32-1,6.27-.7,12.89-1,19.57-1.47,3.54-.24,7.13-1.2,10.76-1.47,4.44-.33,9.22-0.42,13.7-1,2.45-.31,5-1.22,7.34-1.47,7.09-.75,14.81-1.4,21-3.42,1.09,0.5-.64,2.25,0,3.91-2,.44-2.49,2.4-2.93,4.4-2.86-1.28-4.78,1.43-5.87,3.42-1.34-.25-0.74-1.41-1.47-1.47-1.41-.11-1.61,3.1-2.94,2a18.22,18.22,0,0,0-1,3.42c-2.35-.74-4.24,2.83-5.87,4.4-4.23-.15-6.58,1.57-6.85,5.38-1,.28-1.4,1.21-2.94,1v4.4c-12.94,1.1-25.76,3-38.64,3.91-9.15.66-18,2.33-27.39,2.94C7.27,37.89,3.65,37.95,0,38.15c0.14-1,1.31-1,2-1.47-0.78-2.31-.83-3.54.08-5.38,0,0-.94-0.72-0.65-1,1.3-1.14,1.52-.58,2-1.47s-0.4-1.71,0-2.45c0.09-.16,1.29-0.33,1.47-0.49,0.41-.38.37-1.33,1-2,1-1.08-.4-0.9-0.49-2-0.13-1.52,1.9-1.94,1.47-3.42"/></svg>