<svg id="Layer_1" data-name="Layer 1" xmlns="http://www.w3.org/2000/svg" viewBox="0 0 97.12 93.6"><defs><style>.cls-1{fill:#ee232f;fill-rule:evenodd;}</style></defs><title>state</title><path class="cls-1" d="M69.16,76.51a4.07,4.07,0,0,0-2.89,0c0.3,0.62.71,0.25,1.05,0.53a6.87,6.87,0,0,1,.79,1.05c-0.06,1.08-.8,1.48-0.79,2.63-1.57.34-2-.49-2.89-0.79,0,0.83.7,0.88,0.53,1.84,0.95,0.09,1.27.4,2.1,0-0.34.71-.31,1.79-1.05,2.1-0.54,1.2.57,1.61,0.79,2.37s0.08,1.64.26,2.37,0.65,1,.79,1.58c0.23,0.94-.2,2,0.53,2.63,0.1,0.63-1.2-.15-0.79.79-1.28,0-1.67-1.52-2.89-1.84s-2.31.22-3.94,0C59.82,91,59.19,90,57.33,90.18c-0.33-1.07-1.49-1.32-2.89-1.31a1.64,1.64,0,0,1-.26-0.79,3,3,0,0,0-.53-0.26c-0.22-.55-0.08-1.3-0.26-1.84a8.66,8.66,0,0,0-1.84-2.89c-0.18-.55.27-0.7,0.26-1.05,0-.57-0.49-0.66-0.53-1.05-0.06-.63.36-1.32,0-2.1a2.67,2.67,0,0,0-1.84-1.31c-0.66-1.44-1.73-2.48-2.37-3.94-0.24-.46-0.92-0.48-1.31-0.79a9.27,9.27,0,0,1-.53-2.1,4,4,0,0,0-.53-1.31c-0.06-.1-0.49-0.18-0.53-0.26s0.07-.39,0-0.53a5,5,0,0,0-.79-1.31,14.63,14.63,0,0,1-.53-1.84c-0.46-1.18-1.49-1.84-2.37-2.89a13.54,13.54,0,0,0-1.84-1.84c-0.11-.09-0.4-0.14-0.26,0-0.86-.89-0.93-1.41-1.58-2.1a10.22,10.22,0,0,1-4.47-.26c-0.93-.23-2-1.18-2.63.26a2.16,2.16,0,0,0-2.37.79A23,23,0,0,0,26,62.31a8.72,8.72,0,0,1-2.37,2.63c-1.49,0-2.6-1.08-3.68-1.84-0.35-.24-0.56-0.66-0.79-0.79-0.57-.3-1.32-0.16-1.84-0.53-1.09-.77-1.64-2.39-3.15-2.63,0-1.51-1.77-2.28-1.31-4.21a2.79,2.79,0,0,0-.26-2.1,6.52,6.52,0,0,0-.26-0.79c-0.05-.09-0.5-0.19-0.53-0.26a9.12,9.12,0,0,0,0-1.05,5.22,5.22,0,0,0-.79-1.05,8.82,8.82,0,0,0-1.31-1.31,9.52,9.52,0,0,1-1.58-.79,9.94,9.94,0,0,1-.79-1.31c-0.31-.43-0.73-0.66-1.05-1.05-1.14-1.4-1.84-2.68-3.68-3.42,0-.74-0.48-1.1-0.53-1.84-0.65-1-2.3-1-2.1-2.89,8.26,0.94,16.73,1.67,25.5,2.1a7.15,7.15,0,0,1,.79-0.53C27,25.62,28,12.87,28.94,0,35.6,0.52,42.72.59,49.44,1.05c0,5.72-.07,11.32-0.53,16.56,1.21,0.28,1.75,1.23,2.63,1.84,1.32,0.17,2.12-.33,2.89,0,0.44,0.35.09,1.49,0.53,1.84,2,0.07,3.84.36,5,1.31,1-.63,1.09-0.72,2.63-0.53a0.8,0.8,0,0,0,1.05,1.05,1.71,1.71,0,0,0,.26,1.31c1,0,1.18-.75,1.84-1.05a2.18,2.18,0,0,1,1.31,1.31,1.52,1.52,0,0,0,1.58-.53c0.59,0.11,0,1.44.79,1.31,0.6,0,.7-0.84,1.05-1.31a0.55,0.55,0,0,0,.26-0.53c1,0.37,1.28,1.09,2.63.53,0.35,0.88,1.49,1,2.1,1.58,0.5-.56,1.32-0.79,1.84-1.31a1.84,1.84,0,0,1,1.58,0,4.89,4.89,0,0,0,1.58-.79c0.49,0.3,2,1.15,2.63,0,1.13-.33,2,1.24,2.63,1.58,0.21,0.11.58-.1,0.79,0s0.19,0.5.26,0.53c0.83,0.29,2.05-.05,2.37,1.05a3,3,0,0,1,2.37,0c0.34,4.3.35,8.94,0.53,13.41a10.17,10.17,0,0,0,1.58,1.58c-0.13.83,0.57,1,0,1.58,0.17,0.31.28,0.69,0.53,1.05s0.66,0.53.79,0.79-0.11.59,0,.79c0.49,0.87,1.16,1,1.05,2.63,0,0-.31,0-0.26.26A9.37,9.37,0,0,1,96,50.48c-1.23,1.3-1.58,4.17-.79,6-0.59.92-2.72,2.14-1.31,3.42a7.59,7.59,0,0,1-1.84.53c-0.71.24-1.28,0.91-1.84,1.05s-0.46-.29-0.79-0.26a5.78,5.78,0,0,1-1.84.26,2.86,2.86,0,0,0,.26-1.84c-0.93-.74-1.14.69-1.58,0.79s-0.57-1-1.05-.26c0,1.4.58,2,1.05,3.42-0.85.2-.93,1.17-1.84,1.31-0.06,2.3-2.36,2.37-3.42,3.68-1-.2-1.26.32-2.1,0.26-0.36.08-.22,0.66-0.26,1.05-0.58.13-.38-0.48-0.79-0.53a1.31,1.31,0,0,1-1.31.26c-0.05-.05.06-0.5,0-0.53C76,69,75.07,70,74.95,68.62c-0.77.22,0.16,0.85,0,1.31-1.14.18-.61-1.32-1.84-1.05-0.65.6,1.5,1.67,0.53,2.63a1.47,1.47,0,0,1,1.05-.26c-0.79,1.23-1.85,1-2.63,0-0.6.75,0.46,1.8-.53,2.37-0.36-1.13-1.76.87-2.63,0,0.29,0.82-.26,1.45.79,1.84A2.07,2.07,0,0,1,70,74.67C70.61,75.17,69,75.67,69.16,76.51Z"/></svg>