<svg id="Layer_1" data-name="Layer 1" xmlns="http://www.w3.org/2000/svg" viewBox="0 0 97.94 57.83"><defs><style>.cls-1{fill:#ee232f;fill-rule:evenodd;}</style></defs><title>state</title><path class="cls-1" d="M2.06,57.06A12.7,12.7,0,0,0,0,57.83l1.8-.26a11.89,11.89,0,0,0,4.63-.51C12,56.23,19.84,55.55,22.88,54c-0.2.1-.65-0.46,0-0.51a3.39,3.39,0,0,0,1.54,1,39.24,39.24,0,0,0,7.2-.51c7.7-1,14.73-3.17,22.1-4.11a30.72,30.72,0,0,0,4.11-1c3.63-.67,5.85-0.48,8.74-1,6.39-1.22,13.2-3,18.51-4.11,1.57-.31,3.48-0.11,4.63-0.51,0.33-.12.46-0.9,1-1a1.4,1.4,0,0,0,1,.51c0.89-.08,1.59-0.78,2.57-1,1.58-.4,2.11,0,3.08-1-0.16.16-.68-0.2-0.51-0.51s0.86,0.13,1-.51a8.27,8.27,0,0,0-.51-2.06c0.06,0.34-.5.64-0.51,0.51-0.13-1,1-1.2,0-2.06-1.88-.46-2.74.91-3.6,0C93.21,38.11,95,37.51,95.35,38c-1.09,1-2.29-.73-3.6-1-0.81.39-.77,1.63-2.06,1.54-0.43-1.65-.44-1.07.51-2.06-1.59-1.25-2.76,1-3.6-1a3.32,3.32,0,0,0,1-.51c-1.24,1.3.8,0.91,1,.51C87.92,35,87,34.7,87.13,33.41c-1.4,0-3.08,0-4.11,0,0.47,0-1.37-.2-1,0-0.1-.06.1-1,0-1-1.08-.25-2.26.63-3.6-0.51,1.56-.74,4.4-1.23,5.14,0,0.08-.61-0.09-1.46.51-1.54,0.53,0.91,1.54,2.14,3.08,1.88l1.8,1.2c1.09,0.94,1.75,1.77,3.34,1,0.8-2.07-1.46-2.4-2.57-2.31l-1.46-.86-1.11-.43c-1-1.61-3.15-2-4.11-3.6,1,1,1-.23,2.06-0.51,0.5,2,1.88,1.53,2.57,2.06-0.27-.21-0.56.24-0.51,0.51,0.21,1.22,1.91-.89,2.06,1,1-1-.23-1-0.51-2.06a3.33,3.33,0,0,0,1-.51l-0.51-1c0-.66-0.66-0.71-0.51-1.54H86.61C86.4,23.4,85,23.77,84,23.13c-1.29-.82-2.72-3-3.6-3.6,0.24,0.17-.95.54,0-0.51-2.21-.24-0.66,1.38-1.54,1.54-1-1,.23-1,0.51-2.06-0.92-.28-2.13-0.26-2.57-1a1.92,1.92,0,0,1,2.57,0l0.6-.26h0.43c0.16,1.21,1.79,1,1.54,2.57,1.76-1.2,1.2.67,2.06,0.51,1.61-.29.72,1.16,3.08,2.57-0.73-.43,1.82.42,2.06,0.51a8.23,8.23,0,0,0-1-4.63c-3.11.77-3.34-4.58-7.28-2.48l-0.94.34c-0.16-1.21-1.79-.61-1.54-2.23-1.92.66-4,2.52-5.14,0,1-1.25.35-4.1,1-5.65,1,1,1-.23,2.06-0.51,0-1.21-.88-1.51-0.51-3.08-1.53-1.31-2.54.85-3.08,0a1.52,1.52,0,0,0,1-1C71.85,3.81,69,4,68.62,1c-0.2.79-.62,0.08,0-0.51-2.61.9,0-.34-2.06-0.51-1,.86-0.82,3-2.06,3.6,0-1.32-1.35-.64-2.06-1,0.2,0.11.79-.33,0.51-0.51-0.59-.4-2.91-0.9-4.63-2.06-0.9,1.35.07,3.32-.51,5.14,0,0.11-.93.36-1,0.51-0.36.6-.32,2.31-0.51,2.57-0.43.56-1.63,0.49-2.06,1-1,1.28-.59,3.62-3.08,2.57,0.06,1.42,1,1.76-.51,1,0.29,3-.58,4.9-2.06,6.17-2.54.48-3.49-.63-4.63-1.54A3.35,3.35,0,0,0,44.46,20c-2.49,0-2,5.57-2.06,5.65s-1-.11-1,0c-0.27.51,0.14,1.49,0,2.06a12.46,12.46,0,0,1-1,2.06c0.43-1.14-1,.9-1,1a3,3,0,0,0-.51,1.54c0,1.93.94,1.52,1,2.57,0,0-1-.05-1,0-0.45.63,0.45,1.85,1,2.57-1.17-1.22-2.43.49-3.6,1-0.42.19-1.12-.2-1.54,0-1,.46-1.41,2.55-3.08,1.54-0.69,2.38-2.11,2.21-3.08,2.57a4.9,4.9,0,0,1-4.11,0c-0.12,1.43-1.63,1.45-2.06,2.57-0.56-1-1.68-.46-2.57-0.51-1.45-.08-0.13-0.61-0.51-1,0.11,0.12-3-.67-3.08-2.57-2.26-.2-1.34,2.77-3.08,3.08l-1,1c-1.74.65-2.4,2.4-4.11,3.08a2.42,2.42,0,0,0,.51,1.54c-3,.38-2,4-3.6,4.63a3.32,3.32,0,0,1,.51-1c-2,.25-1.81,2.64-3.6,3.08l0.26,0.51L1.8,56.54"/></svg>