<?xml version="1.0" encoding="utf-8"?>
<!-- Generator: Adobe Illustrator 19.2.0, SVG Export Plug-In . SVG Version: 6.00 Build 0)  -->
<svg version="1.1" id="Layer_1" xmlns="http://www.w3.org/2000/svg" xmlns:xlink="http://www.w3.org/1999/xlink" x="0px" y="0px"
	 viewBox="0 0 443 317" style="enable-background:new 0 0 443 317;" xml:space="preserve">
<style type="text/css">
	.st0{fill:#F21B2C;stroke:#F21B2C;stroke-miterlimit:10;}
</style>
<g>
	<g>
		<path class="st0" d="M246.3,98.9c0.4,0.7,1,1.3,1,2c0.2,1.5,1.5,2,2.5,2.2c1.1,0.2,1.6,0.4,1.5,1.6c0,0.2,0.8,0.4,1.8,1
			c-1.3,0-2.1,0.2-2.6-0.1c-0.8-0.4-1.4-1.2-2-1.8c-0.6,0.7-1.3,0.9-2.1,0.3c-0.8-0.6-0.9-0.4-1.4,0.6c-0.6,1.2-0.9,2.2,0.2,3.2
			c0.3,0.3,1,0.8-0.1,0.8c-0.4,0-0.7,1.4-1.2,0.1c-0.4-1.1-0.8-2.1-2.4-1.9c-1.1,0.1-1.5-1.7-2.9-1.2c-0.1-0.4-0.3-0.7-0.3-1.1
			c-0.3-1.7-0.4-1.8-2-2c-0.7-0.1-1.4,0.3-2-0.5c-0.1-0.1-0.8,0-1,0.2c-0.6,0.9-1.9,0.5-2.4,1c-1.3,1.2-3.3,0.7-4.4,2.1
			c-0.4,0.5-0.4,0-0.7-0.3c-0.7-0.9-0.5-1.9-0.6-2.9c0-0.3-0.4-0.6-0.5-0.9c-0.2,0.2-0.6,0.5-0.6,0.7c-0.1,1.1,0,2.2,0,3.6
			c-0.6,0-1.1,0-1.5,0c-1.8,0.1-2.8,1-2.7,2.7c0,1.2,0,2.3,0.3,3.6c0.4,1.4,1.3,2.3,2.5,3.7c-1.1-0.2-1.9-0.1-2.1-0.4
			c-0.7-1.1-1.6,0.8-2.2-0.3c-0.1,0.2-0.4,0.5-0.4,0.6c0.4,1.5-1.3,1-1.6,1.8c0,0-0.7-0.1-0.8-0.2c-0.4-1.1-1.9-1.4-2-2.8
			c-0.1-0.9-0.8-1.4-1.7-1.2c-2.2,0.3-3.8-0.8-5.2-2.3c-1-1.1-2-2-3.2-3.2c-0.7,0.5-1.5,1-2.2,1.5c-0.2,0.1-0.7,0.4-0.8,0.3
			c-2-1.4-2.8-0.1-3.5,1.5c-0.3,0.6-0.8,0.5-1.2,0.1c-0.3-0.3-0.6-0.6-0.9-0.8c-0.1,0-0.4,0.3-0.6,0.5c-0.1-0.3-0.2-0.9-0.4-1
			c-0.8-0.3-1.7-0.5-2.5,0.2c-0.4,0.4-0.9,0.3-1.1-0.4c-0.4-1.5-1.3-2.4-3-2.6c-1.2-0.1-2.1-1.5-3.5-1.2c-0.3-1.5-1.9-1.3-2.7-2.2
			c-1.3-1.4-2.9-1.7-4.6-1.5c-0.3,0-0.6-0.1-0.9-0.1c0.3-0.7,0.7-1.2,0.9-1.8c0.4-1.3,0.6-2.5-0.6-3.6c-0.8-0.7-2-1.4-1-2.8
			c0,0-0.1-0.1-0.2-0.2c-0.4-0.8-1.4-1.5-0.8-2.5c0.4-0.7,1.4-1,2.1-1.5c0.3-0.2,0.5-0.5,0.8-0.8c-1.3-0.5-2.6,0.2-3.6-0.8
			c-0.2-0.2-0.9,0.1-1.4,0.3c-1.1,0.5-2.1,0.5-3.1,0c-0.3-0.1-0.8-0.3-1-0.1c-1,0.9-1.2-0.3-1.4-0.7c-0.2-0.7,0-1.4-0.1-2.1
			c0-0.2-0.4-0.3-0.6-0.4c-0.1,0-0.5,0.1-0.5,0.2c0,2.4-1.1,4.7-0.7,7.1c0.1,0.8,0.7,0.9,1,0.5c0.8-0.8,1.2,0,1.3,0.3
			c0.3,1.1,0.5,2.2,1.3,3.2c0.2,0.3,0.1,1.1-0.1,1.4c-0.5,0.6-1.2,0.9-1.9,1.3c0,0-0.2,0-0.2-0.1c-0.3-0.3-0.7-0.5-0.8-0.9
			c-0.4-1.2-1.6-1.8-2.3-2.7c-0.4-0.5-0.1-1.6-0.1-2.4c0.1-1.1-0.2-2-1.1-2.6c-0.1-0.1-0.1-0.1-0.2-0.2c-1.5-1.5-1.6-1.7-3.8-1.4
			c-1.7,0.2-3-0.8-4.4-1.3c-0.6-0.2-0.8-0.2-1.4,0c-1.1,0.3-1.5,1.3-2.3,1.9c-1.3-1-1.5,0.6-2.2,1c-0.6,0.3-0.9,0.9-0.7,1.5
			c0.3,1.3-0.4,2.1-1.3,2.9c-0.3,0.3-0.6,0.9-0.9,0.8c-0.5-0.1-1.1-0.4-1.5-0.8c-0.7-0.7-1.2-1.5-1.8-2.3c-0.1-0.1,0-0.3,0.1-0.4
			c0.4-0.5,0.7-1.1-0.3-1.3c-0.8-0.1-0.6,0.6-0.6,1.1c-0.3,1.8-0.5,3.7-0.8,5.7c-0.4,0-0.9,0-1.4,0c-0.7,0.1-0.9-0.3-0.8-0.9
			c0-0.5-0.2-1.2,0-1.5c1.2-1.3,0.1-3.1,1-4.6c0.7-1.2-0.5-2.8-2-2.9c-1-0.1-2,0-3.3,0c0,0.6,0,1.2,0,1.8c0,1,0.2,2-1.2,2.3
			c-0.4,0.1-0.6,0.9-0.9,1.4c-0.3-0.5-0.7-1-1-1.6c-0.2-0.3,0-0.8-0.1-1.2c-1.1-2.7-1.1-2.7-4-2.7c-1.4,0-2.9,0-4.3,0
			c-0.7,0-0.9-0.3-0.8-0.9c0-0.6,0-1.1,0.8-1c1.7,0.2,3.3-0.5,5-0.6c1.1-0.1,1.2-0.7,1-1.4c-0.3-1.3-0.7-2.6-1.3-3.8
			c-0.5-0.9-1.2-1.8-2.6-1.7c-1.2,0-2.5-0.6-3.7-0.5c-0.7,0.1-1.2,0.7-1-0.5c0.1-0.8-0.2-1.3-0.7-1.9c-1.7-1.6-3.6-2.9-6-2.6
			c-1.1,0.1-2-0.9-2.8-0.5c-0.7,0.4-0.8,1.7-1.4,2.4c-1.5,1.6-2.9,3.4-5.5,3c-1.1,0.9-2.7,0.2-3.7,0.8c-1.1,0.7-2.1,1.4-3.2,1.9
			c-0.3,0.2-0.5,0.7-0.8-0.1c-0.3-1-0.9-1.8-2-1.9c-0.6-0.1-1.8-0.5-1.7,0.9c-0.9,0.1-2,0.6-2.6,0.2c-0.9-0.6-1.2-0.2-1.6,0.3
			C86.4,79.6,86,79.8,86,80c0,0.8-0.5,1.4-1.2,1.5c-0.8,0.2-1.6,0.1-2.4-0.1c-1.7-0.4-3.1-1.3-3.9-2.9c-0.3-0.7-0.6-1.3-1.4-1.3
			c-2.5,0.1-3.7-1.7-5.1-3.2c-0.8-0.8-1.3-1.9-2.1-3c0.9,0,1.7,0,2.5,0c1.1,0,2.1,0.2,1.8-1.5c0-0.1,0.4-0.3,0.7-0.4
			c1.6-0.9,2.3-2.6,1.6-4c-0.8-1.5,0.3-1.3,0.8-1.5c0.3-0.2,0.8,0,1.2,0c0.9-0.1,2.4,1.3,2.5-0.9c0-0.1,0.7-0.3,1.1-0.3
			c1.5,0.2,3.1,0,4.3,0.7c1.9,1,3.4,0.1,5-0.3c0.4-0.1,0.9-0.4,1-0.3c1.5,1.4,2.7-0.3,4-0.5c0.7-0.1,1.4-0.7,2.1-0.8
			c1.1-0.2,1.6-0.7,1.5-1.8c0-0.4,0-0.9,0.2-1.1c0.3-0.4,0.7-1,1.5-0.7c1.1,0.4,2.2,0.6,3.2,1.2c0.7,0.4,1.3,1.2,1.9,1.7
			c0.8,0.6,1.5,1.4,2.2,2.1c0.9,0.9,1.2-0.7,1.8-0.2c0-0.2,0.1-0.4,0-0.6c-0.6-1.5-0.6-2.6,1.3-3.2c0.9-0.3,0.9-1.2,0.9-2.1
			c0-3.4,0.1-3.4,3.3-3.3c0.9,0,1.9-0.3,2.5,0.6c0.6-0.5,2,0.9,2.2-0.8c0-0.2,0.4-0.4,0.7-0.4c0.6-0.1,1.3,0.1,1.8,0
			c1.6-0.5,3.1,1.6,4.7,0.1c1.4,0.6,2.9,1,4.2,1.8c0.7,0.4,1.5,0.3,1.9,0.6c0.9,0.8,1.3,0.4,2-0.2c1.5-1.4,1.5-1.4,3.2-0.3
			c0.5,0.4,0.6,0.2,0.9-0.1c0.6-0.7,1-1,2-0.2c0.7,0.6,1.9,0.5,2.7,1c1.1,0.7,2,0.5,3-0.2c0.4-0.3,0.9-0.3,0.8-0.9
			c-0.1-1.9,0.4-3.8-0.4-5.9c0.2,0.2,0.5,0.3,0.7,0.5c0.3,0.3,0.7,0.5,0.9,0.9c0.5,1.3,1.1,2.2,2.7,2.3c0.5,0,0.9,0.7,1.4,1.1
			c0.5,0.4,0.9,1.2,1.3,1.2c1.9-0.2,1.9,1.2,2.4,2.4c0.8,2.1,1.9,4,4.5,4.6c1,0.2,2,0.8,2.7,1.5c0.8,0.8,1.5,0.9,2.5,0.8
			c0.9,0,1.8-0.1,2.4,0.9c0.2,0.3,2.6-0.4,2.9-1c0.7-1.1,1.3-2.3,2-3.5c0.8-1.3,0.7-2.2-0.4-3.4c-1.9-2-4-3.8-6.3-5.4
			c-2.2-1.5-4.8-2.8-6-5.6c-0.1-0.3-0.2-0.8-0.2-1.1c2,1.1,3.6,2.9,6,3.3c0.7,0.1,1.9,0.4,2,1.5c0.1,0.8,0.6,0.8,1,0.7
			c1.3-0.3,2.1,0.6,2.4,1.4c0.9,2.2,2.9,2.8,4.7,3.5c2,0.8,4.1,1.3,5,3.6c0.3,0.8,1.2,0.9,2.1,0.7c2-0.6,2-0.3,4.8,0
			c2.5,0.2,4.4,1.2,6.4,2.6c1.3,0.9,2.9,1,4.5,0.3c1.4-0.6,2.5,0,3.1,1.4c0.7,1.6,1.3,3.2,1.7,4.8c0.2,1.1,0.3,0.6,1,0.3
			c0.6-0.3,1.3-0.7,2.3-0.2c1.1,0.6,2.4,1,3.7,0.7c0,0,0.3,0.4,0.3,0.5c-1.1,1.1,0.2,1,0.6,1.6c0.6,0.8,2.3-0.3,2.2,1.4
			c0,0,0.6,0.2,0.8,0.2c0.3-0.1,0.4-0.5,0.7-0.5c0.9-0.1,1.7-0.1,2.5-0.5c0.4-0.2,1.3,0.7,2,1c0.5,0.3,1.1,0.4,1.6,0.6
			c1.4,0.5,1.4,0.5,1,2.1c-0.2,0.8-0.2,1.4,0.9,1.7c1.2,0.3,2.3,1,3.6,1c0.8,0,0.9,0.3,1,1.1c0.1,0.9,0.6,1.3,1.7,2.3
			c0.7,0.6,1.3,1.3,2,2c1.2,1.1,1.6,1.1,3.2,0.5c0.9-0.4,1.8-0.7,2.9-0.6c-0.4,0.5-1.1,0.9-1.1,1.4c-0.1,0.6,0.5,1.2,0.5,1.9
			c0.1,0.7,0.3,0.9,0.9,0.8c0.8-0.1,1.3,0,1.8,1c0.5,1.1,1.7,1.7,2.5,2.7c0.3,0.4,0.2,1.1,0.3,1.6c-0.7,0-1,1.1-2,0.4
			c-0.9-0.6-1.5-0.2-1.9,0.9c-0.5,1.5-1.6,2.4-3,3.1c-0.3,0.1-0.3,0.7-0.5,1c0.3,0.1,0.7,0.4,1,0.4c0.7-0.1,1.3-0.6,1.9-0.5
			c1.1,0,2.4-1.5,3.3,0.4C244.3,98.7,245.3,98.8,246.3,98.9z"/>
		<path class="st0" d="M382,83.3c0.2-0.9,0.7-1.8,0.5-2.7c-0.2-0.7-1.1-1.2-1.7-1.8c0.7-1.1,2.5-1.2,2.7-2.8
			c0.1-0.4,0.1-0.7,0.2-1.1c-0.4,0-0.7,0-1.1,0.1c-0.1,0-0.2,0.2-0.2,0.2c-0.4,0-0.7-0.1-1.1-0.1c0.1-0.3,0-0.6,0.2-0.8
			c0.5-0.6,1.1-1.1,1.7-1.8c-0.7-0.2-1.4-0.2-1.8-0.5c-0.3-0.2-0.2-1-0.1-1.5c0-0.3,0.2-0.7,0.3-0.7c0.9-0.2,1.8-1,1.4-1.4
			c-0.5-0.5-1.8-0.3-2.8-0.3c-0.8,2.4-3.8,1.7-5.1,4.3c0-1.4,0-1.9,0-2.5c0-0.4,0.3-1.1-0.5-1.2c-0.4-0.1-1,0.1-1.4,0.3
			c-0.7,0.4-1.5,0.8-1.8,1.4c-0.3,0.8-0.1,1.8,0,2.7c0,0.2,0.6,0.4,0.9,0.5c0.7,0.1,1.5,0.8,2.3,0c0.8,0.8,1.5,0.8,2.3,0
			c0,0,0.7,0.5,0.6,0.7c-0.4,1.6-0.8,3.1-1.4,4.7c-0.2,0.4-1.2,0.2-1.7-0.4c-0.8-0.9-0.8-0.9-1.2-0.1c-0.2,0.4-0.6,0.9-0.6,1.3
			c0,1.1-0.7,1.3-1.5,1.9c-1.1,0.8-2.1,0.5-3.2,0.5c-0.3,0-0.8-0.7-0.9-1.1c-0.2-0.6,0-1.2,0-1.8c-0.1-1.5-0.9-2.4-2.3-1.8
			c-1.2,0.4-2.3,0.5-3.5,0.6c-0.1,0-0.4,0.7-0.3,0.9c0.5,0.8,1.4,1.3,1.8,2.3c0.7,1.4,0.7,2.8,1.1,4.2c0.4,1.3,1,2.4,2.2,2.4
			c1.4-0.1,2.1,0.8,2.7,1.6c2.4,3.3,2.4,3.3,6,3.4c0.1,0.8,0.1,1.6,0.4,2.3c0.2,0.4,0.3,0.5,0,0.9c-0.6,0.9-0.8,1.8,0.3,2.6
			c0.3,0.2,0.6,0.5,0.9,0.9c0.4,0.5,0.8,1.1,0.9,1.7c0,0.2-0.9,0.6-1.4,0.9c-3.5,1.9-3.7,2.8-0.8,6c0.8,0.8-0.1,1-0.4,1.3
			c-0.1,0.2-0.6,0.1-0.8,0.1c-0.8,0.3-1.8,0.4-0.8,1.7c0.2,0.2,0.1,0.8,0,1.2c-0.4,2.1,0.8,4.1,0.7,6.2c1.3,1.4-0.6,0.6-0.8,1.1
			c-0.4,0.8-0.9-0.2-1-0.4c-0.2-1.4-0.5-2.6-2.4-2.3c-0.1,0-0.2-0.3-0.3-0.5c-0.3-0.9-1.1-1.7,0.2-2.5c0.9-0.5,0-0.9-0.3-1.1
			c-1.1-0.9-2,0.2-2.9,0.6c-0.6,0.3-1,1-1.6,1.5c-0.6,0.5-1.4,0-1.6-0.8c-0.1-0.3-0.3-0.9-0.5-0.9c-2,0.1-2-1.2-2-2.6
			c0-0.2-0.2-0.3-0.3-0.6c-1.6,0.6-3,1.3-3.6,3.1c-0.1,0.2-0.6,0.3-0.8,0.5c-0.1-0.4-0.9-0.4-0.4-1.1c0.2-0.4,0-1.2-0.3-1.7
			c-0.6-1-0.3-1.5,0.2-2.5c0.6-1.1,0.5-2.7,0.3-4.1c-0.1-0.9-1.2-0.8-2.1-0.9c-1,0-0.8,0.6-0.9,1.2c-0.2,0.6-0.5,1.2-0.9,2.1
			c-0.5-1.5-0.2-2.7-0.3-3.9c0-0.2-0.3-0.4-0.5-0.6c-0.1-0.1-0.4,0-0.5,0.1c-0.3,0.3-0.7,0.6-0.7,0.9c0,1.6-0.4,1.8-1.7,0.8
			c-0.7-0.5-1.3,0.1-1.5,1.1c-0.2,0.8-0.5,1.6-0.8,2.7c-1.4-1.4-2.6-2.4-4.5-2.8c-2-0.4-5.7-3.5-7.5-5.5c-1.1-1.3-2.7-1.1-3.9,0.3
			c-1,1.1-1.8,2.3-3.3,3c-1,0.4-1.7,1.5-2.4,2.3c-0.6,0.8-1.6,0.9-2.2,0.6c-0.8-0.4-2.1-0.1-2.5-1c-0.4-0.8-0.6-1.7-0.6-2.5
			c0-1.3-0.8-1.8-1.5-2.5c-0.5-0.5-1.2,0.1-1.6,0.9c-0.6,1.2-0.7,2.3,0,3.5c0.4,0.8,0.9,1.7,0.1,2.9c-0.5,0.7-0.1,2-0.1,3.2
			c-1.2-0.7-1.5-1.3-1-2.5c0.9-2.3-0.1-4.1-2.5-5c-0.6-0.2-1.2-0.5-1.8-0.8c-1.7-0.8-2.3-0.7-2.4,1c-0.2,2.2-2.2,1.8-3.1,2.8
			c-0.1,0.1-0.6-0.1-0.8-0.3c-0.7-0.6-1.1-0.2-1.5,0.3c-0.5,0.8-1.3,1.7,0,2.6c0.5,0.4,0.1,1.4-0.6,1.7c-0.5,0.2-0.7,0-1-0.6
			c-0.6-1.1-1.8-2.1-1-3.4c0.4-0.6,0.2-0.9-0.2-1.1c-0.3-0.2-0.8-0.3-1-0.2c-0.6,0.3-1.2,0.7-1.7,1.1c-0.6,0.4-1.1,0.8-1.7,1.1
			c-1.1,0.5-1.5,0.2-2.1-1.1c-0.3-0.8,0-1.4,0.9-1.8c2.6-1.1,3.2-2.4,1.9-4.5c-0.1-0.2-0.7-0.4-0.9-0.3c-1.2,0.4-2.3,1-3.4,1.5
			c-0.3,0.1-1,0.2-1,0.1c-0.5-1.5-2-2.8-1.3-4.6c0.1-0.2,0.3-0.3,0.7-0.7c-1.3,0-2.4,0-3.4-0.1c-0.8-0.1-0.3-0.4-0.1-0.7
			c0.3-0.5,0.4-1.1-0.3-1.1c-2.1,0.2-2.6-0.9-2.6-2.7c0-0.2-0.4-0.4-0.6-0.4c-0.2,0-0.5,0.3-0.6,0.5c-0.1,0.8,0,1.6,0,2.6
			c-1,0-2,0-2.9,0c-1.4,0-2.3-0.8-2.7-2.2c-0.2-0.9,0.7-2.4,1.7-3c0.5-0.3,0.5-0.1,0.9,0c2.2,0.8,4.4,1.5,6.8,1.4c1,0,1.3-0.4,1-1.3
			c-0.1-0.3-0.3-0.5-0.5-0.7c-0.5-1,0-1.5,1-1.9c2.5-1.2,5-2.5,7.3-4c1.5-1,1.6-0.9,1.1-2.6c-0.1-0.5-0.3-1-0.2-1.4
			c0.4-1.5,1-2.8,0.1-4.5c-0.6-1,1.5-2.5,2.7-1.9c0.2,0.1,0.3,0.5,0.3,0.8c-0.1,0.5-0.5,0.8-0.6,1.3c-0.2,2,0,2.6,1.9,3.1
			c1.2,0.4,2.6,0.3,3.9,0.3c0.3,0,0.9-0.7,0.9-1c0.1-0.9-0.2-1.8-0.3-2.6c-0.1-0.4-0.3-0.7-0.3-1.1c0-0.8,0.5-1.1,1.4-0.8
			c1.5,0.4,3,0.5,4.4,1.3c0.4,0.2,1.2,0.3,1.7-0.4c0.5-0.6,1.4-1.1,1.7-1.8c0.7-1.6,2-1.6,3.4-1.5c0.5,0,0.7,0.2,1,0.7
			c1.1,1.9,2.9,2.4,4.8,1.4c1.3-0.6,2.7-1.1,3.7-2.4c0.3-0.4,0.7-0.8,1.1-1.1c1.6-1.4,2-1.3,3.6,0.1c1,0.9,1,0.9,1.9-0.1
			c1.7-1.7,2.2-3.8,2.2-6.2c0-1.8-0.7-2.9-2-3.8c-0.6-0.4-1.4-0.9-2.1-0.8c-1.3,0-2-0.8-2.8-1.6c-1-1-0.9-1.5,0.4-2.2
			c1.8-1,3.7-0.9,5.5-0.4c0.7,0.2,1.3,0.4,2,0.3c1.9-0.3,3.5,0.5,5,1.3c0.8,0.4,1.7,0.8,2.6,1.3c0.2,0.1,0.5,0.5,0.4,0.6
			c-0.4,0.8-0.8,1.5-1.3,2.2c-0.2,0.2-0.7,0.2-1.1,0.2c-0.9,0-1.8,0-2.8,0c-0.1,0-0.1,0.1-0.4,0.4c1.1,0.5,2.1,1,3.1,1.4
			c0.4,0.1,0.8,0,1.2,0.2c0.7,0.2,1.5,1,1.9,0.8c0.7-0.4,1.5,0,2-0.4c2.1-1.3,3.9-0.3,5.8,0.6c0.3,0.2,0.7,0.2,1,0.4
			c0.7,0.4,1.2,0.4,1.9-0.1c0.9-0.6-0.1-0.9-0.1-1.4c0-0.5-0.1-1.1,0-1.5c0.1-0.5,0.4-1.1,0.8-1.5c0.2-0.1,0.8,0.2,1.2,0.4
			c0.9,0.3,1.8,1,2.9,0.1c1.5-1.4,3-0.2,4.3,0.3c0.9,0.4,1.8,1.1,2.8,1.5c1.1,0.5,1.4,1.9,1,3.3c-0.2,0.6,0,1,0.7,0.9
			c0.4,0,0.9-0.1,1.1-0.3c1-1,2-1.4,3.2-0.5c0.1,0.1,0.1,0.1,0.2,0.2c0.9-1.3,2.3-0.1,3.3-0.9c0.7-0.5,1.3-0.4,2.1,0.1
			c0.8,0.4,2,0.2,2.9,0.5c1.1,0.4,2,1.1,3,1.7c0.7,0.4,0.7,1.1,0.7,1.9c0.1,1.2-0.5,2.4,0.8,3.4c1,0.7,1.9,1.2,3.2,1.4
			c2,0.2,2.7,1,3.4,3.7c0.2,0.7,0.1,1.4,1.1,1.3c1.3-0.2,3,0.6,3.3-1.6c0-0.1,0.5-0.2,0.8-0.2c1.4-0.1,3,1.1,3.4,2.4
			c0.1,0.2,0.1,0.4,0.2,0.5c0.2,0.6,0.4,1.3,0.7,1.9c0.6-0.3,1.1-0.6,1.7-0.9c0.3-0.1,4.5,0.7,4.6,1c0.2,0.4,0.3,0.9,0.3,1.4
			c0,0.7,0.1,1.5-0.2,2.1c-0.3,0.7-1,0.8-1.8,0.8c-0.1,0-0.5,0.7-0.4,0.9c0.3,0.9,0.8,1.7,1.1,2.6c0.1,0.2-0.1,0.7-0.3,0.7
			c-0.2,0.1-0.6,0-0.8-0.2c-0.2-0.3-0.2-0.7-0.5-1c-1.4-1.7-1.8-1.7-2.7,0.5c-0.5,1.2-1.5,2.3-1.3,3.8c0.1,0.9-0.7,1.4-1.6,1.3
			c-0.6,0-1.2,0-1.8,0c-0.7,0-0.7-0.4-0.8-0.9c-0.4-1.5-0.4-1.4-2.1-1c-0.2,0.1-0.7,0-0.8-0.2c-0.1-0.2-0.2-0.6,0-0.8
			c0.5-0.6,1.1-1.2,1.7-1.7c0.6-0.4,0.6-1,0.6-1.6c0-0.8-0.1-1.5-0.5-2.3c-0.3-0.5,0.4-1.4,0.5-2.2c0.1-1-0.5-1.6-1.6-1.7
			c-0.9-0.1-1.7,0-2.6-0.6c-0.4-0.3-0.8-0.4-0.8-1c0-0.3-0.3-0.9-0.5-0.9c-0.4,0-1.3,0.2-1.3,0.3c-0.1,1.2-0.7,0.9-0.9,0.3
			c-0.4-1-0.7-1.1-1.7-0.7c-0.7,0.3-1.6-0.2-2,1.1C386,80.5,383.9,81.7,382,83.3z"/>
		<path class="st0" d="M182.6,21.1c3-0.1,5.5,1.6,8.1,2.7c1.4,2.4,3.3,4.5,4.4,7.1c0.1,0.4,0.5,0.6,0.6,1c0.3,0.8-0.1,1.4-1.1,1.6
			c-0.8,0.2-1.7,0.4-2.5,0.6c-0.3,0.1-0.6,0.4-0.7,0.7c-0.4,0.8-0.5,1.6-1,2.4c-0.5,0.9-1.3,0.8-1.9-0.1c-0.3-0.5-0.6-1-0.8-1.5
			c-0.1-0.2,0-0.6,0-0.6c-2.7,0-1.4-3.4-3.4-4c-0.4-1.3-0.6-2.5,0.1-3.7c0.4-0.6,0.2-0.9-0.2-1.3c-0.5-0.4-0.9-0.7-1.4-1.1
			c-0.6-0.6-1.3-1.1-1.9-1.8c-0.3-0.4-0.4-1-0.6-1.6c0.6-0.1,1.1-0.2,1.7-0.3C182.2,21.1,182.4,21.1,182.6,21.1z"/>
		<path class="st0" d="M141.3,107.7c0.7-0.4,1.3-0.7,1.9-1c0.5-0.3,1.2-0.5,1.3-0.9c0.2-0.8,0-1.6-0.1-2.4c0-0.1-0.4-0.1-0.5-0.2
			c-0.2-0.2-0.4-0.5-0.6-0.8c0.3-0.1,0.7-0.5,1-0.4c1.2,0.3,1.3-0.8,1.9-1.2c0.6-0.5,1.6-0.5,2.4-0.8c-0.5-1.9,2.7-1.7,2.1-3.7
			c0-0.1,0.2-0.5,0.3-0.5c1.7,0.1,1.3-1.9,2.4-2.4c0.5-0.2,1.1-0.3,1.7-0.4c0.2,0,0.4,0,0.6,0.1c-0.5,1.4,1.2,1.3,1.5,2.1
			c0.3,1,0.7,2.4,0.3,3.2c-1,1.6-0.3,2.4,0.7,3.3c0.2,0.2,0.1,0.6,0.2,0.8c0.4,0.4,0.7,1,0.1,1.2c-0.8,0.4-0.9-0.2-1-0.9
			c-0.2-1.3-1.4-1.9-2.3-2.7c-0.1-0.1-0.6,0.1-0.8,0.3c-0.4,0.4-1,0.8-0.4,1.5c0.1,0.1,0.1,0.4,0.1,0.6c-0.3-0.1-0.7-0.2-0.9-0.5
			c-0.2-0.2,0.1-0.7-0.1-0.9c-0.2-0.2-0.7-0.5-0.9-0.5c-0.5,0.2-1,0.6-1.5,0.8c-0.5,0.3-1.2,2-1.3,2.5c-0.2,1-0.5,2.1-0.7,3.1
			c-0.5,2.1-1.5,4.1-1.8,6.3c0,0.3-0.4,0.5-0.7,0.7c-1.8,0.9-2.9,0.8-4.3-0.3c-0.8-0.6-0.6-1.5-0.5-2.2c0.1-0.7,0.7-1.2,1.5-1.1
			c0.7,0,1.4,0.1,2.1,0c0.2,0,0.5-0.5,0.6-0.8c0.1-0.5,0.1-1-0.7-1c-0.7,0-1.4,0.1-2.1-0.1C142.4,108.5,141.9,108.1,141.3,107.7z"/>
		<path class="st0" d="M218.1,63.7c1,0,2,0,3,0c0.6,0,1.3,0.1,1.2-0.9c0-0.1,0.8-0.4,0.9-0.2c2.4,2,5.3,1.8,8.2,1.7c1.3,0,2.7,0,4,0
			c0.7,0,1.7,0.4,1.7-1c0-0.1,0.7-0.3,0.8-0.2c0.9,0.9,2.9,0.4,3,2.3c0,0.4,0.7,0.7,1.2,1.1c-0.5,0.1-0.8,0.1-1,0.3
			c-0.6,0.3-1.1,0.9-1.7,0.9c-0.5,0-1-0.7-1.6-0.9c-0.8-0.3-1.7-0.5-2.5-0.6c-1.1-0.1-2.3-0.1-3.4,0c-2.3,0.2-4.5-0.2-6.5-1.4
			c-0.5-0.3-1.3-0.6-1.6-0.4c-2.1,1.1-3.9-0.5-5.9,0C218,64.1,218,63.9,218.1,63.7z"/>
		<path class="st0" d="M37.6,77.1c0.3,1.7-0.1,3.2,0.7,4.6c0.3,0.6,0.5,1.9-1.2,1.7c-0.4,0-1.1,0.6-1.1,0.8c0.2,2.1-1.2,1.6-2.4,1.6
			c-1,0-2,0-3.1,0.1c-0.3,0-0.7,1.1-0.9,0c-0.1-0.5-0.3-1.3,0.7-1.3c0.3,0,0.6,0,0.9,0c0.7,0.1,0.9-0.3,0.8-0.9
			c-0.2-1.3,0.3-2,1.4-2.8C35.1,80,36.2,78.6,37.6,77.1z"/>
		<path class="st0" d="M129.2,38.8c0.5,0.3,1.1,0.6,1.6,1c0.6,0.5,1,1.2,2,1.1c0.6-0.1,1.4-0.1,1.7,0.3c0.3,0.4,0.4,1.4,0.1,1.7
			c-0.7,0.8-0.4,1.3,0.3,1.6c1.3,0.6,0.7,2,1.5,2.8c0,0-0.2,0.5-0.4,0.6c-0.2,0.1-0.6,0.2-0.6,0.1c-1.3-1.6-3.1-2.6-5-3.4
			c-0.2-0.1-0.6-0.3-0.6-0.5c0-1.4-0.8-2.3-1.7-3.3c-0.3-0.3-0.3-1-0.1-1.4C128,39.1,128.6,39.1,129.2,38.8z"/>
		<path class="st0" d="M260.9,115.5c-1.9,0-3.1,0-4.3,0c-0.1,0-0.2-0.1-0.3-0.2c0.3-1.1,1.9-1.4,1.8-2.8c-0.2-1.8,0.3-3.8-1.4-5.5
			c1.2,0,2.1,0,3.1,0c0.1,0.8,0.1,2.1,0.4,2.2c0.9,0.3,2,0.5,2.9-0.2c0.1-0.1,0.4-0.3,0.5-0.2c0.2,0.1,0.6,0.2,0.6,0.4
			c0,0.2-0.1,0.7-0.3,0.7c-0.4,0.1-0.8,0-1.2,0c-1.7,0.2-2.7,1.4-3.4,2.8C258.8,113.9,259.8,114.6,260.9,115.5z"/>
		<path class="st0" d="M192.7,18c-0.1,1.3-0.6,1.9-1.6,1.9c-1.7,0.1-3.4-1.1-3.9-2.8c-0.1-0.4-0.3-0.7-0.4-1
			c-0.3-0.9,0.6-2.1,1.3-1.7c0.8,0.5,1.5,0.6,2.2,0.5c1.4-0.1,0.8,2.1,2.2,1.9C192.4,16.9,192.6,17.8,192.7,18z"/>
		<path class="st0" d="M286.6,60.8c-2.5,1.3-2.5,1.3-6.4,1.6c-1.1,0.1-2.1,0.5-2.8,1.3c-0.6,0.7-1.2,0.6-1.7-0.1
			c-0.3-0.3-0.6-0.6-0.9-0.9c-0.3-0.4,0-1,0.5-1c0.9,0,1.8,0,2.7,0c2.2,0,4.3-0.2,5.8-2.1c0.4-0.5,0.8-0.5,1.3-0.1
			C285.6,60.1,286.1,60.4,286.6,60.8z"/>
		<path class="st0" d="M128.4,26.4c2.4,1.6,3,4.5,6,6.1c-0.7,0.2-1.1,0.2-1.3,0.3c-1.1,1.1-1.8,0.6-2.8-0.2
			c-0.7-0.6-2.2-0.7-0.6-1.9c-0.3-1.1-0.6-2.2-0.9-3.3C128.7,27,128.5,26.7,128.4,26.4z"/>
		<path class="st0" d="M246.4,99c1.4-2,2.8-3.4,5.2-3.3c1.5,0.1,3,0,4,1.8c-1.5,0-2.9,0.3-4.4-0.1c-0.7-0.2-1.7,0.3-2.5,0.6
			C247.9,98.3,247.2,98.7,246.4,99z"/>
		<path class="st0" d="M203.6,142.5c-1.1,0.4-2.6,0.2-3.2,1.9c-0.1,0.4-1.2,0.6-1.8,0.8c0,0-0.3-0.4-0.2-0.5c0.3-0.8,1.2-1.7-0.5-2
			c-0.1,0-0.2-0.5-0.1-0.6c0.4-0.3,0.8-0.5,1.3-0.6c0.3-0.1,0.6,0,0.9,0c0.9,0,1.1-1.8,2.2-1.1C202.9,140.8,203.2,141.8,203.6,142.5
			z"/>
		<path class="st0" d="M263.6,117.7c0,0.9,0,1.4,0,1.8c-0.1,0.9,0,1.6,0.8,2.1c0.1,0.1,0.1,0.4,0.2,0.6c-0.2,0-0.5,0.1-0.6,0
			c-0.7-0.8-1.6-0.6-2.5-0.6c-0.4,0-0.9,0.4-1.3,0.6c-0.1-0.6-0.3-1.1-0.3-1.7c0-0.3,0.3-0.7,0.6-0.7
			C262.5,119.4,262.5,119.4,263.6,117.7z"/>
		<path class="st0" d="M203.9,143.7c1.4-0.4,2.2-0.7,3-0.7c0.3,0,1.1,0.5,1,0.6c-0.1,0.5-0.4,1.1-0.8,1.4c-0.3,0.2-1,0.2-1.4,0
			C205.2,144.7,204.7,144.2,203.9,143.7z"/>
		<path class="st0" d="M56.6,61.9c1.3,0,2.2,0,3,0c0.3,0,0.6,0.3,0.9,0.4c-0.2,0.4-0.4,0.9-0.8,1.2c-0.2,0.2-0.7,0.1-1,0
			C58.2,63.1,57.7,62.6,56.6,61.9z"/>
		<path class="st0" d="M49.2,46.4c-0.1-0.1-0.4-0.5-0.3-0.7c0.3-0.8,0.9-1.3,1.8-1.1c0.2,0,0.5,0.3,0.5,0.4
			C51.2,45.8,50.3,46.5,49.2,46.4z"/>
		<path class="st0" d="M256.1,65.2c-1,1-1,1-2.9,0.8C254.2,65,254.2,65,256.1,65.2z"/>
		<path class="st0" d="M264.2,63.8c1.2,0,2.1,0,3.6,0C266.2,64.2,265.2,66.1,264.2,63.8z"/>
		<path class="st0" d="M159.5,42.9c0.1-0.1,0.2-0.2,0.3-0.1c0.8,0.4,2,0.2,2,1.5c0,0.1,0,0.3,0,0.3c-1.1,0.3-1.5-0.7-2.2-1.3
			C159.5,43.2,159.5,43,159.5,42.9z"/>
		<path class="st0" d="M65.8,66.1c-0.4,0.3-0.6,0.7-0.9,0.7c-0.8,0.1-0.7-0.6-0.6-1c0-0.3,0.4-0.5,0.6-0.8
			C65.2,65.3,65.4,65.6,65.8,66.1z"/>
		<path class="st0" d="M268,64.6c0.8-0.3,1.6-0.6,2.3-0.9c0.1,0,0.3,0.1,0.5,0.2c-0.1,0.1-0.1,0.3-0.2,0.4
			C269.9,65.4,268.9,64.8,268,64.6z"/>
		<path class="st0" d="M104.7,116.6c0,0-0.3-0.1-0.2-0.2c0.1-0.3,0.2-0.7,0.4-1c0.2-0.2,0.5-0.2,0.8-0.2c0.1,0,0.4,0.2,0.4,0.4
			c0,0.1-0.1,0.4-0.3,0.5C105.5,116.3,105.1,116.4,104.7,116.6z"/>
		<path class="st0" d="M51.2,22.4c-0.1-0.1-0.2-0.3-0.4-0.4c0.4-0.3,0.7-0.6,1.2-0.8c0.1,0,0.5,0.3,0.6,0.5
			C52.7,22.6,51.9,22.3,51.2,22.4z"/>
		<path class="st0" d="M420.4,95.2c-0.2,0.2-0.3,0.5-0.6,0.8c-0.1,0.1-0.4,0.1-0.6,0.2c0-0.2-0.1-0.4-0.1-0.5
			c0.2-0.3,0.5-0.6,0.7-0.9c0.1-0.1,0.3,0,0.4,0C420.3,94.8,420.3,94.9,420.4,95.2z"/>
	</g>
</g>
<g>
	<g>
		<path class="st0" d="M402.9,213.5c0.3,0.2,0.9,0.7,1.6,1.1c1,0.7,2.2,1,3.2,0.3c1.3-1,2.2-0.3,3.2,0.4c1,0.7,2.3,1.2,3.6,1.6
			c2.2,0.6,2.2,0.5,3.1,3c-0.6,0.7-1.2,1.4-1.8,2.1c-0.5,0.5-1,1.4-1.5,1.4c-2.2,0.2-3.2,1.9-4.5,3.3c-1.4,1.4-2.9,2.6-5.1,1.2
			c-0.5-0.3-1.4-0.1-2,0.2c-0.8,0.3-1.6,1-2.4,1.5c-1.9-0.8-3.7-2.3-6-1.9c-1.1,0.2-2.2-0.1-3.2,0.9c-0.4,0.4-1.3,0.4-2,0.5
			c-1,0.1-2,0-3,0c-2.1,3.5-4.2,7-6.3,10.4c-3.9-2.4-4.2-2.3-7.7,0.5c-0.3,0.3-0.7,0.7-1,0.7c-2.7,0-4.8,1.5-7,2.6
			c-1,0.5-1.8,1.6-2.7,2.4c-1.2,1.1-2.3,2.3-3.6,3.2c-1.1,0.8-2.5,0.9-3.8,0.2c-3.1-1.5-6.3-1.3-9.5-0.4c-1.7,0.5-3.4,1.3-5.1,2
			c-2.4,0.9-3.8,2.4-3.4,5.1c-1.4,1.1-2.9,1.4-4.4,0.8c-2.2-0.9-4.2-0.3-6.2,0.5c-2,0.7-4,1.4-6.4,2.2c-1.6,3.1-5,4.8-9,3.9
			c-1.6-0.4-2.9-0.2-4.2,1c-1.8,1.7-1.8,1.6-4,0c-1.1-0.8-2.6-0.8-3.8,0.6c-1.2,1.3-2.6,1.9-4,2.5c-1,0.5-1.8,1.5-2.8,2.5
			c-2-1.9-5-1.9-7.3-3.9c-2.1-1.9-5-1.6-7.6-1c-1.5,0.4-2.6,1.5-2.5,3.4c0.1,1.3,0.3,2.6-1.3,3.5c-0.4,0.2-0.4,1.5-0.2,2.2
			c0.2,1,0.8,1.9,1.2,2.8c0.4,0.9,0.3,1.6-0.8,2.1c-1.9-0.8-1.8-3-3.1-4.5c-0.5,0.2-0.9,0.5-1.5,0.8c-1.5-0.7-1.9-2.2-2.6-3.5
			c-0.7-1.2-0.7-3.1-3.2-3.2c0.4,1,0.6,1.9,1.1,2.6c1.1,1.6,0.6,2.8-0.8,4.3c-1.5-2-2.8-3.9-4.1-5.7c-1.8,0.7-2.5,1.5-2.3,3.2
			c0.3,1.9,0.2,1.9-2.2,1.4c-0.1,0.1-0.3,0.2-0.4,0.4c-0.9,3.8-1.5,3.3,2.5,5.1c1,0.5,1.8,1.9,1.3,2.7c-0.5,0.7-1.5,1.3-2.4,1.5
			c-1,0.2-3.4-2.2-3.2-3.2c0.5-1.9-0.9-2.6-2-3.3c-0.8-0.6-1.8-0.9-2.7-1.4c-0.5-0.3-1.3-0.4-1.6-0.9c-2-2.6-4.5-2.4-7.4-1.8
			c-0.9-1.3-1.9-1.3-3.5-0.8c-1.4,0.4-2.9,0.7-4.2,1.5c-1,0.7-2,0.7-3.2,0.1c-2.4-1.2-4.6-0.6-7.1,0.2c-3.5,1.1-6.5,3.5-10.3,3.6
			c-0.8,0-1.8,0.2-2.3,0.8c-1.6,1.5-3.6,1.5-5.6,1.8c-0.7,0.1-1.6,0.2-2,0.7c-2.2,2.9-6.2,2.5-8.7,4.8c-0.2,0.2-0.6,0.1-1,0.1
			c-0.1-0.7-0.2-1.4-0.3-2.1c-0.3-3.3-2.1-4.9-5.3-4.5c-3.6,0.4-7.2,0.9-10.9,1.3c-0.7,0.1-1.5,0.3-2.1,0.1c-3.7-1-7.2-0.6-10.7,0.8
			c-1.2,0.5-2.8,0.1-4.2-0.2c-2.2-0.5-3.9-0.2-5.7,1.2c-3.3,2.7-6.8,5.2-10.2,7.8c-0.3,0.2-0.7,0.4-1.1,0.6
			c-0.9-1.5-1.9-2.9-2.5-4.5c-0.7-1.7,0-3.2,1.1-4.5c1.4-1.5,2.6-3.2,4.1-4.5c2.7-2.3,4.2-5.5,6.2-8.3c1-1.4,2.2-2.7,2.2-4.6
			c0-0.7,0.4-1.4,0.8-2c3.8-6.4,2.3-12.4-1-18.4c-0.9-1.5-1.4-3.1-2-4.7c-1-2.9-2.2-5.7-3.4-8.5c-1-2.5-1.3-4.7,0.4-7.2
			c1.3-1.8,2-4.3,2.3-6.5c0.5-3.8,2.9-5.4,6.1-6.6c0-3.5,3.2-3.3,5.2-4.6c0.7-0.5,1.6-0.8,2.5-1c0.8-0.2,1.7-0.3,2.3-0.1
			c1.6,0.6,3.1,1.5,4.6,2.3c0.4,0.2,0.7,0.5,1,0.6c4.5,0.8,8.6,3.8,13.6,2.6c1.4-0.3,3.3,0.8,4.9,1.4c3.3,1.3,6.3,1,9.3-0.9
			c1.2-0.7,2.7-0.9,4-1.5c1.9-0.8,3.7-1.6,5.6-2.5c0.7-0.3,1.4-0.9,2.1-1.2c2.7-1,4.7-2.7,5.8-5.5c0.9-2.3,3.4-3.1,5.9-2.5
			c3.3,0.9,6.2-0.1,9.1-1.6c4.3-2.3,8.8-3.9,13.7-1.7c1,0.5,2.1,0.9,3.1,1.2c1.2,0.4,2.4,0.9,3.8,0.3c1.2-0.5,2.6-0.2,4-0.3
			c2.2-0.1,2.5,2.1,4.2,2.8c-0.7,1.2-1.2,2-2.1,3.6c1.8-0.8,2.9-1.3,3.9-1.7c-0.1-1.5-0.2-2.9-0.3-4.3c1.7-0.9,3.3-1.8,5.2-2.8
			c0.8,1,1.7,2,2.4,3c1.6,2.1,2.7,4.4,5.3,5.7c1.1,0.5,1.9,2.4,2.2,3.8c0.9,3.5,3.1,5.6,6.4,6.8c1.9,0.6,3.4,1.9,4.6,3.5
			c1,1.3,2.2,2.4,3.3,3.6c0.1,0.1,0.3,0.4,0.5,0.4c3.4-0.1,4.6,3,6.8,4.6c0.9,0.6,1.7,1,2.8,0.8c1.6-0.2,3.2-0.1,4.8-0.1
			c0.3,0,0.7-0.3,1-0.5c2.2-1.4,4.1-3,4.2-6.2c2,0.1,3.8,0.2,5.6,0.3c2,0.1,3.3-0.6,4-2.5c0.5-1.2,1.4-2.1,2.3-3.3
			c2.8,1.3,5.3,2.2,7.5-0.5c1.3,1,2.5,1.2,4.2,0.8c1.5-0.4,3.4,0.5,5.3,0.9c0.6-2,2.2-3.1,4.4-3.7c1.3,1.6,3,2.2,5.1,2
			c1.4-0.2,2.3,0.6,3.3,1.3c1.9,1.1,3.9,2,6,0c1.4,0.6,2.8,1.7,4.5,0.2c0.4-0.4,1.5-0.4,2-0.2c2.3,1.2,4.7,0.3,7,0.6
			c0.2,0,0.5,0.1,0.6,0c2.3-1.5,4.7-1.3,7.5-0.9c0.3,0.5,1,1.1,1.2,1.9c0.7,2.3,2.6,2.7,4.5,3.2c1.8,0.5,2.9-0.6,3.4-2.1
			c2.6-0.3,5.1,1.1,7.6-0.2C397.8,215.8,400.1,214.8,402.9,213.5z"/>
		<path class="st0" d="M331.7,211.7c1.6-4.5,1.6-4.5,4-3.8C335.4,211.3,334.6,212.2,331.7,211.7z"/>
	</g>
</g>
</svg>
