<svg id="Layer_1" data-name="Layer 1" xmlns="http://www.w3.org/2000/svg" viewBox="0 0 45.95 83.02"><defs><style>.cls-1{fill:#ee232f;fill-rule:evenodd;}</style></defs><title>state</title><path class="cls-1" d="M36.95,79.95C29.88,79.71,25.5,82.17,19.52,83c-2-10.49-2.75-27-10.25-28.7C10.84,49,5.94,44.63,5.17,40c-0.31-1.87,1-4.53,1-6.15a31.56,31.56,0,0,0-1-6.15c-0.59-1.87-2.43-3.38-3.08-5.12-0.44-1.18.25-2.86,0-4.1-0.59-2.92-2.42-5.53-2-8.2C13.28,6.4,26.46,2.49,41,0c1.41,3.1-.49,3.66,0,8.2,0.89,3.23,2.13,3.56,2,6.15-0.16,5.13-6.45,7.53-8.2,11.27,3.92,9-2,18.28-2.05,26.65,0,3.85,3,10.67,3.08,16.4C36,72.67,34.18,75.93,36.95,79.95Z"/></svg>