<svg id="Layer_1" data-name="Layer 1" xmlns="http://www.w3.org/2000/svg" viewBox="0 0 96.47 70.06"><defs><style>.cls-1{fill:#ee232f;fill-rule:evenodd;}</style></defs><title>state</title><path class="cls-1" d="M1.85,42.72C2.23,40.61.28,39.4,3,39.32c-0.37-.58-1.3-0.59-1.13-1.7,1.55-.05,1.14.94,2.27,0,1.15-1.82-2.24-1.77-.57-2.27-0.06-1.09-2.11.88-2.83-.57C0.58,32.2,3.83,33,5.25,32c-1.71-.55-2.3-2.23-4-2.83,1-2.45-.48-5.21,0-8.5,0.19-1.35.86-4.48,0-6.8-0.26-.71-1-0.91-1.13-1.7a17.77,17.77,0,0,1,0-4.53s1,0.74,1.13.57a4.8,4.8,0,0,1-.57-1.7c0.14-.88,2.77-2,0.57-1.7,0.16-1.54,1,.45,1.7,1.13,1.44,1.32,2.71,1.22,1.7,3.4,0.58-.37.59-1.3,1.7-1.13C6.54,10.51,8.95,10,11.48,11c0.27,0.1.36,1,.57,1.13,0.8,0.35,2.49.07,3.4,0.57s1.44,1.86,3.4.57c-0.74,2.51,3.24,1.79,1.7,3.4h2.27v3.4c-2.35-1.21-2.13,1.18-3.4,0-1.46.14,0.78,1,0,2.27-0.76.53-4.74,2.75-5.1,4-0.28,1,2.17,1.45.57,2.27,1.11-.77,3.24-0.54,4.53-1.13-1.62,1.21-2.42,3.25-5.1,3.4,1.15,0.74.78,3,2.27,3.4a4,4,0,0,0,1.13-1.7c0,0.85,1.38,1,.57,2.27,1.93-.82,2.13-2.53,3.4-3.4,0.49-.34.55,0.57,0.57,0.57,1.05-.15,2.2-1.86,3.4-2.27-0.46-1.09.54-2.34,0.57-3.4,0-.52-0.48-2-0.57-1.7,0.21-.74.82-0.1,1.13-0.57s-0.34-1.73,0-2.27c0.48-.76,2.06-1,2.27-2.27,1,0.51,2.18,1.27,1.13,2.27,2.07-1.08-1.22-2.71-1.7-5.1-0.33-1.65,1.56-3.77-.57-5.1C28.76,10,30,7.18,29.61,4.76c-0.12-.77-0.9-0.12-1.13-0.57-0.12-.24.83-1.75,0-0.57-1-.37-0.35-1.3.57-1.13,0-1.07-1.35-.1-1.13,0-1.41-.66.63-2.35-0.57-1.13C26.42-1.26,28.8.7,29.61,0.79a51.26,51.26,0,0,1,6.8,1.13c2,0.56,4,1.8,5.67,2.27C43,4.44,44,4,44.91,4.19c1.81,0.37,3.32,2,4.53,2.27,0.32,0.08,1.38-.69,2.27-0.57,1.29,0.18,2.66,1.35,4,1.7,0.89,0.23,1.94-.21,2.83,0,1.22,0.29,2.73,1.49,4,1.7,3.45,0.6,6.42,1.51,9.63,2.27,3.45,0.82,6.78.94,10.2,1.7,0.69,0.15,1.68,1,2.27,1.13,4.13,0.93,8.23.82,11.9,2.27-1,1.92-.6,3.26-1.13,6.23,0-.08-0.41,2-0.57,2.27-0.07.14-1.12,0.49-1.13,0.57-0.07.33,0.66,1.38,0.57,2.27-0.32,3-1.76,5.49-2.27,9.63-0.82,6.72-3.43,13.93-4.53,19.83-0.3,1.59,0,2.86-.57,4.53a8.09,8.09,0,0,1-1.13,1.7c0,0.6,1,1.06,1.13,1.7,0.56,2.12-.59,3.16,0,4.53-4.18.69-8.29-1.37-12.47-2.27-2.48-.53-5.7-0.34-7.93-1.13a11.47,11.47,0,0,1-.57-1.13c-0.28-.07-1,0.6-1.7.57-1-.05-2.4-1-3.4-1.13-1.89-.2-2.18.3-4,0-0.9-.15-4.63-0.55-4.53-0.57a1.86,1.86,0,0,0-.57,1.13c-0.93,0-2.09-.62-3.4-0.57-1.15,0-6.34,1.39-7.37,1.13-0.4-.1-0.61-1.61-1.7-1.13,0.94-1.13-.05-0.72,0-2.27a0.57,0.57,0,0,0,0,1.13c-0.05,1.13-1.24,0-1.13,0-0.49.1-.95,1.1-1.13,1.13-1.67.27-3.38-.19-5.67,0,0.41-1.55-1.13-1.14-1.13-2.27-3.29.11-4.64-1.78-7.37-1.7-0.62,0-1.33,1-1.7,1.13-0.84.24-.85-0.55-1.13-0.57-1.5-.06-2.23,1.22-2.83,1.13-1.25-.19-3.15-2.48-5.1-2.83-0.22-3.5.75-5.66,0-8.5-0.08-.31-0.17-1.5,0-1.13-0.4-.86-0.44.06-0.57,0-2.41-1.24-1-3.75-4.53-2.27,1.05-1.16-.27-0.76,0-0.57-0.51-.38-0.64-1.95-1.7-2.27-0.39-.12-1.38.24-1.7,0s-0.3-1.76-1.7-1.13"/></svg>