<svg id="Layer_1" data-name="Layer 1" xmlns="http://www.w3.org/2000/svg" viewBox="0 0 74.06 83.16"><defs><style>.cls-1{fill:#ee232f;fill-rule:evenodd;}</style></defs><title>state</title><path class="cls-1" d="M67.82,19.54c0.83,2.52,0,3.33,0,6.23,0.18,0.77,1.42.47,2.27,0.57-0.78,3.23,1.49,3.42,1.13,6.23a3.18,3.18,0,0,1-2.27.57c0.11,3.52-3.19,5.33-1.7,8.5,1.4,0.58,1.66-.59,2.27-1.13,1.61-1.44,2.19-4.07,4.53-5.67,3.66,1.32.31,4.2,0,6.8s-0.48,4.15.57,6.23c-1.58.31-1.59,2.19-2.27,3.4-0.64,1.8.62,3.59,0.57,5.1-0.07,2-1.49,4.31-1.7,6.8a24.87,24.87,0,0,0,.57,5.1,1.42,1.42,0,0,1-.57,1.13,13,13,0,0,0,1.13,2.27c0.92,1.87,1.46,3.8,1.13,7.93-12.89.33-24.27,2.17-37.4,2.27-1.83.51-.8-1.85-1.7-2.27-2,0-3.27-.88-5.1-1.13-0.07-3.17-3.32-7.16-.57-9.63C28.53,67.27,27,67.21,26.46,66c-0.95-2.12-.27-5.32-1.13-7.37a9.07,9.07,0,0,0-2.83-4c-0.66-.45-2.42-0.34-3.4-1.13-1.76-1.42-2.63-4.15-4.53-5.67a30.07,30.07,0,0,1-2.83-1.13c-0.62-.41-1.27-1.49-1.7-1.7-1-.5-2.5,0-3.4-0.57-1.19-.72-1-2.57-2.83-2.27,1.39-3.94-1-9.22,1.7-12.47-0.66-1.8-1.58-3.34-3.4-4-0.83-1.26.58-1.06,1.13-2.27,0.32-.69.19-2.38,0.57-2.83a10.77,10.77,0,0,1,1.7-.57,44,44,0,0,1,4-2.83C9.86,12.91,8.9,9.91,8.9,5.94a1.37,1.37,0,0,0,1.7-1.7C15.49,7.76,22.2,1,27-.29c1.09,1.64-1.25,3.78-1.13,6.23,5.24-1.16,10,1.24,11.9,5.1,3.37,0.42,5.79.56,9.07,1.13,0.75,0.13,2.22.38,2.83,0.57,1.56,0.47,2.94,1.93,4.53,2.27,2.51,0.53,5.52-.21,8.5.57,0.24,1.08,1.62,1,1.13,2.83C65.61,18.35,66.56,19.1,67.82,19.54Z"/></svg>