<svg id="Layer_1" data-name="Layer 1" xmlns="http://www.w3.org/2000/svg" viewBox="0 0 87.51 88.26"><defs><style>.cls-1{fill:#ee232f;fill-rule:evenodd;}</style></defs><title>state</title><path class="cls-1" d="M56.65,30.19c3-.78,3.78-3.87,5.35-6.11,2.37,0.05,4.74-1,5.35-4.58,1.45,0.33,1.92,1.65,3.82,1.53,2.17-.13,2.57-2.75,3.82-3.82,1.09-.93,3.41,0,3.06-2.29,1.43,1.34,4.63.52,6.11,1.53,0.25,0.17-.22,1.31,0,1.53s1.38-.24,1.53,0c0.47,0.76.46,1.8,0.76,2.29,0.93,1.5,1.4,2.37.76,5.35-4.35-.18-7.26-5.21-10.7-3.82-1.93,2.51-.86,5.85-1.53,8.41-0.11.41-1.44,1.24-1.53,1.53-0.18.59,0.32,1.77,0,2.29-0.79,1.31-4.79.37-3.82,4.59-7.45-1.08-3.72,9-7.64,11.46-3.37.42-4-4.59-6.88-2.29-1.72,1.7-.28,3.45-0.76,5.35-0.43,1.69-2.46,3.7-3.06,5.35-0.41,1.13.38,2.68,0,3.82-1,2.88-3.87,4.54-4.58,8.41-0.38,2.06,1.05,4.6,0,6.88-4.23-.15-4.85,3.3-9.17,3.06-1,.5-1.42,1.63-1.53,3.06-2.88-.29-5.78,3.34-8.41.76-1.73,1.07-2.51,3.09-4.59,3.82-3.63-1.21-7.25-2.43-7.64-6.88-5.51,0-7.4-3.27-10.7-7.64C3,71.49.38,68.64,0.1,67.63c-0.52-1.86,1.31-4.44,0-6.11,5.23,1.16,3-5.12,6.88-5.35-1.68-2.84-.64-8.51.76-10.7,2.4-.36,2.16,1.92,3.06,3.06,3.6-2.38.9-6.69,2.29-9.93,0.76-1.76,4.83-1.48,3.06-4.59,1.21,0.06,2.91-.37,3.06.76,1.87-.92,3-2.79,4.59-4.59,1.08-1.23,3.21-3,3.82-4.59a23.85,23.85,0,0,0,.51-4.2c0.22-1.66-.23-5.37.26-7.13C31,4.59,27.73,1,29,0,30,4.59,32,18.92,33,22.54c7-.6,12.75-2.53,19.87-3.06,1,4.1,1.49,8.7,2.29,13a2.26,2.26,0,0,0,1.53-1.53V30.19Z"/></svg>